<?xml version="1.0" encoding="UTF-8" standalone="no"?>
		<!DOCTYPE svg PUBLIC "-//W3C//DTD SVG 1.1//EN" "http://www.w3.org/Graphics/SVG/1.1/DTD/svg11.dtd">
		<svg xmlns="http://www.w3.org/2000/svg" viewBox="0 0 800 400" preserveAspectRatio="xMidYMid meet">
			<title>#mwc16 Trend</title>

			<!-- drawing elements to go here -->

<polyline points="0,400 0,391.489361702 8.24742268041,391.489361702 16.4948453608,386.382978723 24.7422680412,396.595744681 32.9896907216,388.085106383 41.2371134021,394.893617021 49.4845360825,394.893617021 57.7319587629,388.085106383 65.9793814433,384.680851064 74.2268041237,398.29787234 82.4742268041,364.255319149 90.7216494845,396.595744681 98.9690721649,398.29787234 107.216494845,400 115.463917526,400 123.711340206,400 131.958762887,400 140.206185567,400 148.453608247,400 156.701030928,400 164.948453608,388.085106383 173.195876289,396.595744681 181.443298969,386.382978723 189.690721649,381.276595745 197.93814433,386.382978723 206.18556701,381.276595745 214.432989691,381.276595745 222.680412371,379.574468085 230.927835052,374.468085106 239.175257732,372.765957447 247.422680412,374.468085106 255.670103093,379.574468085 263.917525773,376.170212766 272.164948454,388.085106383 280.412371134,394.893617021 288.659793814,389.787234043 296.907216495,394.893617021 305.154639175,388.085106383 313.402061856,396.595744681 321.649484536,400 329.896907216,400 338.144329897,400 346.391752577,396.595744681 354.639175258,396.595744681 362.886597938,391.489361702 371.134020619,371.063829787 379.381443299,362.553191489 387.628865979,355.744680851 395.87628866,335.319148936 404.12371134,270.638297872 412.371134021,117.446808511 420.618556701,297.872340426 428.865979381,309.787234043 437.113402062,309.787234043 445.360824742,291.063829787 453.608247423,149.787234043 461.855670103,287.659574468 470.103092784,338.723404255 478.350515464,352.340425532 486.597938144,357.446808511 494.845360825,372.765957447 503.092783505,382.978723404 511.340206186,393.191489362 519.587628866,400 527.835051546,396.595744681 536.082474227,394.893617021 544.329896907,376.170212766 552.577319588,304.680851064 560.824742268,112.340425532 569.072164948,69.7872340426 577.319587629,13.6170212766 585.567010309,86.8085106383 593.81443299,54.4680851064 602.06185567,103.829787234 610.309278351,5.10638297872 618.556701031,112.340425532 626.804123711,122.553191489 635.051546392,119.14893617 643.298969072,0 651.546391753,277.446808511 659.793814433,296.170212766 668.041237113,289.361702128 676.288659794,352.340425532 684.536082474,369.361702128 692.783505155,360.85106383 701.030927835,384.680851064 709.278350515,391.489361702 717.525773196,396.595744681 725.773195876,398.29787234 734.020618557,393.191489362 742.268041237,386.382978723 750.515463918,331.914893617 758.762886598,292.765957447 767.010309278,236.595744681 775.257731959,120.85106383 783.505154639,85.1063829787 791.75257732,282.553191489 800,400"
stroke="rgb(17, 121, 187)" stroke-width="2" stroke-linecap="round"
stroke-linejoin="round" fill="rgb(225, 240, 248)" />

<polyline points="0,400 0,400 8.24742268041,400 16.4948453608,400 24.7422680412,400 32.9896907216,400 41.2371134021,400 49.4845360825,400 57.7319587629,400 65.9793814433,400 74.2268041237,400 82.4742268041,400 90.7216494845,400 98.9690721649,400 107.216494845,400 115.463917526,400 123.711340206,400 131.958762887,400 140.206185567,400 148.453608247,400 156.701030928,400 164.948453608,400 173.195876289,400 181.443298969,400 189.690721649,400 197.93814433,400 206.18556701,400 214.432989691,400 222.680412371,400 230.927835052,400 239.175257732,400 247.422680412,400 255.670103093,400 263.917525773,400 272.164948454,400 280.412371134,400 288.659793814,400 296.907216495,400 305.154639175,400 313.402061856,400 321.649484536,400 329.896907216,400 338.144329897,400 346.391752577,400 354.639175258,400 362.886597938,400 371.134020619,400 379.381443299,400 387.628865979,394.893617021 395.87628866,388.085106383 404.12371134,374.468085106 412.371134021,320 420.618556701,369.361702128 428.865979381,391.489361702 437.113402062,394.893617021 445.360824742,398.29787234 453.608247423,398.29787234 461.855670103,400 470.103092784,400 478.350515464,400 486.597938144,398.29787234 494.845360825,398.29787234 503.092783505,400 511.340206186,400 519.587628866,400 527.835051546,400 536.082474227,400 544.329896907,398.29787234 552.577319588,400 560.824742268,400 569.072164948,398.29787234 577.319587629,394.893617021 585.567010309,398.29787234 593.81443299,394.893617021 602.06185567,394.893617021 610.309278351,398.29787234 618.556701031,394.893617021 626.804123711,400 635.051546392,400 643.298969072,394.893617021 651.546391753,400 659.793814433,400 668.041237113,398.29787234 676.288659794,398.29787234 684.536082474,400 692.783505155,400 701.030927835,400 709.278350515,400 717.525773196,400 725.773195876,400 734.020618557,400 742.268041237,400 750.515463918,400 758.762886598,400 767.010309278,400 775.257731959,400 783.505154639,398.29787234 791.75257732,400 800,400"
stroke="rgb(144, 121, 187)" stroke-width="2" stroke-linecap="round"
stroke-linejoin="round" fill="#ACA5BB" />

<polyline points="0,400 0,400 8.24742268041,400 16.4948453608,400 24.7422680412,400 32.9896907216,400 41.2371134021,400 49.4845360825,400 57.7319587629,400 65.9793814433,400 74.2268041237,400 82.4742268041,400 90.7216494845,400 98.9690721649,400 107.216494845,400 115.463917526,400 123.711340206,400 131.958762887,400 140.206185567,400 148.453608247,400 156.701030928,400 164.948453608,400 173.195876289,400 181.443298969,400 189.690721649,398.29787234 197.93814433,398.29787234 206.18556701,398.29787234 214.432989691,396.595744681 222.680412371,400 230.927835052,400 239.175257732,400 247.422680412,400 255.670103093,400 263.917525773,400 272.164948454,398.29787234 280.412371134,398.29787234 288.659793814,400 296.907216495,400 305.154639175,400 313.402061856,400 321.649484536,400 329.896907216,400 338.144329897,400 346.391752577,400 354.639175258,400 362.886597938,400 371.134020619,400 379.381443299,394.893617021 387.628865979,398.29787234 395.87628866,396.595744681 404.12371134,398.29787234 412.371134021,391.489361702 420.618556701,394.893617021 428.865979381,391.489361702 437.113402062,372.765957447 445.360824742,311.489361702 453.608247423,265.531914894 461.855670103,377.872340426 470.103092784,384.680851064 478.350515464,400 486.597938144,394.893617021 494.845360825,398.29787234 503.092783505,396.595744681 511.340206186,400 519.587628866,400 527.835051546,400 536.082474227,400 544.329896907,398.29787234 552.577319588,398.29787234 560.824742268,400 569.072164948,400 577.319587629,396.595744681 585.567010309,391.489361702 593.81443299,400 602.06185567,400 610.309278351,400 618.556701031,396.595744681 626.804123711,400 635.051546392,400 643.298969072,400 651.546391753,400 659.793814433,396.595744681 668.041237113,400 676.288659794,400 684.536082474,400 692.783505155,396.595744681 701.030927835,400 709.278350515,398.29787234 717.525773196,400 725.773195876,400 734.020618557,400 742.268041237,400 750.515463918,400 758.762886598,400 767.010309278,400 775.257731959,398.29787234 783.505154639,398.29787234 791.75257732,400 800,400"
stroke="rgb(17, 121, 27)" stroke-width="2" stroke-linecap="round"
stroke-linejoin="round" fill="#e1f9e1" />

<rect x="365" y="295" width="70" height="20" rx="5" ry="5"
	stroke-width="0" fill="rgba(203, 203, 203,0.5)" />

<rect x="433" y="235" width="148" height="20" rx="5" ry="5"
	stroke-width="0" fill="rgba(203, 203, 203,0.5)" />

<rect x="430" y="50" width="20" height="20" rx="5" ry="5"
	stroke-width="0" fill="rgb(17, 121, 187)" />

<text x="370" y="310.5" fill="purple" font-family="Verdana" >#LGG5</text>
<text x="438" y="250.5" fill="darkgreen" font-family="Verdana" >#TheNextGalaxy</text>
<text x="455" y="65" fill="rgb(17, 121, 187)" font-family="Verdana" >#MWC16</text>

<text x="392" y="110" fill="#333" font-family="Verdana" font-size="14">13:00</text>
<text x="433" y="142" fill="#333" font-family="Verdana" font-size="14">18:00</text>
		</svg>
