<?xml version="1.0" encoding="UTF-8" standalone="no"?>
		<!DOCTYPE svg PUBLIC "-//W3C//DTD SVG 1.1//EN" "http://www.w3.org/Graphics/SVG/1.1/DTD/svg11.dtd">
		<svg xmlns="http://www.w3.org/2000/svg" viewBox="0 0 800 400" preserveAspectRatio="xMidYMid meet">
			<title>#4yfn Trend</title>

			<!-- drawing elements to go here -->

		    <polyline points="0,400 0,389.189189189 7.92079207921,400 15.8415841584,400 23.7623762376,400 31.6831683168,400 39.603960396,400 47.5247524752,400 55.4455445545,367.567567568 63.3663366337,400 71.2871287129,400 79.2079207921,400 87.1287128713,400 95.0495049505,400 102.97029703,400 110.891089109,400 118.811881188,400 126.732673267,400 134.653465347,400 142.574257426,400 150.495049505,400 158.415841584,400 166.336633663,400 174.257425743,389.189189189 182.178217822,400 190.099009901,400 198.01980198,389.189189189 205.940594059,400 213.861386139,356.756756757 221.782178218,400 229.702970297,400 237.623762376,400 245.544554455,400 253.465346535,389.189189189 261.386138614,400 269.306930693,389.189189189 277.227722772,389.189189189 285.148514851,400 293.069306931,400 300.99009901,400 308.910891089,400 316.831683168,400 324.752475248,400 332.673267327,400 340.594059406,400 348.514851485,400 356.435643564,400 364.356435644,400 372.277227723,378.378378378 380.198019802,356.756756757 388.118811881,367.567567568 396.03960396,400 403.96039604,389.189189189 411.881188119,389.189189189 419.801980198,367.567567568 427.722772277,378.378378378 435.643564356,356.756756757 443.564356436,324.324324324 451.485148515,400 459.405940594,389.189189189 467.326732673,400 475.247524752,389.189189189 483.168316832,356.756756757 491.089108911,400 499.00990099,400 506.930693069,400 514.851485149,400 522.772277228,400 530.693069307,378.378378378 538.613861386,356.756756757 546.534653465,302.702702703 554.455445545,162.162162162 562.376237624,97.2972972973 570.297029703,162.162162162 578.217821782,140.540540541 586.138613861,313.513513514 594.059405941,129.72972973 601.98019802,248.648648649 609.900990099,237.837837838 617.821782178,0 625.742574257,324.324324324 633.663366337,367.567567568 641.584158416,378.378378378 649.504950495,378.378378378 657.425742574,400 665.346534653,400 673.267326733,400 681.188118812,400 689.108910891,400 697.02970297,400 704.95049505,400 712.871287129,400 720.792079208,400 728.712871287,378.378378378 736.633663366,313.513513514 744.554455446,183.783783784 752.475247525,205.405405405 760.396039604,183.783783784 768.316831683,281.081081081 776.237623762,291.891891892 784.158415842,259.459459459 792.079207921,324.324324324 800,400"
		stroke="rgb(17, 121, 27)" stroke-width="2" stroke-linecap="round"
		stroke-linejoin="round" fill="#e1f9e1" />
		</svg>