<?xml version="1.0" encoding="UTF-8" standalone="no"?>
		<!DOCTYPE svg PUBLIC "-//W3C//DTD SVG 1.1//EN" "http://www.w3.org/Graphics/SVG/1.1/DTD/svg11.dtd">
		<svg xmlns="http://www.w3.org/2000/svg" viewBox="0 0 800 400" preserveAspectRatio="xMidYMid meet">
			<title>#4yfn Trend</title>

			<!-- drawing elements to go here -->

		    <polyline points="0,400 0,389.189189189 4.79041916168,400 9.58083832335,400 14.371257485,400 19.1616766467,400 23.9520958084,400 28.7425149701,400 33.5329341317,367.567567568 38.3233532934,400 43.1137724551,400 47.9041916168,400 52.6946107784,400 57.4850299401,400 62.2754491018,400 67.0658682635,400 71.8562874251,400 76.6467065868,400 81.4371257485,400 86.2275449102,400 91.0179640719,400 95.8083832335,400 100.598802395,400 105.389221557,389.189189189 110.179640719,400 114.97005988,400 119.760479042,389.189189189 124.550898204,400 129.341317365,356.756756757 134.131736527,400 138.922155689,400 143.71257485,400 148.502994012,400 153.293413174,389.189189189 158.083832335,400 162.874251497,389.189189189 167.664670659,389.189189189 172.45508982,400 177.245508982,400 182.035928144,400 186.826347305,400 191.616766467,400 196.407185629,400 201.19760479,400 205.988023952,400 210.778443114,400 215.568862275,400 220.359281437,400 225.149700599,378.378378378 229.94011976,356.756756757 234.730538922,367.567567568 239.520958084,400 244.311377246,389.189189189 249.101796407,389.189189189 253.892215569,367.567567568 258.682634731,378.378378378 263.473053892,356.756756757 268.263473054,324.324324324 273.053892216,400 277.844311377,389.189189189 282.634730539,400 287.425149701,389.189189189 292.215568862,356.756756757 297.005988024,400 301.796407186,400 306.586826347,400 311.377245509,400 316.167664671,400 320.958083832,378.378378378 325.748502994,356.756756757 330.538922156,302.702702703 335.329341317,162.162162162 340.119760479,97.2972972973 344.910179641,162.162162162 349.700598802,140.540540541 354.491017964,313.513513514 359.281437126,129.72972973 364.071856287,248.648648649 368.862275449,237.837837838 373.652694611,0 378.443113772,324.324324324 383.233532934,367.567567568 388.023952096,378.378378378 392.814371257,378.378378378 397.604790419,400 402.395209581,400 407.185628743,400 411.976047904,400 416.766467066,400 421.556886228,400 426.347305389,400 431.137724551,400 435.928143713,400 440.718562874,378.378378378 445.508982036,313.513513514 450.299401198,183.783783784 455.089820359,205.405405405 459.880239521,183.783783784 464.670658683,281.081081081 469.461077844,291.891891892 474.251497006,259.459459459 479.041916168,270.27027027 483.832335329,227.027027027 488.622754491,205.405405405 493.413173653,378.378378378 498.203592814,345.945945946 502.994011976,389.189189189 507.784431138,367.567567568 512.574850299,367.567567568 517.365269461,367.567567568 522.155688623,389.189189189 526.946107784,400 531.736526946,389.189189189 536.526946108,400 541.317365269,400 546.107784431,400 550.898203593,389.189189189 555.688622754,356.756756757 560.479041916,313.513513514 565.269461078,205.405405405 570.05988024,118.918918919 574.850299401,172.972972973 579.640718563,291.891891892 584.431137725,281.081081081 589.221556886,205.405405405 594.011976048,281.081081081 598.80239521,324.324324324 603.592814371,324.324324324 608.383233533,324.324324324 613.173652695,367.567567568 617.964071856,400 622.754491018,378.378378378 627.54491018,389.189189189 632.335329341,378.378378378 637.125748503,389.189189189 641.916167665,400 646.706586826,400 651.497005988,400 656.28742515,400 661.077844311,400 665.868263473,389.189189189 670.658682635,400 675.449101796,389.189189189 680.239520958,400 685.02994012,367.567567568 689.820359281,400 694.610778443,367.567567568 699.401197605,400 704.191616766,389.189189189 708.982035928,389.189189189 713.77245509,389.189189189 718.562874251,367.567567568 723.353293413,367.567567568 728.143712575,400 732.934131737,400 737.724550898,400 742.51497006,389.189189189 747.305389222,400 752.095808383,400 756.886227545,400 761.676646707,400 766.467065868,400 771.25748503,400 776.047904192,400 780.838323353,400 785.628742515,389.189189189 790.419161677,356.756756757 795.209580838,400 800,400"
		stroke="rgb(17, 121, 27)" stroke-width="2" stroke-linecap="round"
		stroke-linejoin="round" fill="#e1f9e1" />
		</svg>