<?xml version="1.0" encoding="UTF-8" standalone="no"?>
		<!DOCTYPE svg PUBLIC "-//W3C//DTD SVG 1.1//EN" "http://www.w3.org/Graphics/SVG/1.1/DTD/svg11.dtd">
		<svg xmlns="http://www.w3.org/2000/svg" viewBox="0 0 800 400" preserveAspectRatio="xMidYMid meet">
			<title>#4yfn Trend</title>

			<!-- drawing elements to go here -->

		    <polyline points="0,400 0,398.29787234 7.92079207921,400 15.8415841584,400 23.7623762376,400 31.6831683168,400 39.603960396,400 47.5247524752,400 55.4455445545,394.893617021 63.3663366337,400 71.2871287129,400 79.2079207921,400 87.1287128713,400 95.0495049505,400 102.97029703,400 110.891089109,400 118.811881188,400 126.732673267,400 134.653465347,400 142.574257426,400 150.495049505,400 158.415841584,400 166.336633663,400 174.257425743,398.29787234 182.178217822,400 190.099009901,400 198.01980198,398.29787234 205.940594059,400 213.861386139,393.191489362 221.782178218,400 229.702970297,400 237.623762376,400 245.544554455,400 253.465346535,398.29787234 261.386138614,400 269.306930693,398.29787234 277.227722772,398.29787234 285.148514851,400 293.069306931,400 300.99009901,400 308.910891089,400 316.831683168,400 324.752475248,400 332.673267327,400 340.594059406,400 348.514851485,400 356.435643564,400 364.356435644,400 372.277227723,396.595744681 380.198019802,393.191489362 388.118811881,394.893617021 396.03960396,400 403.96039604,398.29787234 411.881188119,398.29787234 419.801980198,394.893617021 427.722772277,396.595744681 435.643564356,393.191489362 443.564356436,388.085106383 451.485148515,400 459.405940594,398.29787234 467.326732673,400 475.247524752,398.29787234 483.168316832,393.191489362 491.089108911,400 499.00990099,400 506.930693069,400 514.851485149,400 522.772277228,400 530.693069307,396.595744681 538.613861386,393.191489362 546.534653465,384.680851064 554.455445545,362.553191489 562.376237624,352.340425532 570.297029703,362.553191489 578.217821782,359.14893617 586.138613861,386.382978723 594.059405941,357.446808511 601.98019802,376.170212766 609.900990099,374.468085106 617.821782178,337.021276596 625.742574257,388.085106383 633.663366337,394.893617021 641.584158416,396.595744681 649.504950495,396.595744681 657.425742574,400 665.346534653,400 673.267326733,400 681.188118812,400 689.108910891,400 697.02970297,400 704.95049505,400 712.871287129,400 720.792079208,400 728.712871287,396.595744681 736.633663366,386.382978723 744.554455446,365.957446809 752.475247525,369.361702128 760.396039604,365.957446809 768.316831683,381.276595745 776.237623762,382.978723404 784.158415842,377.872340426 792.079207921,388.085106383 800,400"
		stroke="rgb(17, 121, 187)" stroke-width="2" stroke-linecap="round"
		stroke-linejoin="round" fill="rgb(225, 240, 248)" />
		</svg>