<?xml version="1.0" encoding="UTF-8" standalone="no"?>
		<!DOCTYPE svg PUBLIC "-//W3C//DTD SVG 1.1//EN" "http://www.w3.org/Graphics/SVG/1.1/DTD/svg11.dtd">
		<svg xmlns="http://www.w3.org/2000/svg" viewBox="0 0 800 400" preserveAspectRatio="xMidYMid meet">
			<title>#art Trend</title>

			<!-- drawing elements to go here -->

		    <polyline points="0,400 0,400 4.79041916168,400 9.58083832335,398.29787234 14.371257485,400 19.1616766467,398.29787234 23.9520958084,400 28.7425149701,400 33.5329341317,393.191489362 38.3233532934,396.595744681 43.1137724551,398.29787234 47.9041916168,398.29787234 52.6946107784,396.595744681 57.4850299401,400 62.2754491018,400 67.0658682635,400 71.8562874251,400 76.6467065868,400 81.4371257485,400 86.2275449102,400 91.0179640719,400 95.8083832335,400 100.598802395,398.29787234 105.389221557,400 110.179640719,398.29787234 114.97005988,394.893617021 119.760479042,398.29787234 124.550898204,400 129.341317365,400 134.131736527,394.893617021 138.922155689,394.893617021 143.71257485,400 148.502994012,400 153.293413174,400 158.083832335,398.29787234 162.874251497,398.29787234 167.664670659,400 172.45508982,398.29787234 177.245508982,398.29787234 182.035928144,400 186.826347305,400 191.616766467,400 196.407185629,400 201.19760479,400 205.988023952,400 210.778443114,400 215.568862275,400 220.359281437,400 225.149700599,398.29787234 229.94011976,400 234.730538922,396.595744681 239.520958084,394.893617021 244.311377246,400 249.101796407,391.489361702 253.892215569,400 258.682634731,398.29787234 263.473053892,400 268.263473054,400 273.053892216,396.595744681 277.844311377,400 282.634730539,396.595744681 287.425149701,400 292.215568862,396.595744681 297.005988024,400 301.796407186,400 306.586826347,400 311.377245509,400 316.167664671,400 320.958083832,398.29787234 325.748502994,400 330.538922156,398.29787234 335.329341317,400 340.119760479,400 344.910179641,398.29787234 349.700598802,396.595744681 354.491017964,400 359.281437126,398.29787234 364.071856287,398.29787234 368.862275449,398.29787234 373.652694611,400 378.443113772,400 383.233532934,394.893617021 388.023952096,398.29787234 392.814371257,396.595744681 397.604790419,400 402.395209581,398.29787234 407.185628743,400 411.976047904,400 416.766467066,400 421.556886228,400 426.347305389,400 431.137724551,400 435.928143713,398.29787234 440.718562874,398.29787234 445.508982036,400 450.299401198,398.29787234 455.089820359,398.29787234 459.880239521,400 464.670658683,398.29787234 469.461077844,400 474.251497006,400 479.041916168,398.29787234 483.832335329,398.29787234 488.622754491,394.893617021 493.413173653,398.29787234 498.203592814,400 502.994011976,398.29787234 507.784431138,396.595744681 512.574850299,398.29787234 517.365269461,400 522.155688623,400 526.946107784,398.29787234 531.736526946,400 536.526946108,400 541.317365269,400 546.107784431,400 550.898203593,400 555.688622754,400 560.479041916,400 565.269461078,400 570.05988024,360.85106383 574.850299401,400 579.640718563,398.29787234 584.431137725,398.29787234 589.221556886,398.29787234 594.011976048,400 598.80239521,400 603.592814371,400 608.383233533,400 613.173652695,398.29787234 617.964071856,400 622.754491018,400 627.54491018,400 632.335329341,400 637.125748503,400 641.916167665,400 646.706586826,400 651.497005988,400 656.28742515,400 661.077844311,400 665.868263473,400 670.658682635,398.29787234 675.449101796,398.29787234 680.239520958,400 685.02994012,391.489361702 689.820359281,400 694.610778443,400 699.401197605,398.29787234 704.191616766,398.29787234 708.982035928,400 713.77245509,391.489361702 718.562874251,400 723.353293413,400 728.143712575,400 732.934131737,400 737.724550898,400 742.51497006,396.595744681 747.305389222,400 752.095808383,400 756.886227545,400 761.676646707,400 766.467065868,400 771.25748503,400 776.047904192,400 780.838323353,400 785.628742515,398.29787234 790.419161677,400 795.209580838,400 800,400"
		stroke="rgb(17, 121, 187)" stroke-width="2" stroke-linecap="round"
		stroke-linejoin="round" fill="rgb(225, 240, 248)" />
		</svg>