<?xml version="1.0" encoding="UTF-8" standalone="no"?>
		<!DOCTYPE svg PUBLIC "-//W3C//DTD SVG 1.1//EN" "http://www.w3.org/Graphics/SVG/1.1/DTD/svg11.dtd">
		<svg xmlns="http://www.w3.org/2000/svg" viewBox="0 0 800 400" preserveAspectRatio="xMidYMid meet">
			<title>#b10 Trend</title>

			<!-- drawing elements to go here -->

		    <polyline points="0,400 0,400 7.92079207921,320 15.8415841584,320 23.7623762376,400 31.6831683168,400 39.603960396,400 47.5247524752,280 55.4455445545,320 63.3663366337,360 71.2871287129,400 79.2079207921,400 87.1287128713,400 95.0495049505,360 102.97029703,400 110.891089109,400 118.811881188,400 126.732673267,400 134.653465347,400 142.574257426,400 150.495049505,360 158.415841584,400 166.336633663,400 174.257425743,400 182.178217822,400 190.099009901,400 198.01980198,360 205.940594059,400 213.861386139,400 221.782178218,400 229.702970297,400 237.623762376,400 245.544554455,320 253.465346535,400 261.386138614,400 269.306930693,400 277.227722772,400 285.148514851,400 293.069306931,320 300.99009901,400 308.910891089,400 316.831683168,400 324.752475248,400 332.673267327,400 340.594059406,360 348.514851485,400 356.435643564,400 364.356435644,400 372.277227723,400 380.198019802,400 388.118811881,360 396.03960396,400 403.96039604,400 411.881188119,400 419.801980198,400 427.722772277,360 435.643564356,360 443.564356436,400 451.485148515,400 459.405940594,400 467.326732673,400 475.247524752,400 483.168316832,400 491.089108911,360 499.00990099,400 506.930693069,400 514.851485149,400 522.772277228,320 530.693069307,320 538.613861386,360 546.534653465,360 554.455445545,360 562.376237624,400 570.297029703,400 578.217821782,360 586.138613861,360 594.059405941,360 601.98019802,400 609.900990099,320 617.821782178,160 625.742574257,320 633.663366337,280 641.584158416,280 649.504950495,400 657.425742574,400 665.346534653,400 673.267326733,400 681.188118812,400 689.108910891,400 697.02970297,400 704.95049505,400 712.871287129,400 720.792079208,280 728.712871287,120 736.633663366,160 744.554455446,0 752.475247525,240 760.396039604,400 768.316831683,400 776.237623762,200 784.158415842,240 792.079207921,120 800,400"
		stroke="rgb(17, 121, 27)" stroke-width="2" stroke-linecap="round"
		stroke-linejoin="round" fill="#e1f9e1" />
		</svg>