<?xml version="1.0" encoding="UTF-8" standalone="no"?>
		<!DOCTYPE svg PUBLIC "-//W3C//DTD SVG 1.1//EN" "http://www.w3.org/Graphics/SVG/1.1/DTD/svg11.dtd">
		<svg xmlns="http://www.w3.org/2000/svg" viewBox="0 0 800 400" preserveAspectRatio="xMidYMid meet">
			<title>#b10 Trend</title>

			<!-- drawing elements to go here -->

		    <polyline points="0,400 0,400 4.79041916168,396.595744681 9.58083832335,396.595744681 14.371257485,400 19.1616766467,400 23.9520958084,400 28.7425149701,394.893617021 33.5329341317,396.595744681 38.3233532934,398.29787234 43.1137724551,400 47.9041916168,400 52.6946107784,400 57.4850299401,398.29787234 62.2754491018,400 67.0658682635,400 71.8562874251,400 76.6467065868,400 81.4371257485,400 86.2275449102,400 91.0179640719,398.29787234 95.8083832335,400 100.598802395,400 105.389221557,400 110.179640719,400 114.97005988,400 119.760479042,398.29787234 124.550898204,400 129.341317365,400 134.131736527,400 138.922155689,400 143.71257485,400 148.502994012,396.595744681 153.293413174,400 158.083832335,400 162.874251497,400 167.664670659,400 172.45508982,400 177.245508982,396.595744681 182.035928144,400 186.826347305,400 191.616766467,400 196.407185629,400 201.19760479,400 205.988023952,398.29787234 210.778443114,400 215.568862275,400 220.359281437,400 225.149700599,400 229.94011976,400 234.730538922,398.29787234 239.520958084,400 244.311377246,400 249.101796407,400 253.892215569,400 258.682634731,398.29787234 263.473053892,398.29787234 268.263473054,400 273.053892216,400 277.844311377,400 282.634730539,400 287.425149701,400 292.215568862,400 297.005988024,398.29787234 301.796407186,400 306.586826347,400 311.377245509,400 316.167664671,396.595744681 320.958083832,396.595744681 325.748502994,398.29787234 330.538922156,398.29787234 335.329341317,398.29787234 340.119760479,400 344.910179641,400 349.700598802,398.29787234 354.491017964,398.29787234 359.281437126,398.29787234 364.071856287,400 368.862275449,396.595744681 373.652694611,389.787234043 378.443113772,396.595744681 383.233532934,394.893617021 388.023952096,394.893617021 392.814371257,400 397.604790419,400 402.395209581,400 407.185628743,400 411.976047904,400 416.766467066,400 421.556886228,400 426.347305389,400 431.137724551,400 435.928143713,394.893617021 440.718562874,388.085106383 445.508982036,389.787234043 450.299401198,382.978723404 455.089820359,393.191489362 459.880239521,400 464.670658683,400 469.461077844,391.489361702 474.251497006,393.191489362 479.041916168,384.680851064 483.832335329,391.489361702 488.622754491,396.595744681 493.413173653,393.191489362 498.203592814,389.787234043 502.994011976,398.29787234 507.784431138,400 512.574850299,400 517.365269461,400 522.155688623,400 526.946107784,400 531.736526946,400 536.526946108,400 541.317365269,400 546.107784431,396.595744681 550.898203593,398.29787234 555.688622754,398.29787234 560.479041916,394.893617021 565.269461078,394.893617021 570.05988024,398.29787234 574.850299401,400 579.640718563,400 584.431137725,396.595744681 589.221556886,398.29787234 594.011976048,400 598.80239521,386.382978723 603.592814371,393.191489362 608.383233533,396.595744681 613.173652695,398.29787234 617.964071856,398.29787234 622.754491018,400 627.54491018,400 632.335329341,400 637.125748503,400 641.916167665,400 646.706586826,398.29787234 651.497005988,400 656.28742515,400 661.077844311,398.29787234 665.868263473,396.595744681 670.658682635,393.191489362 675.449101796,398.29787234 680.239520958,396.595744681 685.02994012,400 689.820359281,398.29787234 694.610778443,396.595744681 699.401197605,398.29787234 704.191616766,396.595744681 708.982035928,400 713.77245509,398.29787234 718.562874251,398.29787234 723.353293413,398.29787234 728.143712575,400 732.934131737,400 737.724550898,389.787234043 742.51497006,376.170212766 747.305389222,400 752.095808383,400 756.886227545,400 761.676646707,400 766.467065868,400 771.25748503,400 776.047904192,394.893617021 780.838323353,398.29787234 785.628742515,394.893617021 790.419161677,398.29787234 795.209580838,398.29787234 800,400"
		stroke="rgb(17, 121, 187)" stroke-width="2" stroke-linecap="round"
		stroke-linejoin="round" fill="rgb(225, 240, 248)" />
		</svg>