<?xml version="1.0" encoding="UTF-8" standalone="no"?>
		<!DOCTYPE svg PUBLIC "-//W3C//DTD SVG 1.1//EN" "http://www.w3.org/Graphics/SVG/1.1/DTD/svg11.dtd">
		<svg xmlns="http://www.w3.org/2000/svg" viewBox="0 0 800 400" preserveAspectRatio="xMidYMid meet">
			<title>#barcelona Trend</title>

			<!-- drawing elements to go here -->

		    <polyline points="0,400 0,369.230769231 7.92079207921,203.076923077 15.8415841584,283.076923077 23.7623762376,252.307692308 31.6831683168,326.153846154 39.603960396,295.384615385 47.5247524752,276.923076923 55.4455445545,320 63.3663366337,240 71.2871287129,258.461538462 79.2079207921,221.538461538 87.1287128713,289.230769231 95.0495049505,313.846153846 102.97029703,344.615384615 110.891089109,363.076923077 118.811881188,400 126.732673267,381.538461538 134.653465347,393.846153846 142.574257426,393.846153846 150.495049505,369.230769231 158.415841584,363.076923077 166.336633663,320 174.257425743,313.846153846 182.178217822,258.461538462 190.099009901,221.538461538 198.01980198,233.846153846 205.940594059,301.538461538 213.861386139,246.153846154 221.782178218,0 229.702970297,203.076923077 237.623762376,240 245.544554455,246.153846154 253.465346535,196.923076923 261.386138614,209.230769231 269.306930693,233.846153846 277.227722772,258.461538462 285.148514851,283.076923077 293.069306931,276.923076923 300.99009901,338.461538462 308.910891089,393.846153846 316.831683168,393.846153846 324.752475248,387.692307692 332.673267327,393.846153846 340.594059406,363.076923077 348.514851485,369.230769231 356.435643564,369.230769231 364.356435644,307.692307692 372.277227723,147.692307692 380.198019802,209.230769231 388.118811881,172.307692308 396.03960396,240 403.96039604,233.846153846 411.881188119,166.153846154 419.801980198,240 427.722772277,209.230769231 435.643564356,203.076923077 443.564356436,203.076923077 451.485148515,196.923076923 459.405940594,160 467.326732673,313.846153846 475.247524752,356.923076923 483.168316832,326.153846154 491.089108911,332.307692308 499.00990099,387.692307692 506.930693069,387.692307692 514.851485149,381.538461538 522.772277228,369.230769231 530.693069307,338.461538462 538.613861386,270.769230769 546.534653465,178.461538462 554.455445545,203.076923077 562.376237624,172.307692308 570.297029703,221.538461538 578.217821782,129.230769231 586.138613861,196.923076923 594.059405941,196.923076923 601.98019802,270.769230769 609.900990099,172.307692308 617.821782178,141.538461538 625.742574257,110.769230769 633.663366337,160 641.584158416,135.384615385 649.504950495,270.769230769 657.425742574,295.384615385 665.346534653,313.846153846 673.267326733,344.615384615 681.188118812,375.384615385 689.108910891,375.384615385 697.02970297,393.846153846 704.95049505,381.538461538 712.871287129,375.384615385 720.792079208,326.153846154 728.712871287,227.692307692 736.633663366,184.615384615 744.554455446,172.307692308 752.475247525,190.769230769 760.396039604,141.538461538 768.316831683,196.923076923 776.237623762,116.923076923 784.158415842,178.461538462 792.079207921,258.461538462 800,400"
		stroke="rgb(17, 121, 27)" stroke-width="2" stroke-linecap="round"
		stroke-linejoin="round" fill="#e1f9e1" />
		</svg>