<?xml version="1.0" encoding="UTF-8" standalone="no"?>
		<!DOCTYPE svg PUBLIC "-//W3C//DTD SVG 1.1//EN" "http://www.w3.org/Graphics/SVG/1.1/DTD/svg11.dtd">
		<svg xmlns="http://www.w3.org/2000/svg" viewBox="0 0 800 400" preserveAspectRatio="xMidYMid meet">
			<title>#barcelona Trend</title>

			<!-- drawing elements to go here -->

		    <polyline points="0,400 0,376.470588235 4.79041916168,249.411764706 9.58083832335,310.588235294 14.371257485,287.058823529 19.1616766467,343.529411765 23.9520958084,320 28.7425149701,305.882352941 33.5329341317,338.823529412 38.3233532934,277.647058824 43.1137724551,291.764705882 47.9041916168,263.529411765 52.6946107784,315.294117647 57.4850299401,334.117647059 62.2754491018,357.647058824 67.0658682635,371.764705882 71.8562874251,400 76.6467065868,385.882352941 81.4371257485,395.294117647 86.2275449102,395.294117647 91.0179640719,376.470588235 95.8083832335,371.764705882 100.598802395,338.823529412 105.389221557,334.117647059 110.179640719,291.764705882 114.97005988,263.529411765 119.760479042,272.941176471 124.550898204,324.705882353 129.341317365,282.352941176 134.131736527,94.1176470588 138.922155689,249.411764706 143.71257485,277.647058824 148.502994012,282.352941176 153.293413174,244.705882353 158.083832335,254.117647059 162.874251497,272.941176471 167.664670659,291.764705882 172.45508982,310.588235294 177.245508982,305.882352941 182.035928144,352.941176471 186.826347305,395.294117647 191.616766467,395.294117647 196.407185629,390.588235294 201.19760479,395.294117647 205.988023952,371.764705882 210.778443114,376.470588235 215.568862275,376.470588235 220.359281437,329.411764706 225.149700599,207.058823529 229.94011976,254.117647059 234.730538922,225.882352941 239.520958084,277.647058824 244.311377246,272.941176471 249.101796407,221.176470588 253.892215569,277.647058824 258.682634731,254.117647059 263.473053892,249.411764706 268.263473054,249.411764706 273.053892216,244.705882353 277.844311377,216.470588235 282.634730539,334.117647059 287.425149701,367.058823529 292.215568862,343.529411765 297.005988024,348.235294118 301.796407186,390.588235294 306.586826347,390.588235294 311.377245509,385.882352941 316.167664671,376.470588235 320.958083832,352.941176471 325.748502994,301.176470588 330.538922156,230.588235294 335.329341317,249.411764706 340.119760479,225.882352941 344.910179641,263.529411765 349.700598802,192.941176471 354.491017964,244.705882353 359.281437126,244.705882353 364.071856287,301.176470588 368.862275449,225.882352941 373.652694611,202.352941176 378.443113772,178.823529412 383.233532934,216.470588235 388.023952096,197.647058824 392.814371257,301.176470588 397.604790419,320 402.395209581,334.117647059 407.185628743,357.647058824 411.976047904,381.176470588 416.766467066,381.176470588 421.556886228,395.294117647 426.347305389,385.882352941 431.137724551,381.176470588 435.928143713,343.529411765 440.718562874,268.235294118 445.508982036,235.294117647 450.299401198,225.882352941 455.089820359,240 459.880239521,202.352941176 464.670658683,244.705882353 469.461077844,183.529411765 474.251497006,230.588235294 479.041916168,225.882352941 483.832335329,127.058823529 488.622754491,0 493.413173653,263.529411765 498.203592814,136.470588235 502.994011976,258.823529412 507.784431138,169.411764706 512.574850299,277.647058824 517.365269461,329.411764706 522.155688623,329.411764706 526.946107784,348.235294118 531.736526946,390.588235294 536.526946108,395.294117647 541.317365269,381.176470588 546.107784431,381.176470588 550.898203593,315.294117647 555.688622754,249.411764706 560.479041916,268.235294118 565.269461078,301.176470588 570.05988024,263.529411765 574.850299401,202.352941176 579.640718563,263.529411765 584.431137725,272.941176471 589.221556886,287.058823529 594.011976048,338.823529412 598.80239521,244.705882353 603.592814371,192.941176471 608.383233533,225.882352941 613.173652695,268.235294118 617.964071856,258.823529412 622.754491018,221.176470588 627.54491018,197.647058824 632.335329341,343.529411765 637.125748503,334.117647059 641.916167665,376.470588235 646.706586826,381.176470588 651.497005988,381.176470588 656.28742515,381.176470588 661.077844311,324.705882353 665.868263473,343.529411765 670.658682635,263.529411765 675.449101796,310.588235294 680.239520958,296.470588235 685.02994012,225.882352941 689.820359281,291.764705882 694.610778443,277.647058824 699.401197605,291.764705882 704.191616766,287.058823529 708.982035928,268.235294118 713.77245509,263.529411765 718.562874251,263.529411765 723.353293413,235.294117647 728.143712575,282.352941176 732.934131737,291.764705882 737.724550898,207.058823529 742.51497006,141.176470588 747.305389222,315.294117647 752.095808383,315.294117647 756.886227545,362.352941176 761.676646707,385.882352941 766.467065868,381.176470588 771.25748503,385.882352941 776.047904192,367.058823529 780.838323353,338.823529412 785.628742515,315.294117647 790.419161677,301.176470588 795.209580838,315.294117647 800,400"
		stroke="rgb(17, 121, 27)" stroke-width="2" stroke-linecap="round"
		stroke-linejoin="round" fill="#e1f9e1" />
		</svg>