<?xml version="1.0" encoding="UTF-8" standalone="no"?>
		<!DOCTYPE svg PUBLIC "-//W3C//DTD SVG 1.1//EN" "http://www.w3.org/Graphics/SVG/1.1/DTD/svg11.dtd">
		<svg xmlns="http://www.w3.org/2000/svg" viewBox="0 0 800 400" preserveAspectRatio="xMidYMid meet">
			<title>#barcelona Trend</title>

			<!-- drawing elements to go here -->

		    <polyline points="0,400 0,391.489361702 7.92079207921,345.531914894 15.8415841584,367.659574468 23.7623762376,359.14893617 31.6831683168,379.574468085 39.603960396,371.063829787 47.5247524752,365.957446809 55.4455445545,377.872340426 63.3663366337,355.744680851 71.2871287129,360.85106383 79.2079207921,350.638297872 87.1287128713,369.361702128 95.0495049505,376.170212766 102.97029703,384.680851064 110.891089109,389.787234043 118.811881188,400 126.732673267,394.893617021 134.653465347,398.29787234 142.574257426,398.29787234 150.495049505,391.489361702 158.415841584,389.787234043 166.336633663,377.872340426 174.257425743,376.170212766 182.178217822,360.85106383 190.099009901,350.638297872 198.01980198,354.042553191 205.940594059,372.765957447 213.861386139,357.446808511 221.782178218,289.361702128 229.702970297,345.531914894 237.623762376,355.744680851 245.544554455,357.446808511 253.465346535,343.829787234 261.386138614,347.234042553 269.306930693,354.042553191 277.227722772,360.85106383 285.148514851,367.659574468 293.069306931,365.957446809 300.99009901,382.978723404 308.910891089,398.29787234 316.831683168,398.29787234 324.752475248,396.595744681 332.673267327,398.29787234 340.594059406,389.787234043 348.514851485,391.489361702 356.435643564,391.489361702 364.356435644,374.468085106 372.277227723,330.212765957 380.198019802,347.234042553 388.118811881,337.021276596 396.03960396,355.744680851 403.96039604,354.042553191 411.881188119,335.319148936 419.801980198,355.744680851 427.722772277,347.234042553 435.643564356,345.531914894 443.564356436,345.531914894 451.485148515,343.829787234 459.405940594,333.617021277 467.326732673,376.170212766 475.247524752,388.085106383 483.168316832,379.574468085 491.089108911,381.276595745 499.00990099,396.595744681 506.930693069,396.595744681 514.851485149,394.893617021 522.772277228,391.489361702 530.693069307,382.978723404 538.613861386,364.255319149 546.534653465,338.723404255 554.455445545,345.531914894 562.376237624,337.021276596 570.297029703,350.638297872 578.217821782,325.106382979 586.138613861,343.829787234 594.059405941,343.829787234 601.98019802,364.255319149 609.900990099,337.021276596 617.821782178,328.510638298 625.742574257,320 633.663366337,333.617021277 641.584158416,326.808510638 649.504950495,364.255319149 657.425742574,371.063829787 665.346534653,376.170212766 673.267326733,384.680851064 681.188118812,393.191489362 689.108910891,393.191489362 697.02970297,398.29787234 704.95049505,394.893617021 712.871287129,393.191489362 720.792079208,379.574468085 728.712871287,352.340425532 736.633663366,340.425531915 744.554455446,337.021276596 752.475247525,342.127659574 760.396039604,328.510638298 768.316831683,343.829787234 776.237623762,321.70212766 784.158415842,338.723404255 792.079207921,360.85106383 800,400"
		stroke="rgb(17, 121, 187)" stroke-width="2" stroke-linecap="round"
		stroke-linejoin="round" fill="rgb(225, 240, 248)" />
		</svg>