<?xml version="1.0" encoding="UTF-8" standalone="no"?>
		<!DOCTYPE svg PUBLIC "-//W3C//DTD SVG 1.1//EN" "http://www.w3.org/Graphics/SVG/1.1/DTD/svg11.dtd">
		<svg xmlns="http://www.w3.org/2000/svg" viewBox="0 0 800 400" preserveAspectRatio="xMidYMid meet">
			<title>#barcelona Trend</title>

			<!-- drawing elements to go here -->

		    <polyline points="0,400 0,391.489361702 4.79041916168,345.531914894 9.58083832335,367.659574468 14.371257485,359.14893617 19.1616766467,379.574468085 23.9520958084,371.063829787 28.7425149701,365.957446809 33.5329341317,377.872340426 38.3233532934,355.744680851 43.1137724551,360.85106383 47.9041916168,350.638297872 52.6946107784,369.361702128 57.4850299401,376.170212766 62.2754491018,384.680851064 67.0658682635,389.787234043 71.8562874251,400 76.6467065868,394.893617021 81.4371257485,398.29787234 86.2275449102,398.29787234 91.0179640719,391.489361702 95.8083832335,389.787234043 100.598802395,377.872340426 105.389221557,376.170212766 110.179640719,360.85106383 114.97005988,350.638297872 119.760479042,354.042553191 124.550898204,372.765957447 129.341317365,357.446808511 134.131736527,289.361702128 138.922155689,345.531914894 143.71257485,355.744680851 148.502994012,357.446808511 153.293413174,343.829787234 158.083832335,347.234042553 162.874251497,354.042553191 167.664670659,360.85106383 172.45508982,367.659574468 177.245508982,365.957446809 182.035928144,382.978723404 186.826347305,398.29787234 191.616766467,398.29787234 196.407185629,396.595744681 201.19760479,398.29787234 205.988023952,389.787234043 210.778443114,391.489361702 215.568862275,391.489361702 220.359281437,374.468085106 225.149700599,330.212765957 229.94011976,347.234042553 234.730538922,337.021276596 239.520958084,355.744680851 244.311377246,354.042553191 249.101796407,335.319148936 253.892215569,355.744680851 258.682634731,347.234042553 263.473053892,345.531914894 268.263473054,345.531914894 273.053892216,343.829787234 277.844311377,333.617021277 282.634730539,376.170212766 287.425149701,388.085106383 292.215568862,379.574468085 297.005988024,381.276595745 301.796407186,396.595744681 306.586826347,396.595744681 311.377245509,394.893617021 316.167664671,391.489361702 320.958083832,382.978723404 325.748502994,364.255319149 330.538922156,338.723404255 335.329341317,345.531914894 340.119760479,337.021276596 344.910179641,350.638297872 349.700598802,325.106382979 354.491017964,343.829787234 359.281437126,343.829787234 364.071856287,364.255319149 368.862275449,337.021276596 373.652694611,328.510638298 378.443113772,320 383.233532934,333.617021277 388.023952096,326.808510638 392.814371257,364.255319149 397.604790419,371.063829787 402.395209581,376.170212766 407.185628743,384.680851064 411.976047904,393.191489362 416.766467066,393.191489362 421.556886228,398.29787234 426.347305389,394.893617021 431.137724551,393.191489362 435.928143713,379.574468085 440.718562874,352.340425532 445.508982036,340.425531915 450.299401198,337.021276596 455.089820359,342.127659574 459.880239521,328.510638298 464.670658683,343.829787234 469.461077844,321.70212766 474.251497006,338.723404255 479.041916168,337.021276596 483.832335329,301.276595745 488.622754491,255.319148936 493.413173653,350.638297872 498.203592814,304.680851064 502.994011976,348.936170213 507.784431138,316.595744681 512.574850299,355.744680851 517.365269461,374.468085106 522.155688623,374.468085106 526.946107784,381.276595745 531.736526946,396.595744681 536.526946108,398.29787234 541.317365269,393.191489362 546.107784431,393.191489362 550.898203593,369.361702128 555.688622754,345.531914894 560.479041916,352.340425532 565.269461078,364.255319149 570.05988024,350.638297872 574.850299401,328.510638298 579.640718563,350.638297872 584.431137725,354.042553191 589.221556886,359.14893617 594.011976048,377.872340426 598.80239521,343.829787234 603.592814371,325.106382979 608.383233533,337.021276596 613.173652695,352.340425532 617.964071856,348.936170213 622.754491018,335.319148936 627.54491018,326.808510638 632.335329341,379.574468085 637.125748503,376.170212766 641.916167665,391.489361702 646.706586826,393.191489362 651.497005988,393.191489362 656.28742515,393.191489362 661.077844311,372.765957447 665.868263473,379.574468085 670.658682635,350.638297872 675.449101796,367.659574468 680.239520958,362.553191489 685.02994012,337.021276596 689.820359281,360.85106383 694.610778443,355.744680851 699.401197605,360.85106383 704.191616766,359.14893617 708.982035928,352.340425532 713.77245509,350.638297872 718.562874251,350.638297872 723.353293413,340.425531915 728.143712575,357.446808511 732.934131737,360.85106383 737.724550898,330.212765957 742.51497006,306.382978723 747.305389222,369.361702128 752.095808383,369.361702128 756.886227545,386.382978723 761.676646707,394.893617021 766.467065868,393.191489362 771.25748503,394.893617021 776.047904192,388.085106383 780.838323353,377.872340426 785.628742515,369.361702128 790.419161677,364.255319149 795.209580838,369.361702128 800,400"
		stroke="rgb(17, 121, 187)" stroke-width="2" stroke-linecap="round"
		stroke-linejoin="round" fill="rgb(225, 240, 248)" />
		</svg>