<?xml version="1.0" encoding="UTF-8" standalone="no"?>
		<!DOCTYPE svg PUBLIC "-//W3C//DTD SVG 1.1//EN" "http://www.w3.org/Graphics/SVG/1.1/DTD/svg11.dtd">
		<svg xmlns="http://www.w3.org/2000/svg" viewBox="0 0 800 400" preserveAspectRatio="xMidYMid meet">
			<title>#bcn Trend</title>

			<!-- drawing elements to go here -->

		    <polyline points="0,400 0,333.333333333 4.79041916168,366.666666667 9.58083832335,333.333333333 14.371257485,333.333333333 19.1616766467,366.666666667 23.9520958084,333.333333333 28.7425149701,400 33.5329341317,400 38.3233532934,266.666666667 43.1137724551,366.666666667 47.9041916168,366.666666667 52.6946107784,300 57.4850299401,366.666666667 62.2754491018,400 67.0658682635,400 71.8562874251,400 76.6467065868,400 81.4371257485,366.666666667 86.2275449102,400 91.0179640719,400 95.8083832335,400 100.598802395,366.666666667 105.389221557,300 110.179640719,333.333333333 114.97005988,366.666666667 119.760479042,233.333333333 124.550898204,266.666666667 129.341317365,300 134.131736527,200 138.922155689,333.333333333 143.71257485,166.666666667 148.502994012,266.666666667 153.293413174,300 158.083832335,266.666666667 162.874251497,300 167.664670659,300 172.45508982,300 177.245508982,333.333333333 182.035928144,200 186.826347305,400 191.616766467,366.666666667 196.407185629,333.333333333 201.19760479,400 205.988023952,400 210.778443114,400 215.568862275,366.666666667 220.359281437,366.666666667 225.149700599,333.333333333 229.94011976,200 234.730538922,133.333333333 239.520958084,266.666666667 244.311377246,266.666666667 249.101796407,266.666666667 253.892215569,133.333333333 258.682634731,100 263.473053892,300 268.263473054,166.666666667 273.053892216,300 277.844311377,266.666666667 282.634730539,366.666666667 287.425149701,333.333333333 292.215568862,400 297.005988024,333.333333333 301.796407186,366.666666667 306.586826347,366.666666667 311.377245509,366.666666667 316.167664671,366.666666667 320.958083832,300 325.748502994,366.666666667 330.538922156,233.333333333 335.329341317,233.333333333 340.119760479,333.333333333 344.910179641,300 349.700598802,300 354.491017964,200 359.281437126,66.6666666667 364.071856287,233.333333333 368.862275449,233.333333333 373.652694611,300 378.443113772,200 383.233532934,266.666666667 388.023952096,333.333333333 392.814371257,300 397.604790419,266.666666667 402.395209581,366.666666667 407.185628743,333.333333333 411.976047904,400 416.766467066,366.666666667 421.556886228,400 426.347305389,366.666666667 431.137724551,400 435.928143713,333.333333333 440.718562874,366.666666667 445.508982036,233.333333333 450.299401198,333.333333333 455.089820359,166.666666667 459.880239521,366.666666667 464.670658683,266.666666667 469.461077844,333.333333333 474.251497006,333.333333333 479.041916168,300 483.832335329,333.333333333 488.622754491,233.333333333 493.413173653,200 498.203592814,166.666666667 502.994011976,166.666666667 507.784431138,200 512.574850299,233.333333333 517.365269461,333.333333333 522.155688623,400 526.946107784,366.666666667 531.736526946,366.666666667 536.526946108,400 541.317365269,366.666666667 546.107784431,333.333333333 550.898203593,333.333333333 555.688622754,100 560.479041916,333.333333333 565.269461078,266.666666667 570.05988024,233.333333333 574.850299401,66.6666666667 579.640718563,166.666666667 584.431137725,333.333333333 589.221556886,133.333333333 594.011976048,300 598.80239521,333.333333333 603.592814371,200 608.383233533,333.333333333 613.173652695,366.666666667 617.964071856,266.666666667 622.754491018,266.666666667 627.54491018,333.333333333 632.335329341,266.666666667 637.125748503,400 641.916167665,400 646.706586826,400 651.497005988,400 656.28742515,366.666666667 661.077844311,400 665.868263473,366.666666667 670.658682635,233.333333333 675.449101796,333.333333333 680.239520958,266.666666667 685.02994012,233.333333333 689.820359281,0 694.610778443,300 699.401197605,300 704.191616766,300 708.982035928,233.333333333 713.77245509,133.333333333 718.562874251,133.333333333 723.353293413,333.333333333 728.143712575,300 732.934131737,300 737.724550898,233.333333333 742.51497006,300 747.305389222,400 752.095808383,333.333333333 756.886227545,366.666666667 761.676646707,400 766.467065868,400 771.25748503,400 776.047904192,366.666666667 780.838323353,333.333333333 785.628742515,366.666666667 790.419161677,400 795.209580838,300 800,400"
		stroke="rgb(17, 121, 27)" stroke-width="2" stroke-linecap="round"
		stroke-linejoin="round" fill="#e1f9e1" />
		</svg>