<?xml version="1.0" encoding="UTF-8" standalone="no"?>
		<!DOCTYPE svg PUBLIC "-//W3C//DTD SVG 1.1//EN" "http://www.w3.org/Graphics/SVG/1.1/DTD/svg11.dtd">
		<svg xmlns="http://www.w3.org/2000/svg" viewBox="0 0 800 400" preserveAspectRatio="xMidYMid meet">
			<title>#bcn Trend</title>

			<!-- drawing elements to go here -->

		    <polyline points="0,400 0,320 7.92079207921,360 15.8415841584,320 23.7623762376,320 31.6831683168,360 39.603960396,320 47.5247524752,400 55.4455445545,400 63.3663366337,240 71.2871287129,360 79.2079207921,360 87.1287128713,280 95.0495049505,360 102.97029703,400 110.891089109,400 118.811881188,400 126.732673267,400 134.653465347,360 142.574257426,400 150.495049505,400 158.415841584,400 166.336633663,360 174.257425743,280 182.178217822,320 190.099009901,360 198.01980198,200 205.940594059,240 213.861386139,280 221.782178218,160 229.702970297,320 237.623762376,120 245.544554455,240 253.465346535,280 261.386138614,240 269.306930693,280 277.227722772,280 285.148514851,280 293.069306931,320 300.99009901,160 308.910891089,400 316.831683168,360 324.752475248,320 332.673267327,400 340.594059406,400 348.514851485,400 356.435643564,360 364.356435644,360 372.277227723,320 380.198019802,160 388.118811881,80 396.03960396,240 403.96039604,240 411.881188119,240 419.801980198,80 427.722772277,40 435.643564356,280 443.564356436,120 451.485148515,280 459.405940594,240 467.326732673,360 475.247524752,320 483.168316832,400 491.089108911,320 499.00990099,360 506.930693069,360 514.851485149,360 522.772277228,360 530.693069307,280 538.613861386,360 546.534653465,200 554.455445545,200 562.376237624,320 570.297029703,280 578.217821782,280 586.138613861,160 594.059405941,0 601.98019802,200 609.900990099,200 617.821782178,280 625.742574257,160 633.663366337,240 641.584158416,320 649.504950495,280 657.425742574,240 665.346534653,360 673.267326733,320 681.188118812,400 689.108910891,360 697.02970297,400 704.95049505,360 712.871287129,400 720.792079208,320 728.712871287,360 736.633663366,200 744.554455446,320 752.475247525,120 760.396039604,360 768.316831683,240 776.237623762,320 784.158415842,320 792.079207921,360 800,400"
		stroke="rgb(17, 121, 27)" stroke-width="2" stroke-linecap="round"
		stroke-linejoin="round" fill="#e1f9e1" />
		</svg>