<?xml version="1.0" encoding="UTF-8" standalone="no"?>
		<!DOCTYPE svg PUBLIC "-//W3C//DTD SVG 1.1//EN" "http://www.w3.org/Graphics/SVG/1.1/DTD/svg11.dtd">
		<svg xmlns="http://www.w3.org/2000/svg" viewBox="0 0 800 400" preserveAspectRatio="xMidYMid meet">
			<title>#bcn Trend</title>

			<!-- drawing elements to go here -->

		    <polyline points="0,400 0,396.595744681 7.92079207921,398.29787234 15.8415841584,396.595744681 23.7623762376,396.595744681 31.6831683168,398.29787234 39.603960396,396.595744681 47.5247524752,400 55.4455445545,400 63.3663366337,393.191489362 71.2871287129,398.29787234 79.2079207921,398.29787234 87.1287128713,394.893617021 95.0495049505,398.29787234 102.97029703,400 110.891089109,400 118.811881188,400 126.732673267,400 134.653465347,398.29787234 142.574257426,400 150.495049505,400 158.415841584,400 166.336633663,398.29787234 174.257425743,394.893617021 182.178217822,396.595744681 190.099009901,398.29787234 198.01980198,391.489361702 205.940594059,393.191489362 213.861386139,394.893617021 221.782178218,389.787234043 229.702970297,396.595744681 237.623762376,388.085106383 245.544554455,393.191489362 253.465346535,394.893617021 261.386138614,393.191489362 269.306930693,394.893617021 277.227722772,394.893617021 285.148514851,394.893617021 293.069306931,396.595744681 300.99009901,389.787234043 308.910891089,400 316.831683168,398.29787234 324.752475248,396.595744681 332.673267327,400 340.594059406,400 348.514851485,400 356.435643564,398.29787234 364.356435644,398.29787234 372.277227723,396.595744681 380.198019802,389.787234043 388.118811881,386.382978723 396.03960396,393.191489362 403.96039604,393.191489362 411.881188119,393.191489362 419.801980198,386.382978723 427.722772277,384.680851064 435.643564356,394.893617021 443.564356436,388.085106383 451.485148515,394.893617021 459.405940594,393.191489362 467.326732673,398.29787234 475.247524752,396.595744681 483.168316832,400 491.089108911,396.595744681 499.00990099,398.29787234 506.930693069,398.29787234 514.851485149,398.29787234 522.772277228,398.29787234 530.693069307,394.893617021 538.613861386,398.29787234 546.534653465,391.489361702 554.455445545,391.489361702 562.376237624,396.595744681 570.297029703,394.893617021 578.217821782,394.893617021 586.138613861,389.787234043 594.059405941,382.978723404 601.98019802,391.489361702 609.900990099,391.489361702 617.821782178,394.893617021 625.742574257,389.787234043 633.663366337,393.191489362 641.584158416,396.595744681 649.504950495,394.893617021 657.425742574,393.191489362 665.346534653,398.29787234 673.267326733,396.595744681 681.188118812,400 689.108910891,398.29787234 697.02970297,400 704.95049505,398.29787234 712.871287129,400 720.792079208,396.595744681 728.712871287,398.29787234 736.633663366,391.489361702 744.554455446,396.595744681 752.475247525,388.085106383 760.396039604,398.29787234 768.316831683,393.191489362 776.237623762,396.595744681 784.158415842,396.595744681 792.079207921,398.29787234 800,400"
		stroke="rgb(17, 121, 187)" stroke-width="2" stroke-linecap="round"
		stroke-linejoin="round" fill="rgb(225, 240, 248)" />
		</svg>