<?xml version="1.0" encoding="UTF-8" standalone="no"?>
		<!DOCTYPE svg PUBLIC "-//W3C//DTD SVG 1.1//EN" "http://www.w3.org/Graphics/SVG/1.1/DTD/svg11.dtd">
		<svg xmlns="http://www.w3.org/2000/svg" viewBox="0 0 800 400" preserveAspectRatio="xMidYMid meet">
			<title>#bcn Trend</title>

			<!-- drawing elements to go here -->

		    <polyline points="0,400 0,396.595744681 4.79041916168,398.29787234 9.58083832335,396.595744681 14.371257485,396.595744681 19.1616766467,398.29787234 23.9520958084,396.595744681 28.7425149701,400 33.5329341317,400 38.3233532934,393.191489362 43.1137724551,398.29787234 47.9041916168,398.29787234 52.6946107784,394.893617021 57.4850299401,398.29787234 62.2754491018,400 67.0658682635,400 71.8562874251,400 76.6467065868,400 81.4371257485,398.29787234 86.2275449102,400 91.0179640719,400 95.8083832335,400 100.598802395,398.29787234 105.389221557,394.893617021 110.179640719,396.595744681 114.97005988,398.29787234 119.760479042,391.489361702 124.550898204,393.191489362 129.341317365,394.893617021 134.131736527,389.787234043 138.922155689,396.595744681 143.71257485,388.085106383 148.502994012,393.191489362 153.293413174,394.893617021 158.083832335,393.191489362 162.874251497,394.893617021 167.664670659,394.893617021 172.45508982,394.893617021 177.245508982,396.595744681 182.035928144,389.787234043 186.826347305,400 191.616766467,398.29787234 196.407185629,396.595744681 201.19760479,400 205.988023952,400 210.778443114,400 215.568862275,398.29787234 220.359281437,398.29787234 225.149700599,396.595744681 229.94011976,389.787234043 234.730538922,386.382978723 239.520958084,393.191489362 244.311377246,393.191489362 249.101796407,393.191489362 253.892215569,386.382978723 258.682634731,384.680851064 263.473053892,394.893617021 268.263473054,388.085106383 273.053892216,394.893617021 277.844311377,393.191489362 282.634730539,398.29787234 287.425149701,396.595744681 292.215568862,400 297.005988024,396.595744681 301.796407186,398.29787234 306.586826347,398.29787234 311.377245509,398.29787234 316.167664671,398.29787234 320.958083832,394.893617021 325.748502994,398.29787234 330.538922156,391.489361702 335.329341317,391.489361702 340.119760479,396.595744681 344.910179641,394.893617021 349.700598802,394.893617021 354.491017964,389.787234043 359.281437126,382.978723404 364.071856287,391.489361702 368.862275449,391.489361702 373.652694611,394.893617021 378.443113772,389.787234043 383.233532934,393.191489362 388.023952096,396.595744681 392.814371257,394.893617021 397.604790419,393.191489362 402.395209581,398.29787234 407.185628743,396.595744681 411.976047904,400 416.766467066,398.29787234 421.556886228,400 426.347305389,398.29787234 431.137724551,400 435.928143713,396.595744681 440.718562874,398.29787234 445.508982036,391.489361702 450.299401198,396.595744681 455.089820359,388.085106383 459.880239521,398.29787234 464.670658683,393.191489362 469.461077844,396.595744681 474.251497006,396.595744681 479.041916168,394.893617021 483.832335329,396.595744681 488.622754491,391.489361702 493.413173653,389.787234043 498.203592814,388.085106383 502.994011976,388.085106383 507.784431138,389.787234043 512.574850299,391.489361702 517.365269461,396.595744681 522.155688623,400 526.946107784,398.29787234 531.736526946,398.29787234 536.526946108,400 541.317365269,398.29787234 546.107784431,396.595744681 550.898203593,396.595744681 555.688622754,384.680851064 560.479041916,396.595744681 565.269461078,393.191489362 570.05988024,391.489361702 574.850299401,382.978723404 579.640718563,388.085106383 584.431137725,396.595744681 589.221556886,386.382978723 594.011976048,394.893617021 598.80239521,396.595744681 603.592814371,389.787234043 608.383233533,396.595744681 613.173652695,398.29787234 617.964071856,393.191489362 622.754491018,393.191489362 627.54491018,396.595744681 632.335329341,393.191489362 637.125748503,400 641.916167665,400 646.706586826,400 651.497005988,400 656.28742515,398.29787234 661.077844311,400 665.868263473,398.29787234 670.658682635,391.489361702 675.449101796,396.595744681 680.239520958,393.191489362 685.02994012,391.489361702 689.820359281,379.574468085 694.610778443,394.893617021 699.401197605,394.893617021 704.191616766,394.893617021 708.982035928,391.489361702 713.77245509,386.382978723 718.562874251,386.382978723 723.353293413,396.595744681 728.143712575,394.893617021 732.934131737,394.893617021 737.724550898,391.489361702 742.51497006,394.893617021 747.305389222,400 752.095808383,396.595744681 756.886227545,398.29787234 761.676646707,400 766.467065868,400 771.25748503,400 776.047904192,398.29787234 780.838323353,396.595744681 785.628742515,398.29787234 790.419161677,400 795.209580838,394.893617021 800,400"
		stroke="rgb(17, 121, 187)" stroke-width="2" stroke-linecap="round"
		stroke-linejoin="round" fill="rgb(225, 240, 248)" />
		</svg>