<?xml version="1.0" encoding="UTF-8" standalone="no"?>
		<!DOCTYPE svg PUBLIC "-//W3C//DTD SVG 1.1//EN" "http://www.w3.org/Graphics/SVG/1.1/DTD/svg11.dtd">
		<svg xmlns="http://www.w3.org/2000/svg" viewBox="0 0 800 400" preserveAspectRatio="xMidYMid meet">
			<title>#catalunya Trend</title>

			<!-- drawing elements to go here -->

		    <polyline points="0,400 0,400 7.92079207921,400 15.8415841584,400 23.7623762376,398.29787234 31.6831683168,398.29787234 39.603960396,396.595744681 47.5247524752,398.29787234 55.4455445545,400 63.3663366337,400 71.2871287129,400 79.2079207921,400 87.1287128713,396.595744681 95.0495049505,400 102.97029703,400 110.891089109,400 118.811881188,400 126.732673267,396.595744681 134.653465347,400 142.574257426,400 150.495049505,400 158.415841584,400 166.336633663,398.29787234 174.257425743,400 182.178217822,400 190.099009901,394.893617021 198.01980198,391.489361702 205.940594059,398.29787234 213.861386139,400 221.782178218,400 229.702970297,398.29787234 237.623762376,394.893617021 245.544554455,396.595744681 253.465346535,398.29787234 261.386138614,394.893617021 269.306930693,400 277.227722772,400 285.148514851,396.595744681 293.069306931,400 300.99009901,400 308.910891089,400 316.831683168,398.29787234 324.752475248,400 332.673267327,400 340.594059406,400 348.514851485,400 356.435643564,396.595744681 364.356435644,394.893617021 372.277227723,398.29787234 380.198019802,396.595744681 388.118811881,396.595744681 396.03960396,396.595744681 403.96039604,398.29787234 411.881188119,391.489361702 419.801980198,396.595744681 427.722772277,396.595744681 435.643564356,398.29787234 443.564356436,398.29787234 451.485148515,394.893617021 459.405940594,396.595744681 467.326732673,400 475.247524752,398.29787234 483.168316832,400 491.089108911,398.29787234 499.00990099,400 506.930693069,400 514.851485149,398.29787234 522.772277228,400 530.693069307,400 538.613861386,400 546.534653465,400 554.455445545,398.29787234 562.376237624,400 570.297029703,398.29787234 578.217821782,400 586.138613861,396.595744681 594.059405941,398.29787234 601.98019802,398.29787234 609.900990099,400 617.821782178,400 625.742574257,391.489361702 633.663366337,400 641.584158416,398.29787234 649.504950495,396.595744681 657.425742574,394.893617021 665.346534653,400 673.267326733,400 681.188118812,400 689.108910891,400 697.02970297,400 704.95049505,400 712.871287129,400 720.792079208,394.893617021 728.712871287,400 736.633663366,400 744.554455446,400 752.475247525,396.595744681 760.396039604,398.29787234 768.316831683,394.893617021 776.237623762,398.29787234 784.158415842,400 792.079207921,400 800,400"
		stroke="rgb(17, 121, 187)" stroke-width="2" stroke-linecap="round"
		stroke-linejoin="round" fill="rgb(225, 240, 248)" />
		</svg>