<?xml version="1.0" encoding="UTF-8" standalone="no"?>
		<!DOCTYPE svg PUBLIC "-//W3C//DTD SVG 1.1//EN" "http://www.w3.org/Graphics/SVG/1.1/DTD/svg11.dtd">
		<svg xmlns="http://www.w3.org/2000/svg" viewBox="0 0 800 400" preserveAspectRatio="xMidYMid meet">
			<title>#catalunya Trend</title>

			<!-- drawing elements to go here -->

		    <polyline points="0,400 0,400 4.79041916168,400 9.58083832335,400 14.371257485,333.333333333 19.1616766467,333.333333333 23.9520958084,266.666666667 28.7425149701,333.333333333 33.5329341317,400 38.3233532934,400 43.1137724551,400 47.9041916168,400 52.6946107784,266.666666667 57.4850299401,400 62.2754491018,400 67.0658682635,400 71.8562874251,400 76.6467065868,266.666666667 81.4371257485,400 86.2275449102,400 91.0179640719,400 95.8083832335,400 100.598802395,333.333333333 105.389221557,400 110.179640719,400 114.97005988,200 119.760479042,66.6666666667 124.550898204,333.333333333 129.341317365,400 134.131736527,400 138.922155689,333.333333333 143.71257485,200 148.502994012,266.666666667 153.293413174,333.333333333 158.083832335,200 162.874251497,400 167.664670659,400 172.45508982,266.666666667 177.245508982,400 182.035928144,400 186.826347305,400 191.616766467,333.333333333 196.407185629,400 201.19760479,400 205.988023952,400 210.778443114,400 215.568862275,266.666666667 220.359281437,200 225.149700599,333.333333333 229.94011976,266.666666667 234.730538922,266.666666667 239.520958084,266.666666667 244.311377246,333.333333333 249.101796407,66.6666666667 253.892215569,266.666666667 258.682634731,266.666666667 263.473053892,333.333333333 268.263473054,333.333333333 273.053892216,200 277.844311377,266.666666667 282.634730539,400 287.425149701,333.333333333 292.215568862,400 297.005988024,333.333333333 301.796407186,400 306.586826347,400 311.377245509,333.333333333 316.167664671,400 320.958083832,400 325.748502994,400 330.538922156,400 335.329341317,333.333333333 340.119760479,400 344.910179641,333.333333333 349.700598802,400 354.491017964,266.666666667 359.281437126,333.333333333 364.071856287,333.333333333 368.862275449,400 373.652694611,400 378.443113772,66.6666666667 383.233532934,400 388.023952096,333.333333333 392.814371257,266.666666667 397.604790419,200 402.395209581,400 407.185628743,400 411.976047904,400 416.766467066,400 421.556886228,400 426.347305389,400 431.137724551,400 435.928143713,200 440.718562874,400 445.508982036,400 450.299401198,400 455.089820359,266.666666667 459.880239521,333.333333333 464.670658683,200 469.461077844,333.333333333 474.251497006,400 479.041916168,400 483.832335329,133.333333333 488.622754491,400 493.413173653,400 498.203592814,200 502.994011976,400 507.784431138,400 512.574850299,400 517.365269461,400 522.155688623,333.333333333 526.946107784,333.333333333 531.736526946,400 536.526946108,400 541.317365269,400 546.107784431,400 550.898203593,333.333333333 555.688622754,333.333333333 560.479041916,400 565.269461078,400 570.05988024,400 574.850299401,266.666666667 579.640718563,333.333333333 584.431137725,400 589.221556886,400 594.011976048,400 598.80239521,400 603.592814371,333.333333333 608.383233533,333.333333333 613.173652695,333.333333333 617.964071856,266.666666667 622.754491018,400 627.54491018,266.666666667 632.335329341,400 637.125748503,333.333333333 641.916167665,400 646.706586826,400 651.497005988,400 656.28742515,400 661.077844311,400 665.868263473,266.666666667 670.658682635,333.333333333 675.449101796,400 680.239520958,0 685.02994012,400 689.820359281,400 694.610778443,400 699.401197605,266.666666667 704.191616766,400 708.982035928,66.6666666667 713.77245509,333.333333333 718.562874251,333.333333333 723.353293413,400 728.143712575,333.333333333 732.934131737,400 737.724550898,333.333333333 742.51497006,333.333333333 747.305389222,400 752.095808383,400 756.886227545,400 761.676646707,333.333333333 766.467065868,400 771.25748503,400 776.047904192,400 780.838323353,200 785.628742515,333.333333333 790.419161677,266.666666667 795.209580838,333.333333333 800,400"
		stroke="rgb(17, 121, 27)" stroke-width="2" stroke-linecap="round"
		stroke-linejoin="round" fill="#e1f9e1" />
		</svg>