<?xml version="1.0" encoding="UTF-8" standalone="no"?>
		<!DOCTYPE svg PUBLIC "-//W3C//DTD SVG 1.1//EN" "http://www.w3.org/Graphics/SVG/1.1/DTD/svg11.dtd">
		<svg xmlns="http://www.w3.org/2000/svg" viewBox="0 0 800 400" preserveAspectRatio="xMidYMid meet">
			<title>#espaã±a Trend</title>

			<!-- drawing elements to go here -->

		    <polyline points="0,400 0,400 4.79041916168,400 9.58083832335,300 14.371257485,300 19.1616766467,0 23.9520958084,400 28.7425149701,300 33.5329341317,400 38.3233532934,300 43.1137724551,400 47.9041916168,400 52.6946107784,300 57.4850299401,400 62.2754491018,400 67.0658682635,300 71.8562874251,400 76.6467065868,400 81.4371257485,400 86.2275449102,400 91.0179640719,300 95.8083832335,300 100.598802395,400 105.389221557,300 110.179640719,400 114.97005988,400 119.760479042,400 124.550898204,300 129.341317365,400 134.131736527,400 138.922155689,300 143.71257485,300 148.502994012,300 153.293413174,300 158.083832335,300 162.874251497,400 167.664670659,400 172.45508982,300 177.245508982,400 182.035928144,300 186.826347305,400 191.616766467,400 196.407185629,400 201.19760479,400 205.988023952,400 210.778443114,400 215.568862275,300 220.359281437,400 225.149700599,400 229.94011976,400 234.730538922,400 239.520958084,400 244.311377246,300 249.101796407,300 253.892215569,400 258.682634731,200 263.473053892,400 268.263473054,300 273.053892216,400 277.844311377,400 282.634730539,400 287.425149701,400 292.215568862,400 297.005988024,400 301.796407186,400 306.586826347,400 311.377245509,400 316.167664671,400 320.958083832,400 325.748502994,400 330.538922156,0 335.329341317,400 340.119760479,300 344.910179641,400 349.700598802,300 354.491017964,300 359.281437126,400 364.071856287,300 368.862275449,300 373.652694611,300 378.443113772,0 383.233532934,400 388.023952096,300 392.814371257,300 397.604790419,200 402.395209581,400 407.185628743,400 411.976047904,400 416.766467066,400 421.556886228,400 426.347305389,400 431.137724551,400 435.928143713,300 440.718562874,400 445.508982036,300 450.299401198,400 455.089820359,400 459.880239521,400 464.670658683,300 469.461077844,400 474.251497006,400 479.041916168,300 483.832335329,300 488.622754491,400 493.413173653,400 498.203592814,300 502.994011976,300 507.784431138,200 512.574850299,200 517.365269461,300 522.155688623,300 526.946107784,300 531.736526946,300 536.526946108,400 541.317365269,400 546.107784431,400 550.898203593,400 555.688622754,400 560.479041916,100 565.269461078,200 570.05988024,300 574.850299401,400 579.640718563,400 584.431137725,400 589.221556886,300 594.011976048,400 598.80239521,200 603.592814371,300 608.383233533,400 613.173652695,300 617.964071856,400 622.754491018,400 627.54491018,300 632.335329341,300 637.125748503,300 641.916167665,400 646.706586826,400 651.497005988,200 656.28742515,400 661.077844311,400 665.868263473,400 670.658682635,200 675.449101796,300 680.239520958,300 685.02994012,400 689.820359281,400 694.610778443,400 699.401197605,400 704.191616766,200 708.982035928,200 713.77245509,400 718.562874251,0 723.353293413,200 728.143712575,200 732.934131737,300 737.724550898,300 742.51497006,400 747.305389222,300 752.095808383,400 756.886227545,300 761.676646707,400 766.467065868,400 771.25748503,400 776.047904192,400 780.838323353,300 785.628742515,400 790.419161677,200 795.209580838,300 800,400"
		stroke="rgb(17, 121, 27)" stroke-width="2" stroke-linecap="round"
		stroke-linejoin="round" fill="#e1f9e1" />
		</svg>