<?xml version="1.0" encoding="UTF-8" standalone="no"?>
		<!DOCTYPE svg PUBLIC "-//W3C//DTD SVG 1.1//EN" "http://www.w3.org/Graphics/SVG/1.1/DTD/svg11.dtd">
		<svg xmlns="http://www.w3.org/2000/svg" viewBox="0 0 800 400" preserveAspectRatio="xMidYMid meet">
			<title>#facebook Trend</title>

			<!-- drawing elements to go here -->

		    <polyline points="0,400 0,378.947368421 4.79041916168,400 9.58083832335,400 14.371257485,378.947368421 19.1616766467,400 23.9520958084,400 28.7425149701,400 33.5329341317,400 38.3233532934,357.894736842 43.1137724551,400 47.9041916168,400 52.6946107784,400 57.4850299401,400 62.2754491018,400 67.0658682635,400 71.8562874251,400 76.6467065868,400 81.4371257485,400 86.2275449102,400 91.0179640719,400 95.8083832335,400 100.598802395,400 105.389221557,400 110.179640719,400 114.97005988,378.947368421 119.760479042,400 124.550898204,357.894736842 129.341317365,400 134.131736527,378.947368421 138.922155689,400 143.71257485,400 148.502994012,378.947368421 153.293413174,336.842105263 158.083832335,400 162.874251497,400 167.664670659,400 172.45508982,378.947368421 177.245508982,378.947368421 182.035928144,400 186.826347305,400 191.616766467,400 196.407185629,400 201.19760479,400 205.988023952,400 210.778443114,400 215.568862275,400 220.359281437,400 225.149700599,400 229.94011976,378.947368421 234.730538922,400 239.520958084,378.947368421 244.311377246,400 249.101796407,400 253.892215569,400 258.682634731,400 263.473053892,252.631578947 268.263473054,294.736842105 273.053892216,336.842105263 277.844311377,400 282.634730539,378.947368421 287.425149701,400 292.215568862,400 297.005988024,400 301.796407186,400 306.586826347,400 311.377245509,400 316.167664671,400 320.958083832,378.947368421 325.748502994,400 330.538922156,400 335.329341317,400 340.119760479,357.894736842 344.910179641,400 349.700598802,378.947368421 354.491017964,378.947368421 359.281437126,400 364.071856287,357.894736842 368.862275449,294.736842105 373.652694611,0 378.443113772,378.947368421 383.233532934,400 388.023952096,378.947368421 392.814371257,400 397.604790419,336.842105263 402.395209581,400 407.185628743,400 411.976047904,400 416.766467066,400 421.556886228,400 426.347305389,400 431.137724551,400 435.928143713,400 440.718562874,378.947368421 445.508982036,357.894736842 450.299401198,400 455.089820359,378.947368421 459.880239521,378.947368421 464.670658683,378.947368421 469.461077844,378.947368421 474.251497006,400 479.041916168,315.789473684 483.832335329,400 488.622754491,400 493.413173653,400 498.203592814,400 502.994011976,400 507.784431138,400 512.574850299,378.947368421 517.365269461,378.947368421 522.155688623,400 526.946107784,400 531.736526946,400 536.526946108,400 541.317365269,400 546.107784431,400 550.898203593,400 555.688622754,400 560.479041916,400 565.269461078,400 570.05988024,378.947368421 574.850299401,400 579.640718563,378.947368421 584.431137725,294.736842105 589.221556886,400 594.011976048,378.947368421 598.80239521,378.947368421 603.592814371,378.947368421 608.383233533,378.947368421 613.173652695,357.894736842 617.964071856,357.894736842 622.754491018,400 627.54491018,357.894736842 632.335329341,400 637.125748503,400 641.916167665,400 646.706586826,400 651.497005988,400 656.28742515,400 661.077844311,400 665.868263473,400 670.658682635,400 675.449101796,357.894736842 680.239520958,378.947368421 685.02994012,400 689.820359281,378.947368421 694.610778443,378.947368421 699.401197605,400 704.191616766,400 708.982035928,400 713.77245509,400 718.562874251,400 723.353293413,378.947368421 728.143712575,400 732.934131737,400 737.724550898,336.842105263 742.51497006,400 747.305389222,378.947368421 752.095808383,400 756.886227545,400 761.676646707,400 766.467065868,400 771.25748503,400 776.047904192,400 780.838323353,400 785.628742515,378.947368421 790.419161677,400 795.209580838,400 800,400"
		stroke="rgb(17, 121, 27)" stroke-width="2" stroke-linecap="round"
		stroke-linejoin="round" fill="#e1f9e1" />
		</svg>