<?xml version="1.0" encoding="UTF-8" standalone="no"?>
		<!DOCTYPE svg PUBLIC "-//W3C//DTD SVG 1.1//EN" "http://www.w3.org/Graphics/SVG/1.1/DTD/svg11.dtd">
		<svg xmlns="http://www.w3.org/2000/svg" viewBox="0 0 800 400" preserveAspectRatio="xMidYMid meet">
			<title>#gaudi Trend</title>

			<!-- drawing elements to go here -->

		    <polyline points="0,400 0,398.29787234 4.79041916168,398.29787234 9.58083832335,400 14.371257485,400 19.1616766467,398.29787234 23.9520958084,398.29787234 28.7425149701,400 33.5329341317,398.29787234 38.3233532934,400 43.1137724551,400 47.9041916168,400 52.6946107784,400 57.4850299401,393.191489362 62.2754491018,400 67.0658682635,400 71.8562874251,400 76.6467065868,398.29787234 81.4371257485,400 86.2275449102,400 91.0179640719,400 95.8083832335,400 100.598802395,400 105.389221557,398.29787234 110.179640719,400 114.97005988,400 119.760479042,400 124.550898204,400 129.341317365,396.595744681 134.131736527,400 138.922155689,394.893617021 143.71257485,398.29787234 148.502994012,394.893617021 153.293413174,398.29787234 158.083832335,400 162.874251497,398.29787234 167.664670659,400 172.45508982,400 177.245508982,398.29787234 182.035928144,400 186.826347305,400 191.616766467,400 196.407185629,400 201.19760479,400 205.988023952,400 210.778443114,400 215.568862275,400 220.359281437,400 225.149700599,400 229.94011976,400 234.730538922,398.29787234 239.520958084,398.29787234 244.311377246,394.893617021 249.101796407,394.893617021 253.892215569,398.29787234 258.682634731,396.595744681 263.473053892,396.595744681 268.263473054,398.29787234 273.053892216,398.29787234 277.844311377,398.29787234 282.634730539,400 287.425149701,400 292.215568862,400 297.005988024,400 301.796407186,400 306.586826347,400 311.377245509,398.29787234 316.167664671,400 320.958083832,400 325.748502994,400 330.538922156,400 335.329341317,400 340.119760479,398.29787234 344.910179641,400 349.700598802,400 354.491017964,398.29787234 359.281437126,400 364.071856287,400 368.862275449,400 373.652694611,400 378.443113772,398.29787234 383.233532934,400 388.023952096,396.595744681 392.814371257,398.29787234 397.604790419,400 402.395209581,400 407.185628743,400 411.976047904,400 416.766467066,400 421.556886228,400 426.347305389,400 431.137724551,400 435.928143713,400 440.718562874,398.29787234 445.508982036,400 450.299401198,400 455.089820359,400 459.880239521,398.29787234 464.670658683,393.191489362 469.461077844,400 474.251497006,400 479.041916168,398.29787234 483.832335329,396.595744681 488.622754491,398.29787234 493.413173653,400 498.203592814,400 502.994011976,394.893617021 507.784431138,396.595744681 512.574850299,400 517.365269461,400 522.155688623,400 526.946107784,400 531.736526946,400 536.526946108,400 541.317365269,400 546.107784431,400 550.898203593,400 555.688622754,400 560.479041916,398.29787234 565.269461078,400 570.05988024,400 574.850299401,400 579.640718563,400 584.431137725,398.29787234 589.221556886,400 594.011976048,400 598.80239521,400 603.592814371,398.29787234 608.383233533,398.29787234 613.173652695,396.595744681 617.964071856,398.29787234 622.754491018,396.595744681 627.54491018,400 632.335329341,400 637.125748503,398.29787234 641.916167665,400 646.706586826,398.29787234 651.497005988,400 656.28742515,400 661.077844311,400 665.868263473,400 670.658682635,400 675.449101796,400 680.239520958,398.29787234 685.02994012,400 689.820359281,400 694.610778443,400 699.401197605,400 704.191616766,398.29787234 708.982035928,400 713.77245509,400 718.562874251,396.595744681 723.353293413,400 728.143712575,396.595744681 732.934131737,400 737.724550898,400 742.51497006,398.29787234 747.305389222,400 752.095808383,400 756.886227545,400 761.676646707,400 766.467065868,400 771.25748503,400 776.047904192,400 780.838323353,398.29787234 785.628742515,400 790.419161677,400 795.209580838,396.595744681 800,400"
		stroke="rgb(17, 121, 187)" stroke-width="2" stroke-linecap="round"
		stroke-linejoin="round" fill="rgb(225, 240, 248)" />
		</svg>