<?xml version="1.0" encoding="UTF-8" standalone="no"?>
		<!DOCTYPE svg PUBLIC "-//W3C//DTD SVG 1.1//EN" "http://www.w3.org/Graphics/SVG/1.1/DTD/svg11.dtd">
		<svg xmlns="http://www.w3.org/2000/svg" viewBox="0 0 800 400" preserveAspectRatio="xMidYMid meet">
			<title>#hospitalet Trend</title>

			<!-- drawing elements to go here -->

		    <polyline points="0,400 0,400 4.79041916168,400 9.58083832335,400 14.371257485,266.666666667 19.1616766467,400 23.9520958084,400 28.7425149701,266.666666667 33.5329341317,400 38.3233532934,400 43.1137724551,266.666666667 47.9041916168,400 52.6946107784,400 57.4850299401,400 62.2754491018,266.666666667 67.0658682635,133.333333333 71.8562874251,400 76.6467065868,266.666666667 81.4371257485,266.666666667 86.2275449102,400 91.0179640719,266.666666667 95.8083832335,266.666666667 100.598802395,400 105.389221557,266.666666667 110.179640719,266.666666667 114.97005988,400 119.760479042,400 124.550898204,400 129.341317365,266.666666667 134.131736527,400 138.922155689,400 143.71257485,266.666666667 148.502994012,400 153.293413174,400 158.083832335,266.666666667 162.874251497,400 167.664670659,400 172.45508982,400 177.245508982,266.666666667 182.035928144,133.333333333 186.826347305,400 191.616766467,266.666666667 196.407185629,266.666666667 201.19760479,400 205.988023952,266.666666667 210.778443114,266.666666667 215.568862275,400 220.359281437,266.666666667 225.149700599,0 229.94011976,400 234.730538922,400 239.520958084,400 244.311377246,133.333333333 249.101796407,400 253.892215569,400 258.682634731,266.666666667 263.473053892,400 268.263473054,400 273.053892216,266.666666667 277.844311377,400 282.634730539,400 287.425149701,400 292.215568862,266.666666667 297.005988024,133.333333333 301.796407186,400 306.586826347,266.666666667 311.377245509,266.666666667 316.167664671,400 320.958083832,266.666666667 325.748502994,266.666666667 330.538922156,400 335.329341317,266.666666667 340.119760479,0 344.910179641,400 349.700598802,400 354.491017964,400 359.281437126,266.666666667 364.071856287,400 368.862275449,400 373.652694611,266.666666667 378.443113772,400 383.233532934,400 388.023952096,266.666666667 392.814371257,400 397.604790419,400 402.395209581,400 407.185628743,266.666666667 411.976047904,133.333333333 416.766467066,400 421.556886228,266.666666667 426.347305389,266.666666667 431.137724551,400 435.928143713,266.666666667 440.718562874,266.666666667 445.508982036,400 450.299401198,266.666666667 455.089820359,266.666666667 459.880239521,400 464.670658683,400 469.461077844,400 474.251497006,266.666666667 479.041916168,400 483.832335329,400 488.622754491,266.666666667 493.413173653,400 498.203592814,400 502.994011976,266.666666667 507.784431138,400 512.574850299,400 517.365269461,266.666666667 522.155688623,266.666666667 526.946107784,133.333333333 531.736526946,400 536.526946108,266.666666667 541.317365269,266.666666667 546.107784431,400 550.898203593,266.666666667 555.688622754,266.666666667 560.479041916,400 565.269461078,266.666666667 570.05988024,266.666666667 574.850299401,400 579.640718563,400 584.431137725,400 589.221556886,266.666666667 594.011976048,400 598.80239521,400 603.592814371,266.666666667 608.383233533,400 613.173652695,400 617.964071856,266.666666667 622.754491018,400 627.54491018,400 632.335329341,400 637.125748503,266.666666667 641.916167665,133.333333333 646.706586826,400 651.497005988,266.666666667 656.28742515,266.666666667 661.077844311,400 665.868263473,266.666666667 670.658682635,266.666666667 675.449101796,400 680.239520958,266.666666667 685.02994012,266.666666667 689.820359281,400 694.610778443,266.666666667 699.401197605,400 704.191616766,266.666666667 708.982035928,266.666666667 713.77245509,400 718.562874251,266.666666667 723.353293413,400 728.143712575,400 732.934131737,266.666666667 737.724550898,400 742.51497006,400 747.305389222,400 752.095808383,266.666666667 756.886227545,133.333333333 761.676646707,400 766.467065868,266.666666667 771.25748503,266.666666667 776.047904192,400 780.838323353,266.666666667 785.628742515,266.666666667 790.419161677,400 795.209580838,266.666666667 800,400"
		stroke="rgb(17, 121, 27)" stroke-width="2" stroke-linecap="round"
		stroke-linejoin="round" fill="#e1f9e1" />
		</svg>