<?xml version="1.0" encoding="UTF-8" standalone="no"?>
		<!DOCTYPE svg PUBLIC "-//W3C//DTD SVG 1.1//EN" "http://www.w3.org/Graphics/SVG/1.1/DTD/svg11.dtd">
		<svg xmlns="http://www.w3.org/2000/svg" viewBox="0 0 800 400" preserveAspectRatio="xMidYMid meet">
			<title>#hospitalet Trend</title>

			<!-- drawing elements to go here -->

		    <polyline points="0,400 0,400 4.79041916168,400 9.58083832335,400 14.371257485,398.29787234 19.1616766467,400 23.9520958084,400 28.7425149701,398.29787234 33.5329341317,400 38.3233532934,400 43.1137724551,398.29787234 47.9041916168,400 52.6946107784,400 57.4850299401,400 62.2754491018,398.29787234 67.0658682635,396.595744681 71.8562874251,400 76.6467065868,398.29787234 81.4371257485,398.29787234 86.2275449102,400 91.0179640719,398.29787234 95.8083832335,398.29787234 100.598802395,400 105.389221557,398.29787234 110.179640719,398.29787234 114.97005988,400 119.760479042,400 124.550898204,400 129.341317365,398.29787234 134.131736527,400 138.922155689,400 143.71257485,398.29787234 148.502994012,400 153.293413174,400 158.083832335,398.29787234 162.874251497,400 167.664670659,400 172.45508982,400 177.245508982,398.29787234 182.035928144,396.595744681 186.826347305,400 191.616766467,398.29787234 196.407185629,398.29787234 201.19760479,400 205.988023952,398.29787234 210.778443114,398.29787234 215.568862275,400 220.359281437,398.29787234 225.149700599,394.893617021 229.94011976,400 234.730538922,400 239.520958084,400 244.311377246,396.595744681 249.101796407,400 253.892215569,400 258.682634731,398.29787234 263.473053892,400 268.263473054,400 273.053892216,398.29787234 277.844311377,400 282.634730539,400 287.425149701,400 292.215568862,398.29787234 297.005988024,396.595744681 301.796407186,400 306.586826347,398.29787234 311.377245509,398.29787234 316.167664671,400 320.958083832,398.29787234 325.748502994,398.29787234 330.538922156,400 335.329341317,398.29787234 340.119760479,394.893617021 344.910179641,400 349.700598802,400 354.491017964,400 359.281437126,398.29787234 364.071856287,400 368.862275449,400 373.652694611,398.29787234 378.443113772,400 383.233532934,400 388.023952096,398.29787234 392.814371257,400 397.604790419,400 402.395209581,400 407.185628743,398.29787234 411.976047904,396.595744681 416.766467066,400 421.556886228,398.29787234 426.347305389,398.29787234 431.137724551,400 435.928143713,398.29787234 440.718562874,398.29787234 445.508982036,400 450.299401198,398.29787234 455.089820359,398.29787234 459.880239521,400 464.670658683,400 469.461077844,400 474.251497006,398.29787234 479.041916168,400 483.832335329,400 488.622754491,398.29787234 493.413173653,400 498.203592814,400 502.994011976,398.29787234 507.784431138,400 512.574850299,400 517.365269461,398.29787234 522.155688623,398.29787234 526.946107784,396.595744681 531.736526946,400 536.526946108,398.29787234 541.317365269,398.29787234 546.107784431,400 550.898203593,398.29787234 555.688622754,398.29787234 560.479041916,400 565.269461078,398.29787234 570.05988024,398.29787234 574.850299401,400 579.640718563,400 584.431137725,400 589.221556886,398.29787234 594.011976048,400 598.80239521,400 603.592814371,398.29787234 608.383233533,400 613.173652695,400 617.964071856,398.29787234 622.754491018,400 627.54491018,400 632.335329341,400 637.125748503,398.29787234 641.916167665,396.595744681 646.706586826,400 651.497005988,398.29787234 656.28742515,398.29787234 661.077844311,400 665.868263473,398.29787234 670.658682635,398.29787234 675.449101796,400 680.239520958,398.29787234 685.02994012,398.29787234 689.820359281,400 694.610778443,398.29787234 699.401197605,400 704.191616766,398.29787234 708.982035928,398.29787234 713.77245509,400 718.562874251,398.29787234 723.353293413,400 728.143712575,400 732.934131737,398.29787234 737.724550898,400 742.51497006,400 747.305389222,400 752.095808383,398.29787234 756.886227545,396.595744681 761.676646707,400 766.467065868,398.29787234 771.25748503,398.29787234 776.047904192,400 780.838323353,398.29787234 785.628742515,398.29787234 790.419161677,400 795.209580838,398.29787234 800,400"
		stroke="rgb(17, 121, 187)" stroke-width="2" stroke-linecap="round"
		stroke-linejoin="round" fill="rgb(225, 240, 248)" />
		</svg>