<?xml version="1.0" encoding="UTF-8" standalone="no"?>
		<!DOCTYPE svg PUBLIC "-//W3C//DTD SVG 1.1//EN" "http://www.w3.org/Graphics/SVG/1.1/DTD/svg11.dtd">
		<svg xmlns="http://www.w3.org/2000/svg" viewBox="0 0 800 400" preserveAspectRatio="xMidYMid meet">
			<title>#huawei Trend</title>

			<!-- drawing elements to go here -->

		    <polyline points="0,400 0,400 4.79041916168,400 9.58083832335,400 14.371257485,400 19.1616766467,400 23.9520958084,400 28.7425149701,400 33.5329341317,400 38.3233532934,400 43.1137724551,400 47.9041916168,400 52.6946107784,400 57.4850299401,400 62.2754491018,400 67.0658682635,400 71.8562874251,400 76.6467065868,400 81.4371257485,400 86.2275449102,400 91.0179640719,400 95.8083832335,400 100.598802395,400 105.389221557,400 110.179640719,400 114.97005988,400 119.760479042,382.608695652 124.550898204,400 129.341317365,400 134.131736527,400 138.922155689,382.608695652 143.71257485,400 148.502994012,400 153.293413174,400 158.083832335,400 162.874251497,400 167.664670659,400 172.45508982,400 177.245508982,382.608695652 182.035928144,400 186.826347305,400 191.616766467,400 196.407185629,400 201.19760479,400 205.988023952,400 210.778443114,400 215.568862275,400 220.359281437,365.217391304 225.149700599,400 229.94011976,365.217391304 234.730538922,191.304347826 239.520958084,0 244.311377246,347.826086957 249.101796407,365.217391304 253.892215569,400 258.682634731,382.608695652 263.473053892,382.608695652 268.263473054,400 273.053892216,400 277.844311377,400 282.634730539,400 287.425149701,400 292.215568862,400 297.005988024,382.608695652 301.796407186,400 306.586826347,400 311.377245509,400 316.167664671,382.608695652 320.958083832,400 325.748502994,400 330.538922156,400 335.329341317,347.826086957 340.119760479,400 344.910179641,400 349.700598802,330.434782609 354.491017964,365.217391304 359.281437126,382.608695652 364.071856287,382.608695652 368.862275449,400 373.652694611,400 378.443113772,365.217391304 383.233532934,365.217391304 388.023952096,347.826086957 392.814371257,382.608695652 397.604790419,400 402.395209581,400 407.185628743,400 411.976047904,400 416.766467066,400 421.556886228,400 426.347305389,400 431.137724551,400 435.928143713,382.608695652 440.718562874,382.608695652 445.508982036,400 450.299401198,382.608695652 455.089820359,347.826086957 459.880239521,347.826086957 464.670658683,400 469.461077844,382.608695652 474.251497006,400 479.041916168,400 483.832335329,382.608695652 488.622754491,400 493.413173653,382.608695652 498.203592814,400 502.994011976,400 507.784431138,347.826086957 512.574850299,382.608695652 517.365269461,400 522.155688623,382.608695652 526.946107784,382.608695652 531.736526946,400 536.526946108,400 541.317365269,400 546.107784431,400 550.898203593,400 555.688622754,400 560.479041916,400 565.269461078,382.608695652 570.05988024,365.217391304 574.850299401,382.608695652 579.640718563,382.608695652 584.431137725,400 589.221556886,400 594.011976048,382.608695652 598.80239521,365.217391304 603.592814371,400 608.383233533,400 613.173652695,400 617.964071856,400 622.754491018,400 627.54491018,365.217391304 632.335329341,400 637.125748503,382.608695652 641.916167665,400 646.706586826,400 651.497005988,400 656.28742515,400 661.077844311,400 665.868263473,400 670.658682635,382.608695652 675.449101796,400 680.239520958,382.608695652 685.02994012,400 689.820359281,330.434782609 694.610778443,278.260869565 699.401197605,278.260869565 704.191616766,382.608695652 708.982035928,295.652173913 713.77245509,347.826086957 718.562874251,400 723.353293413,400 728.143712575,400 732.934131737,400 737.724550898,400 742.51497006,400 747.305389222,400 752.095808383,400 756.886227545,400 761.676646707,400 766.467065868,400 771.25748503,400 776.047904192,400 780.838323353,400 785.628742515,400 790.419161677,400 795.209580838,400 800,400"
		stroke="rgb(17, 121, 27)" stroke-width="2" stroke-linecap="round"
		stroke-linejoin="round" fill="#e1f9e1" />
		</svg>