<?xml version="1.0" encoding="UTF-8" standalone="no"?>
		<!DOCTYPE svg PUBLIC "-//W3C//DTD SVG 1.1//EN" "http://www.w3.org/Graphics/SVG/1.1/DTD/svg11.dtd">
		<svg xmlns="http://www.w3.org/2000/svg" viewBox="0 0 800 400" preserveAspectRatio="xMidYMid meet">
			<title>#iot Trend</title>

			<!-- drawing elements to go here -->

		    <polyline points="0,400 0,400 4.79041916168,400 9.58083832335,400 14.371257485,400 19.1616766467,400 23.9520958084,400 28.7425149701,400 33.5329341317,400 38.3233532934,400 43.1137724551,400 47.9041916168,400 52.6946107784,400 57.4850299401,400 62.2754491018,400 67.0658682635,400 71.8562874251,400 76.6467065868,400 81.4371257485,400 86.2275449102,400 91.0179640719,400 95.8083832335,400 100.598802395,400 105.389221557,400 110.179640719,400 114.97005988,363.636363636 119.760479042,400 124.550898204,400 129.341317365,400 134.131736527,400 138.922155689,400 143.71257485,363.636363636 148.502994012,400 153.293413174,400 158.083832335,400 162.874251497,400 167.664670659,400 172.45508982,363.636363636 177.245508982,400 182.035928144,400 186.826347305,400 191.616766467,400 196.407185629,400 201.19760479,400 205.988023952,400 210.778443114,363.636363636 215.568862275,327.272727273 220.359281437,400 225.149700599,400 229.94011976,400 234.730538922,72.7272727273 239.520958084,290.909090909 244.311377246,400 249.101796407,0 253.892215569,181.818181818 258.682634731,290.909090909 263.473053892,400 268.263473054,363.636363636 273.053892216,327.272727273 277.844311377,327.272727273 282.634730539,290.909090909 287.425149701,363.636363636 292.215568862,363.636363636 297.005988024,400 301.796407186,400 306.586826347,400 311.377245509,400 316.167664671,400 320.958083832,290.909090909 325.748502994,290.909090909 330.538922156,254.545454545 335.329341317,145.454545455 340.119760479,290.909090909 344.910179641,181.818181818 349.700598802,254.545454545 354.491017964,145.454545455 359.281437126,0 364.071856287,290.909090909 368.862275449,145.454545455 373.652694611,290.909090909 378.443113772,145.454545455 383.233532934,290.909090909 388.023952096,327.272727273 392.814371257,400 397.604790419,400 402.395209581,400 407.185628743,400 411.976047904,400 416.766467066,400 421.556886228,400 426.347305389,400 431.137724551,400 435.928143713,363.636363636 440.718562874,363.636363636 445.508982036,254.545454545 450.299401198,0 455.089820359,72.7272727273 459.880239521,290.909090909 464.670658683,109.090909091 469.461077844,254.545454545 474.251497006,72.7272727273 479.041916168,0 483.832335329,181.818181818 488.622754491,254.545454545 493.413173653,327.272727273 498.203592814,254.545454545 502.994011976,363.636363636 507.784431138,290.909090909 512.574850299,363.636363636 517.365269461,400 522.155688623,400 526.946107784,400 531.736526946,400 536.526946108,400 541.317365269,400 546.107784431,400 550.898203593,290.909090909 555.688622754,363.636363636 560.479041916,254.545454545 565.269461078,290.909090909 570.05988024,145.454545455 574.850299401,36.3636363636 579.640718563,218.181818182 584.431137725,0 589.221556886,72.7272727273 594.011976048,181.818181818 598.80239521,327.272727273 603.592814371,363.636363636 608.383233533,363.636363636 613.173652695,363.636363636 617.964071856,400 622.754491018,363.636363636 627.54491018,400 632.335329341,400 637.125748503,400 641.916167665,400 646.706586826,400 651.497005988,400 656.28742515,363.636363636 661.077844311,400 665.868263473,400 670.658682635,400 675.449101796,327.272727273 680.239520958,218.181818182 685.02994012,72.7272727273 689.820359281,290.909090909 694.610778443,145.454545455 699.401197605,181.818181818 704.191616766,327.272727273 708.982035928,363.636363636 713.77245509,327.272727273 718.562874251,400 723.353293413,327.272727273 728.143712575,400 732.934131737,400 737.724550898,400 742.51497006,400 747.305389222,400 752.095808383,363.636363636 756.886227545,400 761.676646707,327.272727273 766.467065868,363.636363636 771.25748503,400 776.047904192,400 780.838323353,400 785.628742515,400 790.419161677,400 795.209580838,400 800,400"
		stroke="rgb(17, 121, 27)" stroke-width="2" stroke-linecap="round"
		stroke-linejoin="round" fill="#e1f9e1" />
		</svg>