<?xml version="1.0" encoding="UTF-8" standalone="no"?>
		<!DOCTYPE svg PUBLIC "-//W3C//DTD SVG 1.1//EN" "http://www.w3.org/Graphics/SVG/1.1/DTD/svg11.dtd">
		<svg xmlns="http://www.w3.org/2000/svg" viewBox="0 0 800 400" preserveAspectRatio="xMidYMid meet">
			<title>#iot Trend</title>

			<!-- drawing elements to go here -->

		    <polyline points="0,400 0,400 7.92079207921,400 15.8415841584,400 23.7623762376,400 31.6831683168,400 39.603960396,400 47.5247524752,400 55.4455445545,400 63.3663366337,400 71.2871287129,400 79.2079207921,400 87.1287128713,400 95.0495049505,400 102.97029703,400 110.891089109,400 118.811881188,400 126.732673267,400 134.653465347,400 142.574257426,400 150.495049505,400 158.415841584,400 166.336633663,400 174.257425743,400 182.178217822,400 190.099009901,363.636363636 198.01980198,400 205.940594059,400 213.861386139,400 221.782178218,400 229.702970297,400 237.623762376,363.636363636 245.544554455,400 253.465346535,400 261.386138614,400 269.306930693,400 277.227722772,400 285.148514851,363.636363636 293.069306931,400 300.99009901,400 308.910891089,400 316.831683168,400 324.752475248,400 332.673267327,400 340.594059406,400 348.514851485,363.636363636 356.435643564,327.272727273 364.356435644,400 372.277227723,400 380.198019802,400 388.118811881,72.7272727273 396.03960396,290.909090909 403.96039604,400 411.881188119,0 419.801980198,181.818181818 427.722772277,290.909090909 435.643564356,400 443.564356436,363.636363636 451.485148515,327.272727273 459.405940594,327.272727273 467.326732673,290.909090909 475.247524752,363.636363636 483.168316832,363.636363636 491.089108911,400 499.00990099,400 506.930693069,400 514.851485149,400 522.772277228,400 530.693069307,290.909090909 538.613861386,290.909090909 546.534653465,254.545454545 554.455445545,145.454545455 562.376237624,290.909090909 570.297029703,181.818181818 578.217821782,254.545454545 586.138613861,145.454545455 594.059405941,0 601.98019802,290.909090909 609.900990099,145.454545455 617.821782178,290.909090909 625.742574257,145.454545455 633.663366337,290.909090909 641.584158416,327.272727273 649.504950495,400 657.425742574,400 665.346534653,400 673.267326733,400 681.188118812,400 689.108910891,400 697.02970297,400 704.95049505,400 712.871287129,400 720.792079208,363.636363636 728.712871287,363.636363636 736.633663366,254.545454545 744.554455446,0 752.475247525,72.7272727273 760.396039604,290.909090909 768.316831683,109.090909091 776.237623762,254.545454545 784.158415842,72.7272727273 792.079207921,72.7272727273 800,400"
		stroke="rgb(17, 121, 27)" stroke-width="2" stroke-linecap="round"
		stroke-linejoin="round" fill="#e1f9e1" />
		</svg>