<?xml version="1.0" encoding="UTF-8" standalone="no"?>
		<!DOCTYPE svg PUBLIC "-//W3C//DTD SVG 1.1//EN" "http://www.w3.org/Graphics/SVG/1.1/DTD/svg11.dtd">
		<svg xmlns="http://www.w3.org/2000/svg" viewBox="0 0 800 400" preserveAspectRatio="xMidYMid meet">
			<title>#love Trend</title>

			<!-- drawing elements to go here -->

		    <polyline points="0,400 0,400 4.79041916168,400 9.58083832335,400 14.371257485,0 19.1616766467,300 23.9520958084,300 28.7425149701,200 33.5329341317,200 38.3233532934,400 43.1137724551,400 47.9041916168,200 52.6946107784,300 57.4850299401,300 62.2754491018,300 67.0658682635,400 71.8562874251,400 76.6467065868,400 81.4371257485,400 86.2275449102,400 91.0179640719,400 95.8083832335,400 100.598802395,300 105.389221557,400 110.179640719,300 114.97005988,200 119.760479042,100 124.550898204,400 129.341317365,400 134.131736527,300 138.922155689,300 143.71257485,400 148.502994012,400 153.293413174,300 158.083832335,0 162.874251497,300 167.664670659,400 172.45508982,200 177.245508982,400 182.035928144,400 186.826347305,400 191.616766467,400 196.407185629,400 201.19760479,400 205.988023952,400 210.778443114,400 215.568862275,400 220.359281437,400 225.149700599,0 229.94011976,300 234.730538922,300 239.520958084,400 244.311377246,400 249.101796407,300 253.892215569,300 258.682634731,400 263.473053892,200 268.263473054,300 273.053892216,100 277.844311377,300 282.634730539,400 287.425149701,400 292.215568862,400 297.005988024,300 301.796407186,400 306.586826347,400 311.377245509,400 316.167664671,400 320.958083832,400 325.748502994,400 330.538922156,400 335.329341317,300 340.119760479,400 344.910179641,300 349.700598802,300 354.491017964,200 359.281437126,300 364.071856287,300 368.862275449,100 373.652694611,300 378.443113772,400 383.233532934,300 388.023952096,200 392.814371257,300 397.604790419,300 402.395209581,200 407.185628743,400 411.976047904,300 416.766467066,400 421.556886228,400 426.347305389,400 431.137724551,400 435.928143713,300 440.718562874,300 445.508982036,400 450.299401198,300 455.089820359,200 459.880239521,300 464.670658683,400 469.461077844,400 474.251497006,300 479.041916168,100 483.832335329,200 488.622754491,400 493.413173653,400 498.203592814,200 502.994011976,100 507.784431138,100 512.574850299,300 517.365269461,300 522.155688623,400 526.946107784,400 531.736526946,400 536.526946108,400 541.317365269,400 546.107784431,300 550.898203593,300 555.688622754,400 560.479041916,400 565.269461078,300 570.05988024,400 574.850299401,100 579.640718563,400 584.431137725,300 589.221556886,300 594.011976048,400 598.80239521,200 603.592814371,300 608.383233533,400 613.173652695,400 617.964071856,400 622.754491018,300 627.54491018,400 632.335329341,400 637.125748503,400 641.916167665,400 646.706586826,400 651.497005988,400 656.28742515,400 661.077844311,400 665.868263473,400 670.658682635,400 675.449101796,400 680.239520958,400 685.02994012,300 689.820359281,400 694.610778443,300 699.401197605,0 704.191616766,300 708.982035928,400 713.77245509,200 718.562874251,400 723.353293413,200 728.143712575,400 732.934131737,300 737.724550898,300 742.51497006,400 747.305389222,300 752.095808383,400 756.886227545,400 761.676646707,400 766.467065868,400 771.25748503,400 776.047904192,400 780.838323353,400 785.628742515,300 790.419161677,400 795.209580838,200 800,400"
		stroke="rgb(17, 121, 27)" stroke-width="2" stroke-linecap="round"
		stroke-linejoin="round" fill="#e1f9e1" />
		</svg>