<?xml version="1.0" encoding="UTF-8" standalone="no"?>
		<!DOCTYPE svg PUBLIC "-//W3C//DTD SVG 1.1//EN" "http://www.w3.org/Graphics/SVG/1.1/DTD/svg11.dtd">
		<svg xmlns="http://www.w3.org/2000/svg" viewBox="0 0 800 400" preserveAspectRatio="xMidYMid meet">
			<title>#mobile Trend</title>

			<!-- drawing elements to go here -->

		    <polyline points="0,400 0,400 4.79041916168,400 9.58083832335,400 14.371257485,400 19.1616766467,369.230769231 23.9520958084,400 28.7425149701,369.230769231 33.5329341317,400 38.3233532934,369.230769231 43.1137724551,400 47.9041916168,400 52.6946107784,400 57.4850299401,400 62.2754491018,400 67.0658682635,400 71.8562874251,400 76.6467065868,400 81.4371257485,400 86.2275449102,400 91.0179640719,400 95.8083832335,400 100.598802395,400 105.389221557,400 110.179640719,400 114.97005988,400 119.760479042,400 124.550898204,400 129.341317365,400 134.131736527,400 138.922155689,400 143.71257485,400 148.502994012,400 153.293413174,400 158.083832335,400 162.874251497,400 167.664670659,400 172.45508982,400 177.245508982,400 182.035928144,400 186.826347305,400 191.616766467,400 196.407185629,400 201.19760479,400 205.988023952,400 210.778443114,400 215.568862275,369.230769231 220.359281437,400 225.149700599,369.230769231 229.94011976,215.384615385 234.730538922,400 239.520958084,369.230769231 244.311377246,369.230769231 249.101796407,369.230769231 253.892215569,369.230769231 258.682634731,338.461538462 263.473053892,338.461538462 268.263473054,276.923076923 273.053892216,369.230769231 277.844311377,400 282.634730539,369.230769231 287.425149701,400 292.215568862,400 297.005988024,400 301.796407186,400 306.586826347,400 311.377245509,400 316.167664671,400 320.958083832,338.461538462 325.748502994,369.230769231 330.538922156,215.384615385 335.329341317,307.692307692 340.119760479,338.461538462 344.910179641,92.3076923077 349.700598802,276.923076923 354.491017964,338.461538462 359.281437126,307.692307692 364.071856287,369.230769231 368.862275449,246.153846154 373.652694611,369.230769231 378.443113772,338.461538462 383.233532934,369.230769231 388.023952096,338.461538462 392.814371257,400 397.604790419,400 402.395209581,400 407.185628743,400 411.976047904,400 416.766467066,400 421.556886228,400 426.347305389,400 431.137724551,400 435.928143713,338.461538462 440.718562874,400 445.508982036,276.923076923 450.299401198,307.692307692 455.089820359,369.230769231 459.880239521,276.923076923 464.670658683,307.692307692 469.461077844,246.153846154 474.251497006,276.923076923 479.041916168,338.461538462 483.832335329,184.615384615 488.622754491,246.153846154 493.413173653,338.461538462 498.203592814,369.230769231 502.994011976,338.461538462 507.784431138,400 512.574850299,400 517.365269461,400 522.155688623,400 526.946107784,400 531.736526946,400 536.526946108,400 541.317365269,400 546.107784431,400 550.898203593,338.461538462 555.688622754,369.230769231 560.479041916,307.692307692 565.269461078,276.923076923 570.05988024,0 574.850299401,92.3076923077 579.640718563,338.461538462 584.431137725,369.230769231 589.221556886,184.615384615 594.011976048,184.615384615 598.80239521,276.923076923 603.592814371,307.692307692 608.383233533,338.461538462 613.173652695,400 617.964071856,369.230769231 622.754491018,400 627.54491018,400 632.335329341,400 637.125748503,400 641.916167665,400 646.706586826,400 651.497005988,400 656.28742515,400 661.077844311,369.230769231 665.868263473,400 670.658682635,369.230769231 675.449101796,369.230769231 680.239520958,307.692307692 685.02994012,338.461538462 689.820359281,400 694.610778443,338.461538462 699.401197605,307.692307692 704.191616766,307.692307692 708.982035928,276.923076923 713.77245509,400 718.562874251,369.230769231 723.353293413,307.692307692 728.143712575,369.230769231 732.934131737,369.230769231 737.724550898,369.230769231 742.51497006,369.230769231 747.305389222,338.461538462 752.095808383,246.153846154 756.886227545,400 761.676646707,400 766.467065868,400 771.25748503,400 776.047904192,400 780.838323353,369.230769231 785.628742515,400 790.419161677,400 795.209580838,400 800,400"
		stroke="rgb(17, 121, 27)" stroke-width="2" stroke-linecap="round"
		stroke-linejoin="round" fill="#e1f9e1" />
		</svg>