<?xml version="1.0" encoding="UTF-8" standalone="no"?>
		<!DOCTYPE svg PUBLIC "-//W3C//DTD SVG 1.1//EN" "http://www.w3.org/Graphics/SVG/1.1/DTD/svg11.dtd">
		<svg xmlns="http://www.w3.org/2000/svg" viewBox="0 0 800 400" preserveAspectRatio="xMidYMid meet">
			<title>#mwc16 Trend</title>

			<!-- drawing elements to go here -->

		    <polyline points="0,400 0,391.489361702 7.92079207921,391.489361702 15.8415841584,386.382978723 23.7623762376,396.595744681 31.6831683168,388.085106383 39.603960396,394.893617021 47.5247524752,394.893617021 55.4455445545,388.085106383 63.3663366337,384.680851064 71.2871287129,398.29787234 79.2079207921,364.255319149 87.1287128713,396.595744681 95.0495049505,398.29787234 102.97029703,400 110.891089109,400 118.811881188,400 126.732673267,400 134.653465347,400 142.574257426,400 150.495049505,400 158.415841584,388.085106383 166.336633663,396.595744681 174.257425743,386.382978723 182.178217822,381.276595745 190.099009901,386.382978723 198.01980198,381.276595745 205.940594059,381.276595745 213.861386139,379.574468085 221.782178218,374.468085106 229.702970297,372.765957447 237.623762376,374.468085106 245.544554455,379.574468085 253.465346535,376.170212766 261.386138614,388.085106383 269.306930693,394.893617021 277.227722772,389.787234043 285.148514851,394.893617021 293.069306931,388.085106383 300.99009901,396.595744681 308.910891089,400 316.831683168,400 324.752475248,400 332.673267327,396.595744681 340.594059406,396.595744681 348.514851485,391.489361702 356.435643564,371.063829787 364.356435644,362.553191489 372.277227723,355.744680851 380.198019802,335.319148936 388.118811881,270.638297872 396.03960396,117.446808511 403.96039604,297.872340426 411.881188119,309.787234043 419.801980198,309.787234043 427.722772277,291.063829787 435.643564356,149.787234043 443.564356436,287.659574468 451.485148515,338.723404255 459.405940594,352.340425532 467.326732673,357.446808511 475.247524752,372.765957447 483.168316832,382.978723404 491.089108911,393.191489362 499.00990099,400 506.930693069,396.595744681 514.851485149,394.893617021 522.772277228,376.170212766 530.693069307,304.680851064 538.613861386,112.340425532 546.534653465,69.7872340426 554.455445545,13.6170212766 562.376237624,86.8085106383 570.297029703,54.4680851064 578.217821782,103.829787234 586.138613861,5.10638297872 594.059405941,112.340425532 601.98019802,122.553191489 609.900990099,119.14893617 617.821782178,0 625.742574257,277.446808511 633.663366337,296.170212766 641.584158416,289.361702128 649.504950495,352.340425532 657.425742574,369.361702128 665.346534653,360.85106383 673.267326733,384.680851064 681.188118812,391.489361702 689.108910891,396.595744681 697.02970297,398.29787234 704.95049505,393.191489362 712.871287129,386.382978723 720.792079208,331.914893617 728.712871287,292.765957447 736.633663366,236.595744681 744.554455446,120.85106383 752.475247525,85.1063829787 760.396039604,100.425531915 768.316831683,173.617021277 776.237623762,154.893617021 784.158415842,134.468085106 792.079207921,287.659574468 800,400"
		stroke="rgb(17, 121, 187)" stroke-width="2" stroke-linecap="round"
		stroke-linejoin="round" fill="rgb(225, 240, 248)" />
		</svg>