<?xml version="1.0" encoding="UTF-8" standalone="no"?>
		<!DOCTYPE svg PUBLIC "-//W3C//DTD SVG 1.1//EN" "http://www.w3.org/Graphics/SVG/1.1/DTD/svg11.dtd">
		<svg xmlns="http://www.w3.org/2000/svg" viewBox="0 0 800 400" preserveAspectRatio="xMidYMid meet">
			<title>#mwc16 Trend</title>

			<!-- drawing elements to go here -->

		    <polyline points="0,400 0,391.489361702 4.79041916168,391.489361702 9.58083832335,386.382978723 14.371257485,396.595744681 19.1616766467,388.085106383 23.9520958084,394.893617021 28.7425149701,394.893617021 33.5329341317,388.085106383 38.3233532934,384.680851064 43.1137724551,398.29787234 47.9041916168,364.255319149 52.6946107784,396.595744681 57.4850299401,398.29787234 62.2754491018,400 67.0658682635,400 71.8562874251,400 76.6467065868,400 81.4371257485,400 86.2275449102,400 91.0179640719,400 95.8083832335,388.085106383 100.598802395,396.595744681 105.389221557,386.382978723 110.179640719,381.276595745 114.97005988,386.382978723 119.760479042,381.276595745 124.550898204,381.276595745 129.341317365,379.574468085 134.131736527,374.468085106 138.922155689,372.765957447 143.71257485,374.468085106 148.502994012,379.574468085 153.293413174,376.170212766 158.083832335,388.085106383 162.874251497,394.893617021 167.664670659,389.787234043 172.45508982,394.893617021 177.245508982,388.085106383 182.035928144,396.595744681 186.826347305,400 191.616766467,400 196.407185629,400 201.19760479,396.595744681 205.988023952,396.595744681 210.778443114,391.489361702 215.568862275,371.063829787 220.359281437,362.553191489 225.149700599,355.744680851 229.94011976,335.319148936 234.730538922,270.638297872 239.520958084,117.446808511 244.311377246,297.872340426 249.101796407,309.787234043 253.892215569,309.787234043 258.682634731,291.063829787 263.473053892,149.787234043 268.263473054,287.659574468 273.053892216,338.723404255 277.844311377,352.340425532 282.634730539,357.446808511 287.425149701,372.765957447 292.215568862,382.978723404 297.005988024,393.191489362 301.796407186,400 306.586826347,396.595744681 311.377245509,394.893617021 316.167664671,376.170212766 320.958083832,304.680851064 325.748502994,112.340425532 330.538922156,69.7872340426 335.329341317,13.6170212766 340.119760479,86.8085106383 344.910179641,54.4680851064 349.700598802,103.829787234 354.491017964,5.10638297872 359.281437126,112.340425532 364.071856287,122.553191489 368.862275449,119.14893617 373.652694611,0 378.443113772,277.446808511 383.233532934,296.170212766 388.023952096,289.361702128 392.814371257,352.340425532 397.604790419,369.361702128 402.395209581,360.85106383 407.185628743,384.680851064 411.976047904,391.489361702 416.766467066,396.595744681 421.556886228,398.29787234 426.347305389,393.191489362 431.137724551,386.382978723 435.928143713,331.914893617 440.718562874,292.765957447 445.508982036,236.595744681 450.299401198,120.85106383 455.089820359,85.1063829787 459.880239521,100.425531915 464.670658683,173.617021277 469.461077844,154.893617021 474.251497006,134.468085106 479.041916168,260.425531915 483.832335329,197.446808511 488.622754491,204.255319149 493.413173653,308.085106383 498.203592814,309.787234043 502.994011976,306.382978723 507.784431138,320 512.574850299,354.042553191 517.365269461,354.042553191 522.155688623,382.978723404 526.946107784,388.085106383 531.736526946,389.787234043 536.526946108,393.191489362 541.317365269,396.595744681 546.107784431,389.787234043 550.898203593,360.85106383 555.688622754,304.680851064 560.479041916,165.106382979 565.269461078,221.276595745 570.05988024,171.914893617 574.850299401,173.617021277 579.640718563,238.29787234 584.431137725,243.404255319 589.221556886,255.319148936 594.011976048,257.021276596 598.80239521,262.127659574 603.592814371,316.595744681 608.383233533,345.531914894 613.173652695,369.361702128 617.964071856,348.936170213 622.754491018,360.85106383 627.54491018,347.234042553 632.335329341,374.468085106 637.125748503,382.978723404 641.916167665,388.085106383 646.706586826,398.29787234 651.497005988,400 656.28742515,394.893617021 661.077844311,379.574468085 665.868263473,382.978723404 670.658682635,337.021276596 675.449101796,287.659574468 680.239520958,197.446808511 685.02994012,217.872340426 689.820359281,221.276595745 694.610778443,268.936170213 699.401197605,297.872340426 704.191616766,285.957446809 708.982035928,291.063829787 713.77245509,342.127659574 718.562874251,340.425531915 723.353293413,348.936170213 728.143712575,369.361702128 732.934131737,377.872340426 737.724550898,388.085106383 742.51497006,367.659574468 747.305389222,388.085106383 752.095808383,374.468085106 756.886227545,400 761.676646707,400 766.467065868,400 771.25748503,400 776.047904192,398.29787234 780.838323353,400 785.628742515,391.489361702 790.419161677,379.574468085 795.209580838,396.595744681 800,400"
		stroke="rgb(17, 121, 187)" stroke-width="2" stroke-linecap="round"
		stroke-linejoin="round" fill="rgb(225, 240, 248)" />
		</svg>