<?xml version="1.0" encoding="UTF-8" standalone="no"?>
		<!DOCTYPE svg PUBLIC "-//W3C//DTD SVG 1.1//EN" "http://www.w3.org/Graphics/SVG/1.1/DTD/svg11.dtd">
		<svg xmlns="http://www.w3.org/2000/svg" viewBox="0 0 800 400" preserveAspectRatio="xMidYMid meet">
			<title>#mwc2016 Trend</title>

			<!-- drawing elements to go here -->

		    <polyline points="0,400 0,398.29787234 4.79041916168,398.29787234 9.58083832335,400 14.371257485,400 19.1616766467,398.29787234 23.9520958084,400 28.7425149701,400 33.5329341317,400 38.3233532934,400 43.1137724551,398.29787234 47.9041916168,400 52.6946107784,400 57.4850299401,400 62.2754491018,400 67.0658682635,400 71.8562874251,400 76.6467065868,400 81.4371257485,400 86.2275449102,400 91.0179640719,400 95.8083832335,396.595744681 100.598802395,398.29787234 105.389221557,400 110.179640719,400 114.97005988,398.29787234 119.760479042,398.29787234 124.550898204,400 129.341317365,400 134.131736527,394.893617021 138.922155689,398.29787234 143.71257485,398.29787234 148.502994012,400 153.293413174,398.29787234 158.083832335,394.893617021 162.874251497,400 167.664670659,396.595744681 172.45508982,400 177.245508982,396.595744681 182.035928144,400 186.826347305,400 191.616766467,400 196.407185629,400 201.19760479,400 205.988023952,400 210.778443114,398.29787234 215.568862275,398.29787234 220.359281437,388.085106383 225.149700599,391.489361702 229.94011976,389.787234043 234.730538922,384.680851064 239.520958084,362.553191489 244.311377246,389.787234043 249.101796407,384.680851064 253.892215569,393.191489362 258.682634731,345.531914894 263.473053892,364.255319149 268.263473054,391.489361702 273.053892216,391.489361702 277.844311377,396.595744681 282.634730539,398.29787234 287.425149701,398.29787234 292.215568862,400 297.005988024,400 301.796407186,400 306.586826347,400 311.377245509,400 316.167664671,400 320.958083832,386.382978723 325.748502994,374.468085106 330.538922156,359.14893617 335.329341317,360.85106383 340.119760479,367.659574468 344.910179641,384.680851064 349.700598802,379.574468085 354.491017964,384.680851064 359.281437126,376.170212766 364.071856287,381.276595745 368.862275449,381.276595745 373.652694611,331.914893617 378.443113772,376.170212766 383.233532934,400 388.023952096,388.085106383 392.814371257,384.680851064 397.604790419,393.191489362 402.395209581,396.595744681 407.185628743,400 411.976047904,398.29787234 416.766467066,400 421.556886228,400 426.347305389,400 431.137724551,400 435.928143713,391.489361702 440.718562874,393.191489362 445.508982036,381.276595745 450.299401198,381.276595745 455.089820359,374.468085106 459.880239521,372.765957447 464.670658683,379.574468085 469.461077844,379.574468085 474.251497006,388.085106383 479.041916168,321.70212766 483.832335329,348.936170213 488.622754491,374.468085106 493.413173653,391.489361702 498.203592814,391.489361702 502.994011976,391.489361702 507.784431138,391.489361702 512.574850299,396.595744681 517.365269461,400 522.155688623,398.29787234 526.946107784,400 531.736526946,400 536.526946108,400 541.317365269,400 546.107784431,400 550.898203593,396.595744681 555.688622754,396.595744681 560.479041916,384.680851064 565.269461078,389.787234043 570.05988024,388.085106383 574.850299401,384.680851064 579.640718563,384.680851064 584.431137725,388.085106383 589.221556886,388.085106383 594.011976048,382.978723404 598.80239521,379.574468085 603.592814371,394.893617021 608.383233533,398.29787234 613.173652695,386.382978723 617.964071856,394.893617021 622.754491018,394.893617021 627.54491018,394.893617021 632.335329341,398.29787234 637.125748503,398.29787234 641.916167665,400 646.706586826,398.29787234 651.497005988,398.29787234 656.28742515,400 661.077844311,396.595744681 665.868263473,398.29787234 670.658682635,400 675.449101796,369.361702128 680.239520958,320 685.02994012,379.574468085 689.820359281,384.680851064 694.610778443,379.574468085 699.401197605,381.276595745 704.191616766,393.191489362 708.982035928,384.680851064 713.77245509,393.191489362 718.562874251,391.489361702 723.353293413,396.595744681 728.143712575,394.893617021 732.934131737,398.29787234 737.724550898,396.595744681 742.51497006,398.29787234 747.305389222,394.893617021 752.095808383,391.489361702 756.886227545,400 761.676646707,400 766.467065868,400 771.25748503,400 776.047904192,400 780.838323353,400 785.628742515,396.595744681 790.419161677,393.191489362 795.209580838,400 800,400"
		stroke="rgb(17, 121, 187)" stroke-width="2" stroke-linecap="round"
		stroke-linejoin="round" fill="rgb(225, 240, 248)" />
		</svg>