<?xml version="1.0" encoding="UTF-8" standalone="no"?>
		<!DOCTYPE svg PUBLIC "-//W3C//DTD SVG 1.1//EN" "http://www.w3.org/Graphics/SVG/1.1/DTD/svg11.dtd">
		<svg xmlns="http://www.w3.org/2000/svg" viewBox="0 0 800 400" preserveAspectRatio="xMidYMid meet">
			<title>#mwc2016 Trend</title>

			<!-- drawing elements to go here -->

		    <polyline points="0,400 0,391.489361702 4.79041916168,391.489361702 9.58083832335,400 14.371257485,400 19.1616766467,391.489361702 23.9520958084,400 28.7425149701,400 33.5329341317,400 38.3233532934,400 43.1137724551,391.489361702 47.9041916168,400 52.6946107784,400 57.4850299401,400 62.2754491018,400 67.0658682635,400 71.8562874251,400 76.6467065868,400 81.4371257485,400 86.2275449102,400 91.0179640719,400 95.8083832335,382.978723404 100.598802395,391.489361702 105.389221557,400 110.179640719,400 114.97005988,391.489361702 119.760479042,391.489361702 124.550898204,400 129.341317365,400 134.131736527,374.468085106 138.922155689,391.489361702 143.71257485,391.489361702 148.502994012,400 153.293413174,391.489361702 158.083832335,374.468085106 162.874251497,400 167.664670659,382.978723404 172.45508982,400 177.245508982,382.978723404 182.035928144,400 186.826347305,400 191.616766467,400 196.407185629,400 201.19760479,400 205.988023952,400 210.778443114,391.489361702 215.568862275,391.489361702 220.359281437,340.425531915 225.149700599,357.446808511 229.94011976,348.936170213 234.730538922,323.404255319 239.520958084,212.765957447 244.311377246,348.936170213 249.101796407,323.404255319 253.892215569,365.957446809 258.682634731,127.659574468 263.473053892,221.276595745 268.263473054,357.446808511 273.053892216,357.446808511 277.844311377,382.978723404 282.634730539,391.489361702 287.425149701,391.489361702 292.215568862,400 297.005988024,400 301.796407186,400 306.586826347,400 311.377245509,400 316.167664671,400 320.958083832,331.914893617 325.748502994,272.340425532 330.538922156,195.744680851 335.329341317,204.255319149 340.119760479,238.29787234 344.910179641,323.404255319 349.700598802,297.872340426 354.491017964,323.404255319 359.281437126,280.85106383 364.071856287,306.382978723 368.862275449,306.382978723 373.652694611,59.5744680851 378.443113772,280.85106383 383.233532934,400 388.023952096,340.425531915 392.814371257,323.404255319 397.604790419,365.957446809 402.395209581,382.978723404 407.185628743,400 411.976047904,391.489361702 416.766467066,400 421.556886228,400 426.347305389,400 431.137724551,400 435.928143713,357.446808511 440.718562874,365.957446809 445.508982036,306.382978723 450.299401198,306.382978723 455.089820359,272.340425532 459.880239521,263.829787234 464.670658683,297.872340426 469.461077844,297.872340426 474.251497006,340.425531915 479.041916168,8.51063829787 483.832335329,144.680851064 488.622754491,272.340425532 493.413173653,357.446808511 498.203592814,357.446808511 502.994011976,357.446808511 507.784431138,357.446808511 512.574850299,382.978723404 517.365269461,400 522.155688623,391.489361702 526.946107784,400 531.736526946,400 536.526946108,400 541.317365269,400 546.107784431,400 550.898203593,382.978723404 555.688622754,382.978723404 560.479041916,323.404255319 565.269461078,348.936170213 570.05988024,340.425531915 574.850299401,323.404255319 579.640718563,323.404255319 584.431137725,340.425531915 589.221556886,340.425531915 594.011976048,314.893617021 598.80239521,297.872340426 603.592814371,374.468085106 608.383233533,391.489361702 613.173652695,331.914893617 617.964071856,374.468085106 622.754491018,374.468085106 627.54491018,374.468085106 632.335329341,391.489361702 637.125748503,391.489361702 641.916167665,400 646.706586826,391.489361702 651.497005988,391.489361702 656.28742515,400 661.077844311,382.978723404 665.868263473,391.489361702 670.658682635,400 675.449101796,246.808510638 680.239520958,0 685.02994012,297.872340426 689.820359281,323.404255319 694.610778443,297.872340426 699.401197605,306.382978723 704.191616766,365.957446809 708.982035928,323.404255319 713.77245509,365.957446809 718.562874251,357.446808511 723.353293413,382.978723404 728.143712575,374.468085106 732.934131737,391.489361702 737.724550898,382.978723404 742.51497006,391.489361702 747.305389222,374.468085106 752.095808383,357.446808511 756.886227545,400 761.676646707,400 766.467065868,400 771.25748503,400 776.047904192,400 780.838323353,400 785.628742515,382.978723404 790.419161677,365.957446809 795.209580838,400 800,400"
		stroke="rgb(17, 121, 27)" stroke-width="2" stroke-linecap="round"
		stroke-linejoin="round" fill="#e1f9e1" />
		</svg>