<?xml version="1.0" encoding="UTF-8" standalone="no"?>
		<!DOCTYPE svg PUBLIC "-//W3C//DTD SVG 1.1//EN" "http://www.w3.org/Graphics/SVG/1.1/DTD/svg11.dtd">
		<svg xmlns="http://www.w3.org/2000/svg" viewBox="0 0 800 400" preserveAspectRatio="xMidYMid meet">
			<title>#mwc2016 Trend</title>

			<!-- drawing elements to go here -->

		    <polyline points="0,400 0,390 7.92079207921,390 15.8415841584,400 23.7623762376,400 31.6831683168,390 39.603960396,400 47.5247524752,400 55.4455445545,400 63.3663366337,400 71.2871287129,390 79.2079207921,400 87.1287128713,400 95.0495049505,400 102.97029703,400 110.891089109,400 118.811881188,400 126.732673267,400 134.653465347,400 142.574257426,400 150.495049505,400 158.415841584,380 166.336633663,390 174.257425743,400 182.178217822,400 190.099009901,390 198.01980198,390 205.940594059,400 213.861386139,400 221.782178218,370 229.702970297,390 237.623762376,390 245.544554455,400 253.465346535,390 261.386138614,370 269.306930693,400 277.227722772,380 285.148514851,400 293.069306931,380 300.99009901,400 308.910891089,400 316.831683168,400 324.752475248,400 332.673267327,400 340.594059406,400 348.514851485,390 356.435643564,390 364.356435644,330 372.277227723,350 380.198019802,340 388.118811881,310 396.03960396,180 403.96039604,340 411.881188119,310 419.801980198,360 427.722772277,80 435.643564356,190 443.564356436,350 451.485148515,350 459.405940594,380 467.326732673,390 475.247524752,390 483.168316832,400 491.089108911,400 499.00990099,400 506.930693069,400 514.851485149,400 522.772277228,400 530.693069307,320 538.613861386,250 546.534653465,160 554.455445545,170 562.376237624,210 570.297029703,310 578.217821782,280 586.138613861,310 594.059405941,260 601.98019802,290 609.900990099,290 617.821782178,0 625.742574257,260 633.663366337,400 641.584158416,330 649.504950495,310 657.425742574,360 665.346534653,380 673.267326733,400 681.188118812,390 689.108910891,400 697.02970297,400 704.95049505,400 712.871287129,400 720.792079208,350 728.712871287,360 736.633663366,290 744.554455446,290 752.475247525,250 760.396039604,240 768.316831683,280 776.237623762,280 784.158415842,330 792.079207921,110 800,400"
		stroke="rgb(17, 121, 27)" stroke-width="2" stroke-linecap="round"
		stroke-linejoin="round" fill="#e1f9e1" />
		</svg>