<?xml version="1.0" encoding="UTF-8" standalone="no"?>
		<!DOCTYPE svg PUBLIC "-//W3C//DTD SVG 1.1//EN" "http://www.w3.org/Graphics/SVG/1.1/DTD/svg11.dtd">
		<svg xmlns="http://www.w3.org/2000/svg" viewBox="0 0 800 400" preserveAspectRatio="xMidYMid meet">
			<title>#mwc2016 Trend</title>

			<!-- drawing elements to go here -->

		    <polyline points="0,400 0,398.29787234 7.92079207921,398.29787234 15.8415841584,400 23.7623762376,400 31.6831683168,398.29787234 39.603960396,400 47.5247524752,400 55.4455445545,400 63.3663366337,400 71.2871287129,398.29787234 79.2079207921,400 87.1287128713,400 95.0495049505,400 102.97029703,400 110.891089109,400 118.811881188,400 126.732673267,400 134.653465347,400 142.574257426,400 150.495049505,400 158.415841584,396.595744681 166.336633663,398.29787234 174.257425743,400 182.178217822,400 190.099009901,398.29787234 198.01980198,398.29787234 205.940594059,400 213.861386139,400 221.782178218,394.893617021 229.702970297,398.29787234 237.623762376,398.29787234 245.544554455,400 253.465346535,398.29787234 261.386138614,394.893617021 269.306930693,400 277.227722772,396.595744681 285.148514851,400 293.069306931,396.595744681 300.99009901,400 308.910891089,400 316.831683168,400 324.752475248,400 332.673267327,400 340.594059406,400 348.514851485,398.29787234 356.435643564,398.29787234 364.356435644,388.085106383 372.277227723,391.489361702 380.198019802,389.787234043 388.118811881,384.680851064 396.03960396,362.553191489 403.96039604,389.787234043 411.881188119,384.680851064 419.801980198,393.191489362 427.722772277,345.531914894 435.643564356,364.255319149 443.564356436,391.489361702 451.485148515,391.489361702 459.405940594,396.595744681 467.326732673,398.29787234 475.247524752,398.29787234 483.168316832,400 491.089108911,400 499.00990099,400 506.930693069,400 514.851485149,400 522.772277228,400 530.693069307,386.382978723 538.613861386,374.468085106 546.534653465,359.14893617 554.455445545,360.85106383 562.376237624,367.659574468 570.297029703,384.680851064 578.217821782,379.574468085 586.138613861,384.680851064 594.059405941,376.170212766 601.98019802,381.276595745 609.900990099,381.276595745 617.821782178,331.914893617 625.742574257,376.170212766 633.663366337,400 641.584158416,388.085106383 649.504950495,384.680851064 657.425742574,393.191489362 665.346534653,396.595744681 673.267326733,400 681.188118812,398.29787234 689.108910891,400 697.02970297,400 704.95049505,400 712.871287129,400 720.792079208,391.489361702 728.712871287,393.191489362 736.633663366,381.276595745 744.554455446,381.276595745 752.475247525,374.468085106 760.396039604,372.765957447 768.316831683,379.574468085 776.237623762,379.574468085 784.158415842,388.085106383 792.079207921,350.638297872 800,400"
		stroke="rgb(17, 121, 187)" stroke-width="2" stroke-linecap="round"
		stroke-linejoin="round" fill="rgb(225, 240, 248)" />
		</svg>