<?xml version="1.0" encoding="UTF-8" standalone="no"?>
		<!DOCTYPE svg PUBLIC "-//W3C//DTD SVG 1.1//EN" "http://www.w3.org/Graphics/SVG/1.1/DTD/svg11.dtd">
		<svg xmlns="http://www.w3.org/2000/svg" viewBox="0 0 800 400" preserveAspectRatio="xMidYMid meet">
			<title>#mwc Trend</title>

			<!-- drawing elements to go here -->

		    <polyline points="0,400 0,398.29787234 4.79041916168,393.191489362 9.58083832335,400 14.371257485,394.893617021 19.1616766467,396.595744681 23.9520958084,398.29787234 28.7425149701,398.29787234 33.5329341317,400 38.3233532934,398.29787234 43.1137724551,398.29787234 47.9041916168,398.29787234 52.6946107784,400 57.4850299401,400 62.2754491018,400 67.0658682635,400 71.8562874251,400 76.6467065868,400 81.4371257485,400 86.2275449102,400 91.0179640719,400 95.8083832335,396.595744681 100.598802395,400 105.389221557,400 110.179640719,400 114.97005988,398.29787234 119.760479042,396.595744681 124.550898204,396.595744681 129.341317365,398.29787234 134.131736527,396.595744681 138.922155689,396.595744681 143.71257485,396.595744681 148.502994012,394.893617021 153.293413174,398.29787234 158.083832335,398.29787234 162.874251497,400 167.664670659,398.29787234 172.45508982,398.29787234 177.245508982,400 182.035928144,398.29787234 186.826347305,400 191.616766467,400 196.407185629,400 201.19760479,400 205.988023952,398.29787234 210.778443114,400 215.568862275,398.29787234 220.359281437,394.893617021 225.149700599,394.893617021 229.94011976,381.276595745 234.730538922,384.680851064 239.520958084,393.191489362 244.311377246,393.191489362 249.101796407,394.893617021 253.892215569,394.893617021 258.682634731,391.489361702 263.473053892,389.787234043 268.263473054,393.191489362 273.053892216,398.29787234 277.844311377,396.595744681 282.634730539,398.29787234 287.425149701,396.595744681 292.215568862,398.29787234 297.005988024,398.29787234 301.796407186,398.29787234 306.586826347,400 311.377245509,400 316.167664671,400 320.958083832,386.382978723 325.748502994,388.085106383 330.538922156,364.255319149 335.329341317,377.872340426 340.119760479,374.468085106 344.910179641,376.170212766 349.700598802,355.744680851 354.491017964,382.978723404 359.281437126,372.765957447 364.071856287,374.468085106 368.862275449,393.191489362 373.652694611,382.978723404 378.443113772,384.680851064 383.233532934,382.978723404 388.023952096,381.276595745 392.814371257,384.680851064 397.604790419,400 402.395209581,398.29787234 407.185628743,396.595744681 411.976047904,400 416.766467066,398.29787234 421.556886228,400 426.347305389,400 431.137724551,400 435.928143713,394.893617021 440.718562874,396.595744681 445.508982036,384.680851064 450.299401198,372.765957447 455.089820359,379.574468085 459.880239521,374.468085106 464.670658683,388.085106383 469.461077844,393.191489362 474.251497006,386.382978723 479.041916168,379.574468085 483.832335329,388.085106383 488.622754491,359.14893617 493.413173653,396.595744681 498.203592814,389.787234043 502.994011976,391.489361702 507.784431138,389.787234043 512.574850299,391.489361702 517.365269461,396.595744681 522.155688623,398.29787234 526.946107784,400 531.736526946,400 536.526946108,400 541.317365269,400 546.107784431,400 550.898203593,398.29787234 555.688622754,384.680851064 560.479041916,386.382978723 565.269461078,384.680851064 570.05988024,386.382978723 574.850299401,377.872340426 579.640718563,388.085106383 584.431137725,381.276595745 589.221556886,384.680851064 594.011976048,396.595744681 598.80239521,389.787234043 603.592814371,391.489361702 608.383233533,389.787234043 613.173652695,398.29787234 617.964071856,391.489361702 622.754491018,396.595744681 627.54491018,391.489361702 632.335329341,393.191489362 637.125748503,400 641.916167665,400 646.706586826,400 651.497005988,398.29787234 656.28742515,400 661.077844311,400 665.868263473,400 670.658682635,394.893617021 675.449101796,396.595744681 680.239520958,388.085106383 685.02994012,381.276595745 689.820359281,381.276595745 694.610778443,384.680851064 699.401197605,394.893617021 704.191616766,389.787234043 708.982035928,389.787234043 713.77245509,394.893617021 718.562874251,396.595744681 723.353293413,394.893617021 728.143712575,396.595744681 732.934131737,398.29787234 737.724550898,394.893617021 742.51497006,398.29787234 747.305389222,394.893617021 752.095808383,394.893617021 756.886227545,400 761.676646707,398.29787234 766.467065868,400 771.25748503,400 776.047904192,400 780.838323353,400 785.628742515,400 790.419161677,400 795.209580838,400 800,400"
		stroke="rgb(17, 121, 187)" stroke-width="2" stroke-linecap="round"
		stroke-linejoin="round" fill="rgb(225, 240, 248)" />
		</svg>