<?xml version="1.0" encoding="UTF-8" standalone="no"?>
		<!DOCTYPE svg PUBLIC "-//W3C//DTD SVG 1.1//EN" "http://www.w3.org/Graphics/SVG/1.1/DTD/svg11.dtd">
		<svg xmlns="http://www.w3.org/2000/svg" viewBox="0 0 800 400" preserveAspectRatio="xMidYMid meet">
			<title>#mwc Trend</title>

			<!-- drawing elements to go here -->

		    <polyline points="0,400 0,398.29787234 7.92079207921,393.191489362 15.8415841584,400 23.7623762376,394.893617021 31.6831683168,396.595744681 39.603960396,398.29787234 47.5247524752,398.29787234 55.4455445545,400 63.3663366337,398.29787234 71.2871287129,398.29787234 79.2079207921,398.29787234 87.1287128713,400 95.0495049505,400 102.97029703,400 110.891089109,400 118.811881188,400 126.732673267,400 134.653465347,400 142.574257426,400 150.495049505,400 158.415841584,396.595744681 166.336633663,400 174.257425743,400 182.178217822,400 190.099009901,398.29787234 198.01980198,396.595744681 205.940594059,396.595744681 213.861386139,398.29787234 221.782178218,396.595744681 229.702970297,396.595744681 237.623762376,396.595744681 245.544554455,394.893617021 253.465346535,398.29787234 261.386138614,398.29787234 269.306930693,400 277.227722772,398.29787234 285.148514851,398.29787234 293.069306931,400 300.99009901,398.29787234 308.910891089,400 316.831683168,400 324.752475248,400 332.673267327,400 340.594059406,398.29787234 348.514851485,400 356.435643564,398.29787234 364.356435644,394.893617021 372.277227723,394.893617021 380.198019802,381.276595745 388.118811881,384.680851064 396.03960396,393.191489362 403.96039604,393.191489362 411.881188119,394.893617021 419.801980198,394.893617021 427.722772277,391.489361702 435.643564356,389.787234043 443.564356436,393.191489362 451.485148515,398.29787234 459.405940594,396.595744681 467.326732673,398.29787234 475.247524752,396.595744681 483.168316832,398.29787234 491.089108911,398.29787234 499.00990099,398.29787234 506.930693069,400 514.851485149,400 522.772277228,400 530.693069307,386.382978723 538.613861386,388.085106383 546.534653465,364.255319149 554.455445545,377.872340426 562.376237624,374.468085106 570.297029703,376.170212766 578.217821782,355.744680851 586.138613861,382.978723404 594.059405941,372.765957447 601.98019802,374.468085106 609.900990099,393.191489362 617.821782178,382.978723404 625.742574257,384.680851064 633.663366337,382.978723404 641.584158416,381.276595745 649.504950495,384.680851064 657.425742574,400 665.346534653,398.29787234 673.267326733,396.595744681 681.188118812,400 689.108910891,398.29787234 697.02970297,400 704.95049505,400 712.871287129,400 720.792079208,394.893617021 728.712871287,396.595744681 736.633663366,384.680851064 744.554455446,372.765957447 752.475247525,379.574468085 760.396039604,374.468085106 768.316831683,388.085106383 776.237623762,393.191489362 784.158415842,386.382978723 792.079207921,386.382978723 800,400"
		stroke="rgb(17, 121, 187)" stroke-width="2" stroke-linecap="round"
		stroke-linejoin="round" fill="rgb(225, 240, 248)" />
		</svg>