<?xml version="1.0" encoding="UTF-8" standalone="no"?>
		<!DOCTYPE svg PUBLIC "-//W3C//DTD SVG 1.1//EN" "http://www.w3.org/Graphics/SVG/1.1/DTD/svg11.dtd">
		<svg xmlns="http://www.w3.org/2000/svg" viewBox="0 0 800 400" preserveAspectRatio="xMidYMid meet">
			<title>#mwc Trend</title>

			<!-- drawing elements to go here -->

		    <polyline points="0,400 0,384.615384615 4.79041916168,338.461538462 9.58083832335,400 14.371257485,353.846153846 19.1616766467,369.230769231 23.9520958084,384.615384615 28.7425149701,384.615384615 33.5329341317,400 38.3233532934,384.615384615 43.1137724551,384.615384615 47.9041916168,384.615384615 52.6946107784,400 57.4850299401,400 62.2754491018,400 67.0658682635,400 71.8562874251,400 76.6467065868,400 81.4371257485,400 86.2275449102,400 91.0179640719,400 95.8083832335,369.230769231 100.598802395,400 105.389221557,400 110.179640719,400 114.97005988,384.615384615 119.760479042,369.230769231 124.550898204,369.230769231 129.341317365,384.615384615 134.131736527,369.230769231 138.922155689,369.230769231 143.71257485,369.230769231 148.502994012,353.846153846 153.293413174,384.615384615 158.083832335,384.615384615 162.874251497,400 167.664670659,384.615384615 172.45508982,384.615384615 177.245508982,400 182.035928144,384.615384615 186.826347305,400 191.616766467,400 196.407185629,400 201.19760479,400 205.988023952,384.615384615 210.778443114,400 215.568862275,384.615384615 220.359281437,353.846153846 225.149700599,353.846153846 229.94011976,230.769230769 234.730538922,261.538461538 239.520958084,338.461538462 244.311377246,338.461538462 249.101796407,353.846153846 253.892215569,353.846153846 258.682634731,323.076923077 263.473053892,307.692307692 268.263473054,338.461538462 273.053892216,384.615384615 277.844311377,369.230769231 282.634730539,384.615384615 287.425149701,369.230769231 292.215568862,384.615384615 297.005988024,384.615384615 301.796407186,384.615384615 306.586826347,400 311.377245509,400 316.167664671,400 320.958083832,276.923076923 325.748502994,292.307692308 330.538922156,76.9230769231 335.329341317,200 340.119760479,169.230769231 344.910179641,184.615384615 349.700598802,0 354.491017964,246.153846154 359.281437126,153.846153846 364.071856287,169.230769231 368.862275449,338.461538462 373.652694611,246.153846154 378.443113772,261.538461538 383.233532934,246.153846154 388.023952096,230.769230769 392.814371257,261.538461538 397.604790419,400 402.395209581,384.615384615 407.185628743,369.230769231 411.976047904,400 416.766467066,384.615384615 421.556886228,400 426.347305389,400 431.137724551,400 435.928143713,353.846153846 440.718562874,369.230769231 445.508982036,261.538461538 450.299401198,153.846153846 455.089820359,215.384615385 459.880239521,169.230769231 464.670658683,292.307692308 469.461077844,338.461538462 474.251497006,276.923076923 479.041916168,215.384615385 483.832335329,292.307692308 488.622754491,30.7692307692 493.413173653,369.230769231 498.203592814,307.692307692 502.994011976,323.076923077 507.784431138,307.692307692 512.574850299,323.076923077 517.365269461,369.230769231 522.155688623,384.615384615 526.946107784,400 531.736526946,400 536.526946108,400 541.317365269,400 546.107784431,400 550.898203593,384.615384615 555.688622754,261.538461538 560.479041916,276.923076923 565.269461078,261.538461538 570.05988024,276.923076923 574.850299401,200 579.640718563,292.307692308 584.431137725,230.769230769 589.221556886,261.538461538 594.011976048,369.230769231 598.80239521,307.692307692 603.592814371,323.076923077 608.383233533,307.692307692 613.173652695,384.615384615 617.964071856,323.076923077 622.754491018,369.230769231 627.54491018,323.076923077 632.335329341,338.461538462 637.125748503,400 641.916167665,400 646.706586826,400 651.497005988,384.615384615 656.28742515,400 661.077844311,400 665.868263473,400 670.658682635,353.846153846 675.449101796,369.230769231 680.239520958,292.307692308 685.02994012,230.769230769 689.820359281,230.769230769 694.610778443,261.538461538 699.401197605,353.846153846 704.191616766,307.692307692 708.982035928,307.692307692 713.77245509,353.846153846 718.562874251,369.230769231 723.353293413,353.846153846 728.143712575,369.230769231 732.934131737,384.615384615 737.724550898,353.846153846 742.51497006,384.615384615 747.305389222,353.846153846 752.095808383,353.846153846 756.886227545,400 761.676646707,384.615384615 766.467065868,400 771.25748503,400 776.047904192,400 780.838323353,400 785.628742515,400 790.419161677,400 795.209580838,400 800,400"
		stroke="rgb(17, 121, 27)" stroke-width="2" stroke-linecap="round"
		stroke-linejoin="round" fill="#e1f9e1" />
		</svg>