<?xml version="1.0" encoding="UTF-8" standalone="no"?>
		<!DOCTYPE svg PUBLIC "-//W3C//DTD SVG 1.1//EN" "http://www.w3.org/Graphics/SVG/1.1/DTD/svg11.dtd">
		<svg xmlns="http://www.w3.org/2000/svg" viewBox="0 0 800 400" preserveAspectRatio="xMidYMid meet">
			<title>#mwc Trend</title>

			<!-- drawing elements to go here -->

		    <polyline points="0,400 0,384.615384615 7.92079207921,338.461538462 15.8415841584,400 23.7623762376,353.846153846 31.6831683168,369.230769231 39.603960396,384.615384615 47.5247524752,384.615384615 55.4455445545,400 63.3663366337,384.615384615 71.2871287129,384.615384615 79.2079207921,384.615384615 87.1287128713,400 95.0495049505,400 102.97029703,400 110.891089109,400 118.811881188,400 126.732673267,400 134.653465347,400 142.574257426,400 150.495049505,400 158.415841584,369.230769231 166.336633663,400 174.257425743,400 182.178217822,400 190.099009901,384.615384615 198.01980198,369.230769231 205.940594059,369.230769231 213.861386139,384.615384615 221.782178218,369.230769231 229.702970297,369.230769231 237.623762376,369.230769231 245.544554455,353.846153846 253.465346535,384.615384615 261.386138614,384.615384615 269.306930693,400 277.227722772,384.615384615 285.148514851,384.615384615 293.069306931,400 300.99009901,384.615384615 308.910891089,400 316.831683168,400 324.752475248,400 332.673267327,400 340.594059406,384.615384615 348.514851485,400 356.435643564,384.615384615 364.356435644,353.846153846 372.277227723,353.846153846 380.198019802,230.769230769 388.118811881,261.538461538 396.03960396,338.461538462 403.96039604,338.461538462 411.881188119,353.846153846 419.801980198,353.846153846 427.722772277,323.076923077 435.643564356,307.692307692 443.564356436,338.461538462 451.485148515,384.615384615 459.405940594,369.230769231 467.326732673,384.615384615 475.247524752,369.230769231 483.168316832,384.615384615 491.089108911,384.615384615 499.00990099,384.615384615 506.930693069,400 514.851485149,400 522.772277228,400 530.693069307,276.923076923 538.613861386,292.307692308 546.534653465,76.9230769231 554.455445545,200 562.376237624,169.230769231 570.297029703,184.615384615 578.217821782,0 586.138613861,246.153846154 594.059405941,153.846153846 601.98019802,169.230769231 609.900990099,338.461538462 617.821782178,246.153846154 625.742574257,261.538461538 633.663366337,246.153846154 641.584158416,230.769230769 649.504950495,261.538461538 657.425742574,400 665.346534653,384.615384615 673.267326733,369.230769231 681.188118812,400 689.108910891,384.615384615 697.02970297,400 704.95049505,400 712.871287129,400 720.792079208,353.846153846 728.712871287,369.230769231 736.633663366,261.538461538 744.554455446,153.846153846 752.475247525,215.384615385 760.396039604,169.230769231 768.316831683,292.307692308 776.237623762,338.461538462 784.158415842,276.923076923 792.079207921,276.923076923 800,400"
		stroke="rgb(17, 121, 27)" stroke-width="2" stroke-linecap="round"
		stroke-linejoin="round" fill="#e1f9e1" />
		</svg>