<?xml version="1.0" encoding="UTF-8" standalone="no"?>
		<!DOCTYPE svg PUBLIC "-//W3C//DTD SVG 1.1//EN" "http://www.w3.org/Graphics/SVG/1.1/DTD/svg11.dtd">
		<svg xmlns="http://www.w3.org/2000/svg" viewBox="0 0 800 400" preserveAspectRatio="xMidYMid meet">
			<title>#nantais Trend</title>

			<!-- drawing elements to go here -->

		    <polyline points="0,400 0,400 4.79041916168,400 9.58083832335,400 14.371257485,400 19.1616766467,400 23.9520958084,400 28.7425149701,400 33.5329341317,400 38.3233532934,400 43.1137724551,400 47.9041916168,400 52.6946107784,400 57.4850299401,400 62.2754491018,400 67.0658682635,400 71.8562874251,400 76.6467065868,400 81.4371257485,400 86.2275449102,400 91.0179640719,400 95.8083832335,400 100.598802395,400 105.389221557,400 110.179640719,400 114.97005988,400 119.760479042,400 124.550898204,400 129.341317365,400 134.131736527,400 138.922155689,400 143.71257485,400 148.502994012,400 153.293413174,400 158.083832335,400 162.874251497,400 167.664670659,400 172.45508982,400 177.245508982,400 182.035928144,400 186.826347305,400 191.616766467,400 196.407185629,400 201.19760479,400 205.988023952,400 210.778443114,400 215.568862275,400 220.359281437,400 225.149700599,400 229.94011976,391.489361702 234.730538922,391.489361702 239.520958084,388.085106383 244.311377246,391.489361702 249.101796407,382.978723404 253.892215569,389.787234043 258.682634731,394.893617021 263.473053892,388.085106383 268.263473054,388.085106383 273.053892216,391.489361702 277.844311377,400 282.634730539,388.085106383 287.425149701,393.191489362 292.215568862,393.191489362 297.005988024,393.191489362 301.796407186,389.787234043 306.586826347,388.085106383 311.377245509,398.29787234 316.167664671,400 320.958083832,400 325.748502994,400 330.538922156,400 335.329341317,400 340.119760479,400 344.910179641,400 349.700598802,400 354.491017964,400 359.281437126,400 364.071856287,394.893617021 368.862275449,386.382978723 373.652694611,400 378.443113772,400 383.233532934,400 388.023952096,400 392.814371257,398.29787234 397.604790419,398.29787234 402.395209581,377.872340426 407.185628743,377.872340426 411.976047904,382.978723404 416.766467066,391.489361702 421.556886228,400 426.347305389,400 431.137724551,400 435.928143713,400 440.718562874,400 445.508982036,400 450.299401198,396.595744681 455.089820359,394.893617021 459.880239521,394.893617021 464.670658683,393.191489362 469.461077844,386.382978723 474.251497006,398.29787234 479.041916168,396.595744681 483.832335329,388.085106383 488.622754491,394.893617021 493.413173653,400 498.203592814,400 502.994011976,394.893617021 507.784431138,391.489361702 512.574850299,396.595744681 517.365269461,393.191489362 522.155688623,400 526.946107784,400 531.736526946,400 536.526946108,391.489361702 541.317365269,396.595744681 546.107784431,400 550.898203593,400 555.688622754,400 560.479041916,400 565.269461078,400 570.05988024,400 574.850299401,400 579.640718563,400 584.431137725,400 589.221556886,400 594.011976048,400 598.80239521,400 603.592814371,400 608.383233533,400 613.173652695,400 617.964071856,396.595744681 622.754491018,381.276595745 627.54491018,389.787234043 632.335329341,381.276595745 637.125748503,381.276595745 641.916167665,384.680851064 646.706586826,384.680851064 651.497005988,389.787234043 656.28742515,391.489361702 661.077844311,391.489361702 665.868263473,394.893617021 670.658682635,400 675.449101796,400 680.239520958,400 685.02994012,400 689.820359281,400 694.610778443,400 699.401197605,400 704.191616766,400 708.982035928,400 713.77245509,400 718.562874251,400 723.353293413,400 728.143712575,400 732.934131737,386.382978723 737.724550898,391.489361702 742.51497006,400 747.305389222,400 752.095808383,391.489361702 756.886227545,394.893617021 761.676646707,400 766.467065868,400 771.25748503,400 776.047904192,400 780.838323353,400 785.628742515,384.680851064 790.419161677,398.29787234 795.209580838,400 800,400"
		stroke="rgb(17, 121, 187)" stroke-width="2" stroke-linecap="round"
		stroke-linejoin="round" fill="rgb(225, 240, 248)" />
		</svg>