<?xml version="1.0" encoding="UTF-8" standalone="no"?>
		<!DOCTYPE svg PUBLIC "-//W3C//DTD SVG 1.1//EN" "http://www.w3.org/Graphics/SVG/1.1/DTD/svg11.dtd">
		<svg xmlns="http://www.w3.org/2000/svg" viewBox="0 0 800 400" preserveAspectRatio="xMidYMid meet">
			<title>#photo Trend</title>

			<!-- drawing elements to go here -->

		    <polyline points="0,400 0,400 4.79041916168,400 9.58083832335,400 14.371257485,320 19.1616766467,320 23.9520958084,240 28.7425149701,80 33.5329341317,240 38.3233532934,160 43.1137724551,160 47.9041916168,80 52.6946107784,400 57.4850299401,320 62.2754491018,400 67.0658682635,400 71.8562874251,320 76.6467065868,400 81.4371257485,80 86.2275449102,400 91.0179640719,240 95.8083832335,400 100.598802395,400 105.389221557,400 110.179640719,400 114.97005988,400 119.760479042,400 124.550898204,320 129.341317365,400 134.131736527,400 138.922155689,400 143.71257485,400 148.502994012,240 153.293413174,80 158.083832335,400 162.874251497,320 167.664670659,240 172.45508982,400 177.245508982,400 182.035928144,400 186.826347305,400 191.616766467,400 196.407185629,400 201.19760479,400 205.988023952,400 210.778443114,400 215.568862275,400 220.359281437,400 225.149700599,400 229.94011976,400 234.730538922,80 239.520958084,0 244.311377246,320 249.101796407,320 253.892215569,400 258.682634731,240 263.473053892,0 268.263473054,400 273.053892216,160 277.844311377,400 282.634730539,320 287.425149701,400 292.215568862,400 297.005988024,400 301.796407186,400 306.586826347,400 311.377245509,400 316.167664671,400 320.958083832,400 325.748502994,400 330.538922156,400 335.329341317,400 340.119760479,400 344.910179641,400 349.700598802,400 354.491017964,400 359.281437126,240 364.071856287,400 368.862275449,400 373.652694611,240 378.443113772,80 383.233532934,80 388.023952096,320 392.814371257,400 397.604790419,240 402.395209581,320 407.185628743,400 411.976047904,400 416.766467066,400 421.556886228,400 426.347305389,400 431.137724551,400 435.928143713,160 440.718562874,400 445.508982036,400 450.299401198,400 455.089820359,320 459.880239521,240 464.670658683,400 469.461077844,160 474.251497006,320 479.041916168,400 483.832335329,400 488.622754491,160 493.413173653,240 498.203592814,160 502.994011976,400 507.784431138,320 512.574850299,320 517.365269461,400 522.155688623,400 526.946107784,400 531.736526946,400 536.526946108,400 541.317365269,320 546.107784431,400 550.898203593,400 555.688622754,320 560.479041916,400 565.269461078,400 570.05988024,400 574.850299401,400 579.640718563,320 584.431137725,400 589.221556886,400 594.011976048,400 598.80239521,160 603.592814371,400 608.383233533,320 613.173652695,320 617.964071856,240 622.754491018,400 627.54491018,320 632.335329341,160 637.125748503,400 641.916167665,400 646.706586826,400 651.497005988,400 656.28742515,400 661.077844311,400 665.868263473,400 670.658682635,320 675.449101796,80 680.239520958,400 685.02994012,320 689.820359281,400 694.610778443,400 699.401197605,400 704.191616766,400 708.982035928,400 713.77245509,320 718.562874251,400 723.353293413,240 728.143712575,400 732.934131737,160 737.724550898,160 742.51497006,320 747.305389222,320 752.095808383,400 756.886227545,400 761.676646707,400 766.467065868,400 771.25748503,400 776.047904192,400 780.838323353,400 785.628742515,240 790.419161677,240 795.209580838,400 800,400"
		stroke="rgb(17, 121, 27)" stroke-width="2" stroke-linecap="round"
		stroke-linejoin="round" fill="#e1f9e1" />
		</svg>