<?xml version="1.0" encoding="UTF-8" standalone="no"?>
		<!DOCTYPE svg PUBLIC "-//W3C//DTD SVG 1.1//EN" "http://www.w3.org/Graphics/SVG/1.1/DTD/svg11.dtd">
		<svg xmlns="http://www.w3.org/2000/svg" viewBox="0 0 800 400" preserveAspectRatio="xMidYMid meet">
			<title>#rcde Trend</title>

			<!-- drawing elements to go here -->

		    <polyline points="0,400 0,400 4.79041916168,356.756756757 9.58083832335,356.756756757 14.371257485,389.189189189 19.1616766467,400 23.9520958084,389.189189189 28.7425149701,400 33.5329341317,400 38.3233532934,389.189189189 43.1137724551,400 47.9041916168,389.189189189 52.6946107784,400 57.4850299401,389.189189189 62.2754491018,389.189189189 67.0658682635,400 71.8562874251,400 76.6467065868,400 81.4371257485,400 86.2275449102,400 91.0179640719,400 95.8083832335,389.189189189 100.598802395,378.378378378 105.389221557,400 110.179640719,367.567567568 114.97005988,400 119.760479042,389.189189189 124.550898204,378.378378378 129.341317365,389.189189189 134.131736527,378.378378378 138.922155689,345.945945946 143.71257485,367.567567568 148.502994012,302.702702703 153.293413174,335.135135135 158.083832335,378.378378378 162.874251497,378.378378378 167.664670659,389.189189189 172.45508982,367.567567568 177.245508982,400 182.035928144,400 186.826347305,400 191.616766467,400 196.407185629,400 201.19760479,400 205.988023952,400 210.778443114,356.756756757 215.568862275,389.189189189 220.359281437,378.378378378 225.149700599,389.189189189 229.94011976,389.189189189 234.730538922,400 239.520958084,400 244.311377246,400 249.101796407,400 253.892215569,400 258.682634731,400 263.473053892,400 268.263473054,400 273.053892216,389.189189189 277.844311377,389.189189189 282.634730539,400 287.425149701,400 292.215568862,400 297.005988024,400 301.796407186,400 306.586826347,400 311.377245509,400 316.167664671,400 320.958083832,400 325.748502994,400 330.538922156,400 335.329341317,400 340.119760479,400 344.910179641,400 349.700598802,400 354.491017964,367.567567568 359.281437126,389.189189189 364.071856287,400 368.862275449,400 373.652694611,400 378.443113772,400 383.233532934,400 388.023952096,389.189189189 392.814371257,367.567567568 397.604790419,400 402.395209581,400 407.185628743,400 411.976047904,400 416.766467066,400 421.556886228,400 426.347305389,400 431.137724551,400 435.928143713,400 440.718562874,400 445.508982036,400 450.299401198,400 455.089820359,400 459.880239521,400 464.670658683,400 469.461077844,389.189189189 474.251497006,400 479.041916168,389.189189189 483.832335329,400 488.622754491,400 493.413173653,400 498.203592814,400 502.994011976,389.189189189 507.784431138,389.189189189 512.574850299,400 517.365269461,400 522.155688623,400 526.946107784,400 531.736526946,400 536.526946108,400 541.317365269,400 546.107784431,400 550.898203593,400 555.688622754,400 560.479041916,400 565.269461078,400 570.05988024,400 574.850299401,400 579.640718563,400 584.431137725,389.189189189 589.221556886,356.756756757 594.011976048,400 598.80239521,400 603.592814371,400 608.383233533,400 613.173652695,400 617.964071856,0 622.754491018,378.378378378 627.54491018,400 632.335329341,400 637.125748503,400 641.916167665,400 646.706586826,400 651.497005988,400 656.28742515,400 661.077844311,400 665.868263473,400 670.658682635,400 675.449101796,400 680.239520958,400 685.02994012,400 689.820359281,400 694.610778443,400 699.401197605,389.189189189 704.191616766,345.945945946 708.982035928,400 713.77245509,389.189189189 718.562874251,400 723.353293413,400 728.143712575,400 732.934131737,378.378378378 737.724550898,367.567567568 742.51497006,389.189189189 747.305389222,400 752.095808383,400 756.886227545,400 761.676646707,400 766.467065868,400 771.25748503,400 776.047904192,400 780.838323353,400 785.628742515,400 790.419161677,400 795.209580838,389.189189189 800,400"
		stroke="rgb(17, 121, 27)" stroke-width="2" stroke-linecap="round"
		stroke-linejoin="round" fill="#e1f9e1" />
		</svg>