<?xml version="1.0" encoding="UTF-8" standalone="no"?>
		<!DOCTYPE svg PUBLIC "-//W3C//DTD SVG 1.1//EN" "http://www.w3.org/Graphics/SVG/1.1/DTD/svg11.dtd">
		<svg xmlns="http://www.w3.org/2000/svg" viewBox="0 0 800 400" preserveAspectRatio="xMidYMid meet">
			<title>#retenciã“n Trend</title>

			<!-- drawing elements to go here -->

		    <polyline points="0,400 0,400 4.79041916168,300 9.58083832335,150 14.371257485,100 19.1616766467,350 23.9520958084,300 28.7425149701,300 33.5329341317,150 38.3233532934,350 43.1137724551,400 47.9041916168,400 52.6946107784,400 57.4850299401,400 62.2754491018,400 67.0658682635,400 71.8562874251,400 76.6467065868,400 81.4371257485,400 86.2275449102,400 91.0179640719,400 95.8083832335,400 100.598802395,400 105.389221557,400 110.179640719,400 114.97005988,400 119.760479042,400 124.550898204,400 129.341317365,400 134.131736527,400 138.922155689,400 143.71257485,400 148.502994012,250 153.293413174,300 158.083832335,400 162.874251497,400 167.664670659,400 172.45508982,400 177.245508982,400 182.035928144,400 186.826347305,400 191.616766467,400 196.407185629,400 201.19760479,400 205.988023952,400 210.778443114,400 215.568862275,400 220.359281437,400 225.149700599,400 229.94011976,400 234.730538922,400 239.520958084,400 244.311377246,400 249.101796407,400 253.892215569,400 258.682634731,150 263.473053892,300 268.263473054,400 273.053892216,400 277.844311377,400 282.634730539,400 287.425149701,400 292.215568862,400 297.005988024,400 301.796407186,400 306.586826347,400 311.377245509,400 316.167664671,200 320.958083832,0 325.748502994,50 330.538922156,200 335.329341317,100 340.119760479,400 344.910179641,400 349.700598802,400 354.491017964,300 359.281437126,300 364.071856287,350 368.862275449,300 373.652694611,250 378.443113772,350 383.233532934,350 388.023952096,350 392.814371257,400 397.604790419,400 402.395209581,400 407.185628743,400 411.976047904,400 416.766467066,400 421.556886228,400 426.347305389,400 431.137724551,400 435.928143713,0 440.718562874,300 445.508982036,100 450.299401198,250 455.089820359,350 459.880239521,400 464.670658683,400 469.461077844,200 474.251497006,250 479.041916168,250 483.832335329,200 488.622754491,250 493.413173653,350 498.203592814,250 502.994011976,400 507.784431138,400 512.574850299,400 517.365269461,400 522.155688623,400 526.946107784,400 531.736526946,400 536.526946108,400 541.317365269,400 546.107784431,200 550.898203593,100 555.688622754,300 560.479041916,200 565.269461078,350 570.05988024,400 574.850299401,400 579.640718563,400 584.431137725,350 589.221556886,400 594.011976048,400 598.80239521,100 603.592814371,200 608.383233533,350 613.173652695,400 617.964071856,400 622.754491018,400 627.54491018,400 632.335329341,400 637.125748503,400 641.916167665,400 646.706586826,400 651.497005988,400 656.28742515,400 661.077844311,250 665.868263473,250 670.658682635,50 675.449101796,250 680.239520958,300 685.02994012,400 689.820359281,350 694.610778443,250 699.401197605,350 704.191616766,150 708.982035928,250 713.77245509,250 718.562874251,200 723.353293413,250 728.143712575,300 732.934131737,400 737.724550898,400 742.51497006,400 747.305389222,400 752.095808383,400 756.886227545,400 761.676646707,400 766.467065868,400 771.25748503,400 776.047904192,250 780.838323353,250 785.628742515,0 790.419161677,300 795.209580838,300 800,400"
		stroke="rgb(17, 121, 27)" stroke-width="2" stroke-linecap="round"
		stroke-linejoin="round" fill="#e1f9e1" />
		</svg>