<?xml version="1.0" encoding="UTF-8" standalone="no"?>
		<!DOCTYPE svg PUBLIC "-//W3C//DTD SVG 1.1//EN" "http://www.w3.org/Graphics/SVG/1.1/DTD/svg11.dtd">
		<svg xmlns="http://www.w3.org/2000/svg" viewBox="0 0 800 400" preserveAspectRatio="xMidYMid meet">
			<title>#spain Trend</title>

			<!-- drawing elements to go here -->

		    <polyline points="0,400 0,400 4.79041916168,360 9.58083832335,320 14.371257485,360 19.1616766467,320 23.9520958084,400 28.7425149701,400 33.5329341317,280 38.3233532934,240 43.1137724551,400 47.9041916168,240 52.6946107784,200 57.4850299401,200 62.2754491018,360 67.0658682635,400 71.8562874251,400 76.6467065868,320 81.4371257485,400 86.2275449102,400 91.0179640719,320 95.8083832335,360 100.598802395,360 105.389221557,400 110.179640719,320 114.97005988,200 119.760479042,360 124.550898204,320 129.341317365,320 134.131736527,160 138.922155689,240 143.71257485,240 148.502994012,360 153.293413174,240 158.083832335,320 162.874251497,240 167.664670659,320 172.45508982,360 177.245508982,120 182.035928144,320 186.826347305,400 191.616766467,360 196.407185629,400 201.19760479,400 205.988023952,400 210.778443114,360 215.568862275,360 220.359281437,360 225.149700599,200 229.94011976,280 234.730538922,320 239.520958084,320 244.311377246,240 249.101796407,40 253.892215569,240 258.682634731,240 263.473053892,240 268.263473054,120 273.053892216,320 277.844311377,280 282.634730539,360 287.425149701,400 292.215568862,320 297.005988024,360 301.796407186,400 306.586826347,400 311.377245509,400 316.167664671,400 320.958083832,400 325.748502994,320 330.538922156,200 335.329341317,320 340.119760479,320 344.910179641,360 349.700598802,160 354.491017964,120 359.281437126,360 364.071856287,360 368.862275449,240 373.652694611,360 378.443113772,120 383.233532934,200 388.023952096,360 392.814371257,280 397.604790419,240 402.395209581,360 407.185628743,360 411.976047904,400 416.766467066,400 421.556886228,400 426.347305389,400 431.137724551,400 435.928143713,320 440.718562874,320 445.508982036,360 450.299401198,320 455.089820359,240 459.880239521,160 464.670658683,320 469.461077844,280 474.251497006,160 479.041916168,320 483.832335329,120 488.622754491,240 493.413173653,280 498.203592814,160 502.994011976,360 507.784431138,320 512.574850299,360 517.365269461,360 522.155688623,280 526.946107784,320 531.736526946,400 536.526946108,400 541.317365269,400 546.107784431,400 550.898203593,400 555.688622754,240 560.479041916,320 565.269461078,240 570.05988024,400 574.850299401,320 579.640718563,200 584.431137725,160 589.221556886,360 594.011976048,360 598.80239521,160 603.592814371,320 608.383233533,320 613.173652695,160 617.964071856,400 622.754491018,280 627.54491018,240 632.335329341,360 637.125748503,320 641.916167665,400 646.706586826,360 651.497005988,360 656.28742515,400 661.077844311,0 665.868263473,400 670.658682635,400 675.449101796,400 680.239520958,320 685.02994012,400 689.820359281,320 694.610778443,360 699.401197605,400 704.191616766,160 708.982035928,120 713.77245509,280 718.562874251,360 723.353293413,40 728.143712575,280 732.934131737,400 737.724550898,360 742.51497006,360 747.305389222,360 752.095808383,240 756.886227545,400 761.676646707,360 766.467065868,400 771.25748503,400 776.047904192,360 780.838323353,360 785.628742515,360 790.419161677,160 795.209580838,280 800,400"
		stroke="rgb(17, 121, 27)" stroke-width="2" stroke-linecap="round"
		stroke-linejoin="round" fill="#e1f9e1" />
		</svg>