<?xml version="1.0" encoding="UTF-8" standalone="no"?>
		<!DOCTYPE svg PUBLIC "-//W3C//DTD SVG 1.1//EN" "http://www.w3.org/Graphics/SVG/1.1/DTD/svg11.dtd">
		<svg xmlns="http://www.w3.org/2000/svg" viewBox="0 0 800 400" preserveAspectRatio="xMidYMid meet">
			<title>#spain Trend</title>

			<!-- drawing elements to go here -->

		    <polyline points="0,400 0,400 4.79041916168,398.29787234 9.58083832335,396.595744681 14.371257485,398.29787234 19.1616766467,396.595744681 23.9520958084,400 28.7425149701,400 33.5329341317,394.893617021 38.3233532934,393.191489362 43.1137724551,400 47.9041916168,393.191489362 52.6946107784,391.489361702 57.4850299401,391.489361702 62.2754491018,398.29787234 67.0658682635,400 71.8562874251,400 76.6467065868,396.595744681 81.4371257485,400 86.2275449102,400 91.0179640719,396.595744681 95.8083832335,398.29787234 100.598802395,398.29787234 105.389221557,400 110.179640719,396.595744681 114.97005988,391.489361702 119.760479042,398.29787234 124.550898204,396.595744681 129.341317365,396.595744681 134.131736527,389.787234043 138.922155689,393.191489362 143.71257485,393.191489362 148.502994012,398.29787234 153.293413174,393.191489362 158.083832335,396.595744681 162.874251497,393.191489362 167.664670659,396.595744681 172.45508982,398.29787234 177.245508982,388.085106383 182.035928144,396.595744681 186.826347305,400 191.616766467,398.29787234 196.407185629,400 201.19760479,400 205.988023952,400 210.778443114,398.29787234 215.568862275,398.29787234 220.359281437,398.29787234 225.149700599,391.489361702 229.94011976,394.893617021 234.730538922,396.595744681 239.520958084,396.595744681 244.311377246,393.191489362 249.101796407,384.680851064 253.892215569,393.191489362 258.682634731,393.191489362 263.473053892,393.191489362 268.263473054,388.085106383 273.053892216,396.595744681 277.844311377,394.893617021 282.634730539,398.29787234 287.425149701,400 292.215568862,396.595744681 297.005988024,398.29787234 301.796407186,400 306.586826347,400 311.377245509,400 316.167664671,400 320.958083832,400 325.748502994,396.595744681 330.538922156,391.489361702 335.329341317,396.595744681 340.119760479,396.595744681 344.910179641,398.29787234 349.700598802,389.787234043 354.491017964,388.085106383 359.281437126,398.29787234 364.071856287,398.29787234 368.862275449,393.191489362 373.652694611,398.29787234 378.443113772,388.085106383 383.233532934,391.489361702 388.023952096,398.29787234 392.814371257,394.893617021 397.604790419,393.191489362 402.395209581,398.29787234 407.185628743,398.29787234 411.976047904,400 416.766467066,400 421.556886228,400 426.347305389,400 431.137724551,400 435.928143713,396.595744681 440.718562874,396.595744681 445.508982036,398.29787234 450.299401198,396.595744681 455.089820359,393.191489362 459.880239521,389.787234043 464.670658683,396.595744681 469.461077844,394.893617021 474.251497006,389.787234043 479.041916168,396.595744681 483.832335329,388.085106383 488.622754491,393.191489362 493.413173653,394.893617021 498.203592814,389.787234043 502.994011976,398.29787234 507.784431138,396.595744681 512.574850299,398.29787234 517.365269461,398.29787234 522.155688623,394.893617021 526.946107784,396.595744681 531.736526946,400 536.526946108,400 541.317365269,400 546.107784431,400 550.898203593,400 555.688622754,393.191489362 560.479041916,396.595744681 565.269461078,393.191489362 570.05988024,400 574.850299401,396.595744681 579.640718563,391.489361702 584.431137725,389.787234043 589.221556886,398.29787234 594.011976048,398.29787234 598.80239521,389.787234043 603.592814371,396.595744681 608.383233533,396.595744681 613.173652695,389.787234043 617.964071856,400 622.754491018,394.893617021 627.54491018,393.191489362 632.335329341,398.29787234 637.125748503,396.595744681 641.916167665,400 646.706586826,398.29787234 651.497005988,398.29787234 656.28742515,400 661.077844311,382.978723404 665.868263473,400 670.658682635,400 675.449101796,400 680.239520958,396.595744681 685.02994012,400 689.820359281,396.595744681 694.610778443,398.29787234 699.401197605,400 704.191616766,389.787234043 708.982035928,388.085106383 713.77245509,394.893617021 718.562874251,398.29787234 723.353293413,384.680851064 728.143712575,394.893617021 732.934131737,400 737.724550898,398.29787234 742.51497006,398.29787234 747.305389222,398.29787234 752.095808383,393.191489362 756.886227545,400 761.676646707,398.29787234 766.467065868,400 771.25748503,400 776.047904192,398.29787234 780.838323353,398.29787234 785.628742515,398.29787234 790.419161677,389.787234043 795.209580838,394.893617021 800,400"
		stroke="rgb(17, 121, 187)" stroke-width="2" stroke-linecap="round"
		stroke-linejoin="round" fill="rgb(225, 240, 248)" />
		</svg>