<?xml version="1.0" encoding="UTF-8" standalone="no"?>
		<!DOCTYPE svg PUBLIC "-//W3C//DTD SVG 1.1//EN" "http://www.w3.org/Graphics/SVG/1.1/DTD/svg11.dtd">
		<svg xmlns="http://www.w3.org/2000/svg" viewBox="0 0 800 400" preserveAspectRatio="xMidYMid meet">
			<title>#spain Trend</title>

			<!-- drawing elements to go here -->

		    <polyline points="0,400 0,400 7.92079207921,398.29787234 15.8415841584,396.595744681 23.7623762376,398.29787234 31.6831683168,396.595744681 39.603960396,400 47.5247524752,400 55.4455445545,394.893617021 63.3663366337,393.191489362 71.2871287129,400 79.2079207921,393.191489362 87.1287128713,391.489361702 95.0495049505,391.489361702 102.97029703,398.29787234 110.891089109,400 118.811881188,400 126.732673267,396.595744681 134.653465347,400 142.574257426,400 150.495049505,396.595744681 158.415841584,398.29787234 166.336633663,398.29787234 174.257425743,400 182.178217822,396.595744681 190.099009901,391.489361702 198.01980198,398.29787234 205.940594059,396.595744681 213.861386139,396.595744681 221.782178218,389.787234043 229.702970297,393.191489362 237.623762376,393.191489362 245.544554455,398.29787234 253.465346535,393.191489362 261.386138614,396.595744681 269.306930693,393.191489362 277.227722772,396.595744681 285.148514851,398.29787234 293.069306931,388.085106383 300.99009901,396.595744681 308.910891089,400 316.831683168,398.29787234 324.752475248,400 332.673267327,400 340.594059406,400 348.514851485,398.29787234 356.435643564,398.29787234 364.356435644,398.29787234 372.277227723,391.489361702 380.198019802,394.893617021 388.118811881,396.595744681 396.03960396,396.595744681 403.96039604,393.191489362 411.881188119,384.680851064 419.801980198,393.191489362 427.722772277,393.191489362 435.643564356,393.191489362 443.564356436,388.085106383 451.485148515,396.595744681 459.405940594,394.893617021 467.326732673,398.29787234 475.247524752,400 483.168316832,396.595744681 491.089108911,398.29787234 499.00990099,400 506.930693069,400 514.851485149,400 522.772277228,400 530.693069307,400 538.613861386,396.595744681 546.534653465,391.489361702 554.455445545,396.595744681 562.376237624,396.595744681 570.297029703,398.29787234 578.217821782,389.787234043 586.138613861,388.085106383 594.059405941,398.29787234 601.98019802,398.29787234 609.900990099,393.191489362 617.821782178,398.29787234 625.742574257,388.085106383 633.663366337,391.489361702 641.584158416,398.29787234 649.504950495,394.893617021 657.425742574,393.191489362 665.346534653,398.29787234 673.267326733,398.29787234 681.188118812,400 689.108910891,400 697.02970297,400 704.95049505,400 712.871287129,400 720.792079208,396.595744681 728.712871287,396.595744681 736.633663366,398.29787234 744.554455446,396.595744681 752.475247525,393.191489362 760.396039604,389.787234043 768.316831683,396.595744681 776.237623762,394.893617021 784.158415842,389.787234043 792.079207921,398.29787234 800,400"
		stroke="rgb(17, 121, 187)" stroke-width="2" stroke-linecap="round"
		stroke-linejoin="round" fill="rgb(225, 240, 248)" />
		</svg>