<?xml version="1.0" encoding="UTF-8" standalone="no"?>
		<!DOCTYPE svg PUBLIC "-//W3C//DTD SVG 1.1//EN" "http://www.w3.org/Graphics/SVG/1.1/DTD/svg11.dtd">
		<svg xmlns="http://www.w3.org/2000/svg" viewBox="0 0 800 400" preserveAspectRatio="xMidYMid meet">
			<title>#spain Trend</title>

			<!-- drawing elements to go here -->

		    <polyline points="0,400 0,400 7.92079207921,355.555555556 15.8415841584,311.111111111 23.7623762376,355.555555556 31.6831683168,311.111111111 39.603960396,400 47.5247524752,400 55.4455445545,266.666666667 63.3663366337,222.222222222 71.2871287129,400 79.2079207921,222.222222222 87.1287128713,177.777777778 95.0495049505,177.777777778 102.97029703,355.555555556 110.891089109,400 118.811881188,400 126.732673267,311.111111111 134.653465347,400 142.574257426,400 150.495049505,311.111111111 158.415841584,355.555555556 166.336633663,355.555555556 174.257425743,400 182.178217822,311.111111111 190.099009901,177.777777778 198.01980198,355.555555556 205.940594059,311.111111111 213.861386139,311.111111111 221.782178218,133.333333333 229.702970297,222.222222222 237.623762376,222.222222222 245.544554455,355.555555556 253.465346535,222.222222222 261.386138614,311.111111111 269.306930693,222.222222222 277.227722772,311.111111111 285.148514851,355.555555556 293.069306931,88.8888888889 300.99009901,311.111111111 308.910891089,400 316.831683168,355.555555556 324.752475248,400 332.673267327,400 340.594059406,400 348.514851485,355.555555556 356.435643564,355.555555556 364.356435644,355.555555556 372.277227723,177.777777778 380.198019802,266.666666667 388.118811881,311.111111111 396.03960396,311.111111111 403.96039604,222.222222222 411.881188119,0 419.801980198,222.222222222 427.722772277,222.222222222 435.643564356,222.222222222 443.564356436,88.8888888889 451.485148515,311.111111111 459.405940594,266.666666667 467.326732673,355.555555556 475.247524752,400 483.168316832,311.111111111 491.089108911,355.555555556 499.00990099,400 506.930693069,400 514.851485149,400 522.772277228,400 530.693069307,400 538.613861386,311.111111111 546.534653465,177.777777778 554.455445545,311.111111111 562.376237624,311.111111111 570.297029703,355.555555556 578.217821782,133.333333333 586.138613861,88.8888888889 594.059405941,355.555555556 601.98019802,355.555555556 609.900990099,222.222222222 617.821782178,355.555555556 625.742574257,88.8888888889 633.663366337,177.777777778 641.584158416,355.555555556 649.504950495,266.666666667 657.425742574,222.222222222 665.346534653,355.555555556 673.267326733,355.555555556 681.188118812,400 689.108910891,400 697.02970297,400 704.95049505,400 712.871287129,400 720.792079208,311.111111111 728.712871287,311.111111111 736.633663366,355.555555556 744.554455446,311.111111111 752.475247525,222.222222222 760.396039604,133.333333333 768.316831683,311.111111111 776.237623762,266.666666667 784.158415842,133.333333333 792.079207921,355.555555556 800,400"
		stroke="rgb(17, 121, 27)" stroke-width="2" stroke-linecap="round"
		stroke-linejoin="round" fill="#e1f9e1" />
		</svg>