<?xml version="1.0" encoding="UTF-8" standalone="no"?>
		<!DOCTYPE svg PUBLIC "-//W3C//DTD SVG 1.1//EN" "http://www.w3.org/Graphics/SVG/1.1/DTD/svg11.dtd">
		<svg xmlns="http://www.w3.org/2000/svg" viewBox="0 0 800 400" preserveAspectRatio="xMidYMid meet">
			<title>#thenextgalaxy Trend</title>

			<!-- drawing elements to go here -->

		    <polyline points="0,400 0,400 7.92079207921,400 15.8415841584,400 23.7623762376,400 31.6831683168,400 39.603960396,400 47.5247524752,400 55.4455445545,400 63.3663366337,400 71.2871287129,400 79.2079207921,400 87.1287128713,400 95.0495049505,400 102.97029703,400 110.891089109,400 118.811881188,400 126.732673267,400 134.653465347,400 142.574257426,400 150.495049505,400 158.415841584,400 166.336633663,400 174.257425743,400 182.178217822,398.29787234 190.099009901,398.29787234 198.01980198,398.29787234 205.940594059,396.595744681 213.861386139,400 221.782178218,400 229.702970297,400 237.623762376,400 245.544554455,400 253.465346535,400 261.386138614,398.29787234 269.306930693,398.29787234 277.227722772,400 285.148514851,400 293.069306931,400 300.99009901,400 308.910891089,400 316.831683168,400 324.752475248,400 332.673267327,400 340.594059406,400 348.514851485,400 356.435643564,400 364.356435644,394.893617021 372.277227723,398.29787234 380.198019802,396.595744681 388.118811881,398.29787234 396.03960396,391.489361702 403.96039604,394.893617021 411.881188119,391.489361702 419.801980198,372.765957447 427.722772277,311.489361702 435.643564356,265.531914894 443.564356436,377.872340426 451.485148515,384.680851064 459.405940594,400 467.326732673,394.893617021 475.247524752,398.29787234 483.168316832,396.595744681 491.089108911,400 499.00990099,400 506.930693069,400 514.851485149,400 522.772277228,398.29787234 530.693069307,398.29787234 538.613861386,400 546.534653465,400 554.455445545,396.595744681 562.376237624,391.489361702 570.297029703,400 578.217821782,400 586.138613861,400 594.059405941,396.595744681 601.98019802,400 609.900990099,400 617.821782178,400 625.742574257,400 633.663366337,396.595744681 641.584158416,400 649.504950495,400 657.425742574,400 665.346534653,396.595744681 673.267326733,400 681.188118812,398.29787234 689.108910891,400 697.02970297,400 704.95049505,400 712.871287129,400 720.792079208,400 728.712871287,400 736.633663366,400 744.554455446,398.29787234 752.475247525,398.29787234 760.396039604,400 768.316831683,400 776.237623762,389.787234043 784.158415842,398.29787234 792.079207921,396.595744681 800,400"
		stroke="rgb(17, 121, 187)" stroke-width="2" stroke-linecap="round"
		stroke-linejoin="round" fill="rgb(225, 240, 248)" />
		</svg>