<?xml version="1.0" encoding="UTF-8" standalone="no"?>
		<!DOCTYPE svg PUBLIC "-//W3C//DTD SVG 1.1//EN" "http://www.w3.org/Graphics/SVG/1.1/DTD/svg11.dtd">
		<svg xmlns="http://www.w3.org/2000/svg" viewBox="0 0 800 400" preserveAspectRatio="xMidYMid meet">
			<title>#travel Trend</title>

			<!-- drawing elements to go here -->

		    <polyline points="0,400 0,400 4.79041916168,327.272727273 9.58083832335,363.636363636 14.371257485,400 19.1616766467,363.636363636 23.9520958084,363.636363636 28.7425149701,363.636363636 33.5329341317,400 38.3233532934,363.636363636 43.1137724551,400 47.9041916168,363.636363636 52.6946107784,400 57.4850299401,363.636363636 62.2754491018,400 67.0658682635,400 71.8562874251,400 76.6467065868,400 81.4371257485,400 86.2275449102,363.636363636 91.0179640719,400 95.8083832335,327.272727273 100.598802395,363.636363636 105.389221557,400 110.179640719,363.636363636 114.97005988,400 119.760479042,327.272727273 124.550898204,327.272727273 129.341317365,400 134.131736527,290.909090909 138.922155689,363.636363636 143.71257485,400 148.502994012,363.636363636 153.293413174,363.636363636 158.083832335,327.272727273 162.874251497,327.272727273 167.664670659,400 172.45508982,254.545454545 177.245508982,145.454545455 182.035928144,363.636363636 186.826347305,400 191.616766467,400 196.407185629,400 201.19760479,400 205.988023952,400 210.778443114,400 215.568862275,400 220.359281437,400 225.149700599,363.636363636 229.94011976,327.272727273 234.730538922,363.636363636 239.520958084,400 244.311377246,327.272727273 249.101796407,327.272727273 253.892215569,327.272727273 258.682634731,327.272727273 263.473053892,327.272727273 268.263473054,327.272727273 273.053892216,363.636363636 277.844311377,290.909090909 282.634730539,327.272727273 287.425149701,218.181818182 292.215568862,327.272727273 297.005988024,290.909090909 301.796407186,400 306.586826347,400 311.377245509,363.636363636 316.167664671,400 320.958083832,363.636363636 325.748502994,400 330.538922156,400 335.329341317,327.272727273 340.119760479,363.636363636 344.910179641,363.636363636 349.700598802,290.909090909 354.491017964,0 359.281437126,327.272727273 364.071856287,363.636363636 368.862275449,290.909090909 373.652694611,327.272727273 378.443113772,327.272727273 383.233532934,363.636363636 388.023952096,327.272727273 392.814371257,363.636363636 397.604790419,290.909090909 402.395209581,327.272727273 407.185628743,400 411.976047904,400 416.766467066,400 421.556886228,400 426.347305389,400 431.137724551,400 435.928143713,363.636363636 440.718562874,400 445.508982036,400 450.299401198,400 455.089820359,400 459.880239521,290.909090909 464.670658683,363.636363636 469.461077844,400 474.251497006,400 479.041916168,400 483.832335329,327.272727273 488.622754491,290.909090909 493.413173653,0 498.203592814,36.3636363636 502.994011976,400 507.784431138,363.636363636 512.574850299,363.636363636 517.365269461,400 522.155688623,400 526.946107784,400 531.736526946,363.636363636 536.526946108,400 541.317365269,400 546.107784431,400 550.898203593,400 555.688622754,290.909090909 560.479041916,327.272727273 565.269461078,400 570.05988024,363.636363636 574.850299401,363.636363636 579.640718563,363.636363636 584.431137725,327.272727273 589.221556886,363.636363636 594.011976048,327.272727273 598.80239521,290.909090909 603.592814371,327.272727273 608.383233533,363.636363636 613.173652695,363.636363636 617.964071856,400 622.754491018,327.272727273 627.54491018,363.636363636 632.335329341,400 637.125748503,363.636363636 641.916167665,400 646.706586826,400 651.497005988,363.636363636 656.28742515,400 661.077844311,400 665.868263473,363.636363636 670.658682635,290.909090909 675.449101796,400 680.239520958,400 685.02994012,400 689.820359281,400 694.610778443,400 699.401197605,363.636363636 704.191616766,363.636363636 708.982035928,327.272727273 713.77245509,290.909090909 718.562874251,363.636363636 723.353293413,290.909090909 728.143712575,327.272727273 732.934131737,363.636363636 737.724550898,400 742.51497006,400 747.305389222,400 752.095808383,363.636363636 756.886227545,363.636363636 761.676646707,400 766.467065868,400 771.25748503,400 776.047904192,400 780.838323353,400 785.628742515,400 790.419161677,327.272727273 795.209580838,400 800,400"
		stroke="rgb(17, 121, 27)" stroke-width="2" stroke-linecap="round"
		stroke-linejoin="round" fill="#e1f9e1" />
		</svg>