<?xml version="1.0" encoding="UTF-8" standalone="no"?>
		<!DOCTYPE svg PUBLIC "-//W3C//DTD SVG 1.1//EN" "http://www.w3.org/Graphics/SVG/1.1/DTD/svg11.dtd">
		<svg xmlns="http://www.w3.org/2000/svg" viewBox="0 0 800 400" preserveAspectRatio="xMidYMid meet">
			<title>#travel Trend</title>

			<!-- drawing elements to go here -->

		    <polyline points="0,400 0,400 7.92079207921,327.272727273 15.8415841584,363.636363636 23.7623762376,400 31.6831683168,363.636363636 39.603960396,363.636363636 47.5247524752,363.636363636 55.4455445545,400 63.3663366337,363.636363636 71.2871287129,400 79.2079207921,363.636363636 87.1287128713,400 95.0495049505,363.636363636 102.97029703,400 110.891089109,400 118.811881188,400 126.732673267,400 134.653465347,400 142.574257426,363.636363636 150.495049505,400 158.415841584,327.272727273 166.336633663,363.636363636 174.257425743,400 182.178217822,363.636363636 190.099009901,400 198.01980198,327.272727273 205.940594059,327.272727273 213.861386139,400 221.782178218,290.909090909 229.702970297,363.636363636 237.623762376,400 245.544554455,363.636363636 253.465346535,363.636363636 261.386138614,327.272727273 269.306930693,327.272727273 277.227722772,400 285.148514851,254.545454545 293.069306931,145.454545455 300.99009901,363.636363636 308.910891089,400 316.831683168,400 324.752475248,400 332.673267327,400 340.594059406,400 348.514851485,400 356.435643564,400 364.356435644,400 372.277227723,363.636363636 380.198019802,327.272727273 388.118811881,363.636363636 396.03960396,400 403.96039604,327.272727273 411.881188119,327.272727273 419.801980198,327.272727273 427.722772277,327.272727273 435.643564356,327.272727273 443.564356436,327.272727273 451.485148515,363.636363636 459.405940594,290.909090909 467.326732673,327.272727273 475.247524752,218.181818182 483.168316832,327.272727273 491.089108911,290.909090909 499.00990099,400 506.930693069,400 514.851485149,363.636363636 522.772277228,400 530.693069307,363.636363636 538.613861386,400 546.534653465,400 554.455445545,327.272727273 562.376237624,363.636363636 570.297029703,363.636363636 578.217821782,290.909090909 586.138613861,0 594.059405941,327.272727273 601.98019802,363.636363636 609.900990099,290.909090909 617.821782178,327.272727273 625.742574257,327.272727273 633.663366337,363.636363636 641.584158416,327.272727273 649.504950495,363.636363636 657.425742574,290.909090909 665.346534653,327.272727273 673.267326733,400 681.188118812,400 689.108910891,400 697.02970297,400 704.95049505,400 712.871287129,400 720.792079208,363.636363636 728.712871287,400 736.633663366,400 744.554455446,400 752.475247525,400 760.396039604,290.909090909 768.316831683,363.636363636 776.237623762,400 784.158415842,400 792.079207921,400 800,400"
		stroke="rgb(17, 121, 27)" stroke-width="2" stroke-linecap="round"
		stroke-linejoin="round" fill="#e1f9e1" />
		</svg>