<?xml version="1.0" encoding="UTF-8" standalone="no"?>
		<!DOCTYPE svg PUBLIC "-//W3C//DTD SVG 1.1//EN" "http://www.w3.org/Graphics/SVG/1.1/DTD/svg11.dtd">
		<svg xmlns="http://www.w3.org/2000/svg" viewBox="0 0 800 400" preserveAspectRatio="xMidYMid meet">
			<title>#vr Trend</title>

			<!-- drawing elements to go here -->

		    <polyline points="0,400 0,400 4.79041916168,400 9.58083832335,400 14.371257485,400 19.1616766467,400 23.9520958084,400 28.7425149701,400 33.5329341317,400 38.3233532934,400 43.1137724551,400 47.9041916168,400 52.6946107784,400 57.4850299401,400 62.2754491018,400 67.0658682635,400 71.8562874251,400 76.6467065868,400 81.4371257485,400 86.2275449102,400 91.0179640719,400 95.8083832335,400 100.598802395,400 105.389221557,400 110.179640719,400 114.97005988,400 119.760479042,400 124.550898204,400 129.341317365,400 134.131736527,400 138.922155689,363.636363636 143.71257485,400 148.502994012,363.636363636 153.293413174,400 158.083832335,363.636363636 162.874251497,400 167.664670659,400 172.45508982,400 177.245508982,363.636363636 182.035928144,400 186.826347305,400 191.616766467,400 196.407185629,400 201.19760479,363.636363636 205.988023952,400 210.778443114,400 215.568862275,400 220.359281437,400 225.149700599,400 229.94011976,363.636363636 234.730538922,363.636363636 239.520958084,400 244.311377246,254.545454545 249.101796407,400 253.892215569,363.636363636 258.682634731,218.181818182 263.473053892,72.7272727273 268.263473054,290.909090909 273.053892216,181.818181818 277.844311377,400 282.634730539,363.636363636 287.425149701,400 292.215568862,400 297.005988024,400 301.796407186,400 306.586826347,400 311.377245509,400 316.167664671,400 320.958083832,327.272727273 325.748502994,290.909090909 330.538922156,327.272727273 335.329341317,254.545454545 340.119760479,363.636363636 344.910179641,363.636363636 349.700598802,363.636363636 354.491017964,290.909090909 359.281437126,218.181818182 364.071856287,363.636363636 368.862275449,327.272727273 373.652694611,363.636363636 378.443113772,363.636363636 383.233532934,363.636363636 388.023952096,363.636363636 392.814371257,254.545454545 397.604790419,290.909090909 402.395209581,254.545454545 407.185628743,400 411.976047904,400 416.766467066,400 421.556886228,400 426.347305389,400 431.137724551,400 435.928143713,400 440.718562874,400 445.508982036,254.545454545 450.299401198,0 455.089820359,290.909090909 459.880239521,327.272727273 464.670658683,218.181818182 469.461077844,363.636363636 474.251497006,218.181818182 479.041916168,254.545454545 483.832335329,290.909090909 488.622754491,363.636363636 493.413173653,363.636363636 498.203592814,363.636363636 502.994011976,363.636363636 507.784431138,400 512.574850299,400 517.365269461,400 522.155688623,400 526.946107784,400 531.736526946,400 536.526946108,400 541.317365269,363.636363636 546.107784431,400 550.898203593,363.636363636 555.688622754,363.636363636 560.479041916,327.272727273 565.269461078,181.818181818 570.05988024,327.272727273 574.850299401,327.272727273 579.640718563,290.909090909 584.431137725,327.272727273 589.221556886,254.545454545 594.011976048,290.909090909 598.80239521,327.272727273 603.592814371,400 608.383233533,400 613.173652695,400 617.964071856,363.636363636 622.754491018,363.636363636 627.54491018,327.272727273 632.335329341,400 637.125748503,400 641.916167665,400 646.706586826,400 651.497005988,363.636363636 656.28742515,400 661.077844311,363.636363636 665.868263473,400 670.658682635,400 675.449101796,363.636363636 680.239520958,363.636363636 685.02994012,400 689.820359281,363.636363636 694.610778443,327.272727273 699.401197605,218.181818182 704.191616766,290.909090909 708.982035928,363.636363636 713.77245509,400 718.562874251,363.636363636 723.353293413,363.636363636 728.143712575,109.090909091 732.934131737,400 737.724550898,400 742.51497006,400 747.305389222,400 752.095808383,400 756.886227545,400 761.676646707,400 766.467065868,400 771.25748503,400 776.047904192,400 780.838323353,400 785.628742515,400 790.419161677,400 795.209580838,363.636363636 800,400"
		stroke="rgb(17, 121, 27)" stroke-width="2" stroke-linecap="round"
		stroke-linejoin="round" fill="#e1f9e1" />
		</svg>