<?xml version="1.0" encoding="UTF-8" standalone="no"?>
		<!DOCTYPE svg PUBLIC "-//W3C//DTD SVG 1.1//EN" "http://www.w3.org/Graphics/SVG/1.1/DTD/svg11.dtd">
		<svg xmlns="http://www.w3.org/2000/svg" viewBox="0 0 800 400" preserveAspectRatio="xMidYMid meet">
			<title>#vr Trend</title>

			<!-- drawing elements to go here -->

		    <polyline points="0,400 0,400 4.79041916168,400 9.58083832335,400 14.371257485,400 19.1616766467,400 23.9520958084,400 28.7425149701,400 33.5329341317,400 38.3233532934,400 43.1137724551,400 47.9041916168,400 52.6946107784,400 57.4850299401,400 62.2754491018,400 67.0658682635,400 71.8562874251,400 76.6467065868,400 81.4371257485,400 86.2275449102,400 91.0179640719,400 95.8083832335,400 100.598802395,400 105.389221557,400 110.179640719,400 114.97005988,400 119.760479042,400 124.550898204,400 129.341317365,400 134.131736527,400 138.922155689,398.29787234 143.71257485,400 148.502994012,398.29787234 153.293413174,400 158.083832335,398.29787234 162.874251497,400 167.664670659,400 172.45508982,400 177.245508982,398.29787234 182.035928144,400 186.826347305,400 191.616766467,400 196.407185629,400 201.19760479,398.29787234 205.988023952,400 210.778443114,400 215.568862275,400 220.359281437,400 225.149700599,400 229.94011976,398.29787234 234.730538922,398.29787234 239.520958084,400 244.311377246,393.191489362 249.101796407,400 253.892215569,398.29787234 258.682634731,391.489361702 263.473053892,384.680851064 268.263473054,394.893617021 273.053892216,389.787234043 277.844311377,400 282.634730539,398.29787234 287.425149701,400 292.215568862,400 297.005988024,400 301.796407186,400 306.586826347,400 311.377245509,400 316.167664671,400 320.958083832,396.595744681 325.748502994,394.893617021 330.538922156,396.595744681 335.329341317,393.191489362 340.119760479,398.29787234 344.910179641,398.29787234 349.700598802,398.29787234 354.491017964,394.893617021 359.281437126,391.489361702 364.071856287,398.29787234 368.862275449,396.595744681 373.652694611,398.29787234 378.443113772,398.29787234 383.233532934,398.29787234 388.023952096,398.29787234 392.814371257,393.191489362 397.604790419,394.893617021 402.395209581,393.191489362 407.185628743,400 411.976047904,400 416.766467066,400 421.556886228,400 426.347305389,400 431.137724551,400 435.928143713,400 440.718562874,400 445.508982036,393.191489362 450.299401198,381.276595745 455.089820359,394.893617021 459.880239521,396.595744681 464.670658683,391.489361702 469.461077844,398.29787234 474.251497006,391.489361702 479.041916168,393.191489362 483.832335329,394.893617021 488.622754491,398.29787234 493.413173653,398.29787234 498.203592814,398.29787234 502.994011976,398.29787234 507.784431138,400 512.574850299,400 517.365269461,400 522.155688623,400 526.946107784,400 531.736526946,400 536.526946108,400 541.317365269,398.29787234 546.107784431,400 550.898203593,398.29787234 555.688622754,398.29787234 560.479041916,396.595744681 565.269461078,389.787234043 570.05988024,396.595744681 574.850299401,396.595744681 579.640718563,394.893617021 584.431137725,396.595744681 589.221556886,393.191489362 594.011976048,394.893617021 598.80239521,396.595744681 603.592814371,400 608.383233533,400 613.173652695,400 617.964071856,398.29787234 622.754491018,398.29787234 627.54491018,396.595744681 632.335329341,400 637.125748503,400 641.916167665,400 646.706586826,400 651.497005988,398.29787234 656.28742515,400 661.077844311,398.29787234 665.868263473,400 670.658682635,400 675.449101796,398.29787234 680.239520958,398.29787234 685.02994012,400 689.820359281,398.29787234 694.610778443,396.595744681 699.401197605,391.489361702 704.191616766,394.893617021 708.982035928,398.29787234 713.77245509,400 718.562874251,398.29787234 723.353293413,398.29787234 728.143712575,386.382978723 732.934131737,400 737.724550898,400 742.51497006,400 747.305389222,400 752.095808383,400 756.886227545,400 761.676646707,400 766.467065868,400 771.25748503,400 776.047904192,400 780.838323353,400 785.628742515,400 790.419161677,400 795.209580838,398.29787234 800,400"
		stroke="rgb(17, 121, 187)" stroke-width="2" stroke-linecap="round"
		stroke-linejoin="round" fill="rgb(225, 240, 248)" />
		</svg>