<?xml version="1.0" encoding="UTF-8" standalone="no"?>
		<!DOCTYPE svg PUBLIC "-//W3C//DTD SVG 1.1//EN" "http://www.w3.org/Graphics/SVG/1.1/DTD/svg11.dtd">
		<svg xmlns="http://www.w3.org/2000/svg" viewBox="0 0 800 400" preserveAspectRatio="xMidYMid meet">
			<title>#wmc16 Trend</title>

			<!-- drawing elements to go here -->

		    <polyline points="0,400 0,400 4.79041916168,400 9.58083832335,400 14.371257485,400 19.1616766467,400 23.9520958084,400 28.7425149701,400 33.5329341317,400 38.3233532934,400 43.1137724551,400 47.9041916168,400 52.6946107784,400 57.4850299401,400 62.2754491018,400 67.0658682635,400 71.8562874251,400 76.6467065868,400 81.4371257485,400 86.2275449102,400 91.0179640719,400 95.8083832335,400 100.598802395,400 105.389221557,400 110.179640719,400 114.97005988,400 119.760479042,400 124.550898204,400 129.341317365,400 134.131736527,400 138.922155689,400 143.71257485,400 148.502994012,400 153.293413174,398.29787234 158.083832335,400 162.874251497,400 167.664670659,400 172.45508982,400 177.245508982,400 182.035928144,400 186.826347305,400 191.616766467,400 196.407185629,400 201.19760479,400 205.988023952,400 210.778443114,400 215.568862275,400 220.359281437,400 225.149700599,400 229.94011976,400 234.730538922,398.29787234 239.520958084,398.29787234 244.311377246,398.29787234 249.101796407,400 253.892215569,396.595744681 258.682634731,398.29787234 263.473053892,400 268.263473054,400 273.053892216,398.29787234 277.844311377,398.29787234 282.634730539,400 287.425149701,400 292.215568862,400 297.005988024,400 301.796407186,400 306.586826347,400 311.377245509,400 316.167664671,398.29787234 320.958083832,400 325.748502994,394.893617021 330.538922156,386.382978723 335.329341317,400 340.119760479,396.595744681 344.910179641,389.787234043 349.700598802,400 354.491017964,394.893617021 359.281437126,396.595744681 364.071856287,391.489361702 368.862275449,386.382978723 373.652694611,396.595744681 378.443113772,398.29787234 383.233532934,394.893617021 388.023952096,400 392.814371257,398.29787234 397.604790419,400 402.395209581,398.29787234 407.185628743,400 411.976047904,400 416.766467066,400 421.556886228,400 426.347305389,400 431.137724551,400 435.928143713,396.595744681 440.718562874,400 445.508982036,398.29787234 450.299401198,396.595744681 455.089820359,396.595744681 459.880239521,396.595744681 464.670658683,396.595744681 469.461077844,396.595744681 474.251497006,394.893617021 479.041916168,394.893617021 483.832335329,393.191489362 488.622754491,393.191489362 493.413173653,400 498.203592814,398.29787234 502.994011976,400 507.784431138,398.29787234 512.574850299,400 517.365269461,398.29787234 522.155688623,394.893617021 526.946107784,400 531.736526946,400 536.526946108,400 541.317365269,400 546.107784431,400 550.898203593,400 555.688622754,398.29787234 560.479041916,396.595744681 565.269461078,384.680851064 570.05988024,396.595744681 574.850299401,394.893617021 579.640718563,396.595744681 584.431137725,386.382978723 589.221556886,396.595744681 594.011976048,400 598.80239521,398.29787234 603.592814371,398.29787234 608.383233533,400 613.173652695,400 617.964071856,400 622.754491018,400 627.54491018,400 632.335329341,398.29787234 637.125748503,400 641.916167665,400 646.706586826,400 651.497005988,400 656.28742515,400 661.077844311,400 665.868263473,400 670.658682635,400 675.449101796,398.29787234 680.239520958,398.29787234 685.02994012,396.595744681 689.820359281,398.29787234 694.610778443,396.595744681 699.401197605,394.893617021 704.191616766,394.893617021 708.982035928,400 713.77245509,400 718.562874251,400 723.353293413,400 728.143712575,396.595744681 732.934131737,400 737.724550898,400 742.51497006,398.29787234 747.305389222,400 752.095808383,400 756.886227545,400 761.676646707,400 766.467065868,400 771.25748503,400 776.047904192,400 780.838323353,400 785.628742515,400 790.419161677,400 795.209580838,400 800,400"
		stroke="rgb(17, 121, 187)" stroke-width="2" stroke-linecap="round"
		stroke-linejoin="round" fill="rgb(225, 240, 248)" />
		</svg>